  0
SECTION
  2
ENTITIES
  0
POLYLINE
  8
viva-1
  5
1
 66
1
 10
0.0
 20
0.0
 30
0.0
 70
1
  0
VERTEX
  8
viva-1
  5
2
 10
-1.53
 20
-37.5
  0
VERTEX
  8
viva-1
  5
3
 10
2.1286e-016
 20
-37.5
  0
SEQEND
  8
viva-1
  5
4
  0
POLYLINE
  8
viva-1
  5
5
 66
1
 10
0.0
 20
0.0
 30
0.0
 70
1
  0
VERTEX
  8
viva-1
  5
6
 10
75.0
 20
11.668
  0
VERTEX
  8
viva-1
  5
7
 10
74.8643
 20
11.6018
  0
VERTEX
  8
viva-1
  5
8
 10
74.7284
 20
11.5358
  0
VERTEX
  8
viva-1
  5
9
 10
74.5924
 20
11.4702
  0
VERTEX
  8
viva-1
  5
A
 10
74.4567
 20
11.4049
  0
VERTEX
  8
viva-1
  5
B
 10
74.3208
 20
11.34
  0
VERTEX
  8
viva-1
  5
C
 10
74.1848
 20
11.2754
  0
VERTEX
  8
viva-1
  5
D
 10
74.0491
 20
11.2112
  0
VERTEX
  8
viva-1
  5
E
 10
73.9132
 20
11.1474
  0
VERTEX
  8
viva-1
  5
F
 10
73.7772
 20
11.0839
  0
VERTEX
  8
viva-1
  5
10
 10
73.6414
 20
11.0209
  0
VERTEX
  8
viva-1
  5
11
 10
73.5056
 20
10.9582
  0
VERTEX
  8
viva-1
  5
12
 10
73.3696
 20
10.8959
  0
VERTEX
  8
viva-1
  5
13
 10
73.2338
 20
10.834
  0
VERTEX
  8
viva-1
  5
14
 10
73.0979
 20
10.7723
  0
VERTEX
  8
viva-1
  5
15
 10
72.962
 20
10.711
  0
VERTEX
  8
viva-1
  5
16
 10
72.8262
 20
10.65
  0
VERTEX
  8
viva-1
  5
17
 10
72.6903
 20
10.5893
  0
VERTEX
  8
viva-1
  5
18
 10
72.5543
 20
10.5289
  0
VERTEX
  8
viva-1
  5
19
 10
72.4186
 20
10.469
  0
VERTEX
  8
viva-1
  5
1A
 10
72.2827
 20
10.4094
  0
VERTEX
  8
viva-1
  5
1B
 10
72.1467
 20
10.3501
  0
VERTEX
  8
viva-1
  5
1C
 10
72.011
 20
10.2913
  0
VERTEX
  8
viva-1
  5
1D
 10
71.8751
 20
10.2327
  0
VERTEX
  8
viva-1
  5
1E
 10
71.7391
 20
10.1745
  0
VERTEX
  8
viva-1
  5
1F
 10
71.6034
 20
10.1167
  0
VERTEX
  8
viva-1
  5
20
 10
71.4675
 20
10.0592
  0
VERTEX
  8
viva-1
  5
21
 10
71.3315
 20
10.002
  0
VERTEX
  8
viva-1
  5
22
 10
71.1958
 20
9.94514
  0
VERTEX
  8
viva-1
  5
23
 10
71.0599
 20
9.8886
  0
VERTEX
  8
viva-1
  5
24
 10
70.9239
 20
9.83232
  0
VERTEX
  8
viva-1
  5
25
 10
70.7881
 20
9.77642
  0
VERTEX
  8
viva-1
  5
26
 10
70.6523
 20
9.72078
  0
VERTEX
  8
viva-1
  5
27
 10
70.5163
 20
9.66538
  0
VERTEX
  8
viva-1
  5
28
 10
70.3805
 20
9.61035
  0
VERTEX
  8
viva-1
  5
29
 10
70.2447
 20
9.55556
  0
VERTEX
  8
viva-1
  5
2A
 10
70.1087
 20
9.50105
  0
VERTEX
  8
viva-1
  5
2B
 10
69.9729
 20
9.44695
  0
VERTEX
  8
viva-1
  5
2C
 10
69.8371
 20
9.39312
  0
VERTEX
  8
viva-1
  5
2D
 10
69.7011
 20
9.33958
  0
VERTEX
  8
viva-1
  5
2E
 10
69.5653
 20
9.28643
  0
VERTEX
  8
viva-1
  5
2F
 10
69.4295
 20
9.23357
  0
VERTEX
  8
viva-1
  5
30
 10
69.2935
 20
9.18097
  0
VERTEX
  8
viva-1
  5
31
 10
69.1577
 20
9.12876
  0
VERTEX
  8
viva-1
  5
32
 10
69.0218
 20
9.07682
  0
VERTEX
  8
viva-1
  5
33
 10
68.8859
 20
9.02515
  0
VERTEX
  8
viva-1
  5
34
 10
68.7501
 20
8.97385
  0
VERTEX
  8
viva-1
  5
35
 10
68.6142
 20
8.92282
  0
VERTEX
  8
viva-1
  5
36
 10
68.4783
 20
8.87205
  0
VERTEX
  8
viva-1
  5
37
 10
68.3425
 20
8.82164
  0
VERTEX
  8
viva-1
  5
38
 10
68.2066
 20
8.77149
  0
VERTEX
  8
viva-1
  5
39
 10
68.0707
 20
8.72159
  0
VERTEX
  8
viva-1
  5
3A
 10
67.9349
 20
8.67205
  0
VERTEX
  8
viva-1
  5
3B
 10
67.799
 20
8.62275
  0
VERTEX
  8
viva-1
  5
3C
 10
67.663
 20
8.57371
  0
VERTEX
  8
viva-1
  5
3D
 10
67.5273
 20
8.525
  0
VERTEX
  8
viva-1
  5
3E
 10
67.3914
 20
8.47654
  0
VERTEX
  8
viva-1
  5
3F
 10
67.2554
 20
8.42832
  0
VERTEX
  8
viva-1
  5
40
 10
67.1196
 20
8.38043
  0
VERTEX
  8
viva-1
  5
41
 10
66.9838
 20
8.33278
  0
VERTEX
  8
viva-1
  5
42
 10
66.8478
 20
8.28537
  0
VERTEX
  8
viva-1
  5
43
 10
66.712
 20
8.23827
  0
VERTEX
  8
viva-1
  5
44
 10
66.5762
 20
8.19141
  0
VERTEX
  8
viva-1
  5
45
 10
66.4402
 20
8.14477
  0
VERTEX
  8
viva-1
  5
46
 10
66.3044
 20
8.09844
  0
VERTEX
  8
viva-1
  5
47
 10
66.1686
 20
8.05234
  0
VERTEX
  8
viva-1
  5
48
 10
66.0326
 20
8.00645
  0
VERTEX
  8
viva-1
  5
49
 10
65.8968
 20
7.96086
  0
VERTEX
  8
viva-1
  5
4A
 10
65.7609
 20
7.91549
  0
VERTEX
  8
viva-1
  5
4B
 10
65.625
 20
7.87035
  0
VERTEX
  8
viva-1
  5
4C
 10
65.4892
 20
7.82551
  0
VERTEX
  8
viva-1
  5
4D
 10
65.3533
 20
7.7809
  0
VERTEX
  8
viva-1
  5
4E
 10
65.2174
 20
7.73652
  0
VERTEX
  8
viva-1
  5
4F
 10
65.0816
 20
7.69245
  0
VERTEX
  8
viva-1
  5
50
 10
64.9457
 20
7.64862
  0
VERTEX
  8
viva-1
  5
51
 10
64.8098
 20
7.60502
  0
VERTEX
  8
viva-1
  5
52
 10
64.674
 20
7.56172
  0
VERTEX
  8
viva-1
  5
53
 10
64.5381
 20
7.51865
  0
VERTEX
  8
viva-1
  5
54
 10
64.4022
 20
7.47581
  0
VERTEX
  8
viva-1
  5
55
 10
64.2664
 20
7.43327
  0
VERTEX
  8
viva-1
  5
56
 10
64.1305
 20
7.39095
  0
VERTEX
  8
viva-1
  5
57
 10
63.9946
 20
7.34886
  0
VERTEX
  8
viva-1
  5
58
 10
63.8588
 20
7.30705
  0
VERTEX
  8
viva-1
  5
59
 10
63.7229
 20
7.26547
  0
VERTEX
  8
viva-1
  5
5A
 10
63.587
 20
7.2241
  0
VERTEX
  8
viva-1
  5
5B
 10
63.4512
 20
7.18302
  0
VERTEX
  8
viva-1
  5
5C
 10
63.3153
 20
7.14216
  0
VERTEX
  8
viva-1
  5
5D
 10
63.1793
 20
7.10152
  0
VERTEX
  8
viva-1
  5
5E
 10
63.0435
 20
7.06114
  0
VERTEX
  8
viva-1
  5
5F
 10
62.9077
 20
7.02099
  0
VERTEX
  8
viva-1
  5
60
 10
62.7717
 20
6.98104
  0
VERTEX
  8
viva-1
  5
61
 10
62.6359
 20
6.94137
  0
VERTEX
  8
viva-1
  5
62
 10
62.5001
 20
6.9019
  0
VERTEX
  8
viva-1
  5
63
 10
62.3641
 20
6.86265
  0
VERTEX
  8
viva-1
  5
64
 10
62.2283
 20
6.82365
  0
VERTEX
  8
viva-1
  5
65
 10
62.0924
 20
6.78486
  0
VERTEX
  8
viva-1
  5
66
 10
61.9565
 20
6.74628
  0
VERTEX
  8
viva-1
  5
67
 10
61.8207
 20
6.70794
  0
VERTEX
  8
viva-1
  5
68
 10
61.6848
 20
6.66982
  0
VERTEX
  8
viva-1
  5
69
 10
61.5489
 20
6.63189
  0
VERTEX
  8
viva-1
  5
6A
 10
61.4131
 20
6.59421
  0
VERTEX
  8
viva-1
  5
6B
 10
61.2772
 20
6.55673
  0
VERTEX
  8
viva-1
  5
6C
 10
61.1413
 20
6.51945
  0
VERTEX
  8
viva-1
  5
6D
 10
61.0055
 20
6.4824
  0
VERTEX
  8
viva-1
  5
6E
 10
60.8696
 20
6.44556
  0
VERTEX
  8
viva-1
  5
6F
 10
60.7337
 20
6.4089
  0
VERTEX
  8
viva-1
  5
70
 10
60.5979
 20
6.37248
  0
VERTEX
  8
viva-1
  5
71
 10
60.462
 20
6.33625
  0
VERTEX
  8
viva-1
  5
72
 10
60.3261
 20
6.3002
  0
VERTEX
  8
viva-1
  5
73
 10
60.1903
 20
6.26439
  0
VERTEX
  8
viva-1
  5
74
 10
60.0544
 20
6.22876
  0
VERTEX
  8
viva-1
  5
75
 10
59.9185
 20
6.19332
  0
VERTEX
  8
viva-1
  5
76
 10
59.7827
 20
6.1581
  0
VERTEX
  8
viva-1
  5
77
 10
59.6468
 20
6.12306
  0
VERTEX
  8
viva-1
  5
78
 10
59.5109
 20
6.0882
  0
VERTEX
  8
viva-1
  5
79
 10
59.375
 20
6.05355
  0
VERTEX
  8
viva-1
  5
7A
 10
59.2392
 20
6.01909
  0
VERTEX
  8
viva-1
  5
7B
 10
59.1033
 20
5.9848
  0
VERTEX
  8
viva-1
  5
7C
 10
58.9674
 20
5.95071
  0
VERTEX
  8
viva-1
  5
7D
 10
58.8316
 20
5.9168
  0
VERTEX
  8
viva-1
  5
7E
 10
58.6957
 20
5.88307
  0
VERTEX
  8
viva-1
  5
7F
 10
58.5598
 20
5.84954
  0
VERTEX
  8
viva-1
  5
80
 10
58.424
 20
5.81619
  0
VERTEX
  8
viva-1
  5
81
 10
58.288
 20
5.78302
  0
VERTEX
  8
viva-1
  5
82
 10
58.1522
 20
5.75007
  0
VERTEX
  8
viva-1
  5
83
 10
58.0163
 20
5.7173
  0
VERTEX
  8
viva-1
  5
84
 10
57.8804
 20
5.68471
  0
VERTEX
  8
viva-1
  5
85
 10
57.7446
 20
5.65234
  0
VERTEX
  8
viva-1
  5
86
 10
57.6087
 20
5.62014
  0
VERTEX
  8
viva-1
  5
87
 10
57.4728
 20
5.58812
  0
VERTEX
  8
viva-1
  5
88
 10
57.337
 20
5.55631
  0
VERTEX
  8
viva-1
  5
89
 10
57.2011
 20
5.52467
  0
VERTEX
  8
viva-1
  5
8A
 10
57.0652
 20
5.49321
  0
VERTEX
  8
viva-1
  5
8B
 10
56.9294
 20
5.46195
  0
VERTEX
  8
viva-1
  5
8C
 10
56.7935
 20
5.43087
  0
VERTEX
  8
viva-1
  5
8D
 10
56.6576
 20
5.39995
  0
VERTEX
  8
viva-1
  5
8E
 10
56.5218
 20
5.36924
  0
VERTEX
  8
viva-1
  5
8F
 10
56.3859
 20
5.33869
  0
VERTEX
  8
viva-1
  5
90
 10
56.25
 20
5.30831
  0
VERTEX
  8
viva-1
  5
91
 10
56.1142
 20
5.27813
  0
VERTEX
  8
viva-1
  5
92
 10
55.9783
 20
5.24811
  0
VERTEX
  8
viva-1
  5
93
 10
55.8424
 20
5.21825
  0
VERTEX
  8
viva-1
  5
94
 10
55.7066
 20
5.18859
  0
VERTEX
  8
viva-1
  5
95
 10
55.5707
 20
5.15909
  0
VERTEX
  8
viva-1
  5
96
 10
55.4348
 20
5.12975
  0
VERTEX
  8
viva-1
  5
97
 10
55.2989
 20
5.10059
  0
VERTEX
  8
viva-1
  5
98
 10
55.1631
 20
5.0716
  0
VERTEX
  8
viva-1
  5
99
 10
55.0272
 20
5.04276
  0
VERTEX
  8
viva-1
  5
9A
 10
54.8913
 20
5.0141
  0
VERTEX
  8
viva-1
  5
9B
 10
54.7555
 20
4.9856
  0
VERTEX
  8
viva-1
  5
9C
 10
54.6196
 20
4.95726
  0
VERTEX
  8
viva-1
  5
9D
 10
54.4837
 20
4.92909
  0
VERTEX
  8
viva-1
  5
9E
 10
54.3479
 20
4.90107
  0
VERTEX
  8
viva-1
  5
9F
 10
54.212
 20
4.87321
  0
VERTEX
  8
viva-1
  5
A0
 10
54.0761
 20
4.84551
  0
VERTEX
  8
viva-1
  5
A1
 10
53.9402
 20
4.81797
  0
VERTEX
  8
viva-1
  5
A2
 10
53.8043
 20
4.79058
  0
VERTEX
  8
viva-1
  5
A3
 10
53.6685
 20
4.76335
  0
VERTEX
  8
viva-1
  5
A4
 10
53.5326
 20
4.73627
  0
VERTEX
  8
viva-1
  5
A5
 10
53.3967
 20
4.70933
  0
VERTEX
  8
viva-1
  5
A6
 10
53.2609
 20
4.68256
  0
VERTEX
  8
viva-1
  5
A7
 10
53.125
 20
4.65593
  0
VERTEX
  8
viva-1
  5
A8
 10
52.9891
 20
4.62945
  0
VERTEX
  8
viva-1
  5
A9
 10
52.8533
 20
4.60312
  0
VERTEX
  8
viva-1
  5
AA
 10
52.7174
 20
4.57693
  0
VERTEX
  8
viva-1
  5
AB
 10
52.5815
 20
4.55088
  0
VERTEX
  8
viva-1
  5
AC
 10
52.4457
 20
4.52498
  0
VERTEX
  8
viva-1
  5
AD
 10
52.3098
 20
4.49922
  0
VERTEX
  8
viva-1
  5
AE
 10
52.1739
 20
4.4736
  0
VERTEX
  8
viva-1
  5
AF
 10
52.0381
 20
4.44812
  0
VERTEX
  8
viva-1
  5
B0
 10
51.9022
 20
4.42278
  0
VERTEX
  8
viva-1
  5
B1
 10
51.7663
 20
4.39758
  0
VERTEX
  8
viva-1
  5
B2
 10
51.6305
 20
4.37251
  0
VERTEX
  8
viva-1
  5
B3
 10
51.4946
 20
4.34758
  0
VERTEX
  8
viva-1
  5
B4
 10
51.3587
 20
4.32279
  0
VERTEX
  8
viva-1
  5
B5
 10
51.2229
 20
4.29816
  0
VERTEX
  8
viva-1
  5
B6
 10
51.087
 20
4.27368
  0
VERTEX
  8
viva-1
  5
B7
 10
50.9511
 20
4.24933
  0
VERTEX
  8
viva-1
  5
B8
 10
50.8152
 20
4.22513
  0
VERTEX
  8
viva-1
  5
B9
 10
50.6794
 20
4.20108
  0
VERTEX
  8
viva-1
  5
BA
 10
50.5435
 20
4.17716
  0
VERTEX
  8
viva-1
  5
BB
 10
50.4076
 20
4.1534
  0
VERTEX
  8
viva-1
  5
BC
 10
50.2718
 20
4.12977
  0
VERTEX
  8
viva-1
  5
BD
 10
50.1359
 20
4.10627
  0
VERTEX
  8
viva-1
  5
BE
 10
50.0
 20
4.08292
  0
VERTEX
  8
viva-1
  5
BF
 10
49.8642
 20
4.0597
  0
VERTEX
  8
viva-1
  5
C0
 10
49.7283
 20
4.03661
  0
VERTEX
  8
viva-1
  5
C1
 10
49.5924
 20
4.01366
  0
VERTEX
  8
viva-1
  5
C2
 10
49.4565
 20
3.99085
  0
VERTEX
  8
viva-1
  5
C3
 10
49.3207
 20
3.96816
  0
VERTEX
  8
viva-1
  5
C4
 10
49.1848
 20
3.9456
  0
VERTEX
  8
viva-1
  5
C5
 10
49.0489
 20
3.92318
  0
VERTEX
  8
viva-1
  5
C6
 10
48.913
 20
3.90087
  0
VERTEX
  8
viva-1
  5
C7
 10
48.7772
 20
3.8787
  0
VERTEX
  8
viva-1
  5
C8
 10
48.6413
 20
3.85665
  0
VERTEX
  8
viva-1
  5
C9
 10
48.5054
 20
3.83473
  0
VERTEX
  8
viva-1
  5
CA
 10
48.3696
 20
3.81293
  0
VERTEX
  8
viva-1
  5
CB
 10
48.2337
 20
3.79125
  0
VERTEX
  8
viva-1
  5
CC
 10
48.0978
 20
3.76968
  0
VERTEX
  8
viva-1
  5
CD
 10
47.962
 20
3.74825
  0
VERTEX
  8
viva-1
  5
CE
 10
47.8261
 20
3.72692
  0
VERTEX
  8
viva-1
  5
CF
 10
47.6902
 20
3.70571
  0
VERTEX
  8
viva-1
  5
D0
 10
47.5544
 20
3.68463
  0
VERTEX
  8
viva-1
  5
D1
 10
47.4185
 20
3.66365
  0
VERTEX
  8
viva-1
  5
D2
 10
47.2826
 20
3.64278
  0
VERTEX
  8
viva-1
  5
D3
 10
47.1468
 20
3.62203
  0
VERTEX
  8
viva-1
  5
D4
 10
47.0109
 20
3.60139
  0
VERTEX
  8
viva-1
  5
D5
 10
46.875
 20
3.58086
  0
VERTEX
  8
viva-1
  5
D6
 10
46.7391
 20
3.56045
  0
VERTEX
  8
viva-1
  5
D7
 10
46.6033
 20
3.54015
  0
VERTEX
  8
viva-1
  5
D8
 10
46.4674
 20
3.51996
  0
VERTEX
  8
viva-1
  5
D9
 10
46.3315
 20
3.4999
  0
VERTEX
  8
viva-1
  5
DA
 10
46.1957
 20
3.47995
  0
VERTEX
  8
viva-1
  5
DB
 10
46.0598
 20
3.46011
  0
VERTEX
  8
viva-1
  5
DC
 10
45.9239
 20
3.44039
  0
VERTEX
  8
viva-1
  5
DD
 10
45.7881
 20
3.42079
  0
VERTEX
  8
viva-1
  5
DE
 10
45.6522
 20
3.40129
  0
VERTEX
  8
viva-1
  5
DF
 10
45.5163
 20
3.38192
  0
VERTEX
  8
viva-1
  5
E0
 10
45.3805
 20
3.36265
  0
VERTEX
  8
viva-1
  5
E1
 10
45.2446
 20
3.34349
  0
VERTEX
  8
viva-1
  5
E2
 10
45.1087
 20
3.32445
  0
VERTEX
  8
viva-1
  5
E3
 10
44.9728
 20
3.30552
  0
VERTEX
  8
viva-1
  5
E4
 10
44.837
 20
3.28669
  0
VERTEX
  8
viva-1
  5
E5
 10
44.7011
 20
3.26798
  0
VERTEX
  8
viva-1
  5
E6
 10
44.5652
 20
3.24937
  0
VERTEX
  8
viva-1
  5
E7
 10
44.4293
 20
3.23087
  0
VERTEX
  8
viva-1
  5
E8
 10
44.2935
 20
3.21248
  0
VERTEX
  8
viva-1
  5
E9
 10
44.1576
 20
3.19419
  0
VERTEX
  8
viva-1
  5
EA
 10
44.0217
 20
3.17601
  0
VERTEX
  8
viva-1
  5
EB
 10
43.8859
 20
3.15794
  0
VERTEX
  8
viva-1
  5
EC
 10
43.75
 20
3.13997
  0
VERTEX
  8
viva-1
  5
ED
 10
43.6141
 20
3.1221
  0
VERTEX
  8
viva-1
  5
EE
 10
43.4783
 20
3.10434
  0
VERTEX
  8
viva-1
  5
EF
 10
43.3424
 20
3.08668
  0
VERTEX
  8
viva-1
  5
F0
 10
43.2065
 20
3.06912
  0
VERTEX
  8
viva-1
  5
F1
 10
43.0707
 20
3.05167
  0
VERTEX
  8
viva-1
  5
F2
 10
42.9348
 20
3.03431
  0
VERTEX
  8
viva-1
  5
F3
 10
42.7989
 20
3.01706
  0
VERTEX
  8
viva-1
  5
F4
 10
42.6631
 20
2.9999
  0
VERTEX
  8
viva-1
  5
F5
 10
42.5272
 20
2.98285
  0
VERTEX
  8
viva-1
  5
F6
 10
42.3913
 20
2.96589
  0
VERTEX
  8
viva-1
  5
F7
 10
42.2554
 20
2.94903
  0
VERTEX
  8
viva-1
  5
F8
 10
42.1196
 20
2.93226
  0
VERTEX
  8
viva-1
  5
F9
 10
41.9837
 20
2.91559
  0
VERTEX
  8
viva-1
  5
FA
 10
41.8478
 20
2.89902
  0
VERTEX
  8
viva-1
  5
FB
 10
41.712
 20
2.88254
  0
VERTEX
  8
viva-1
  5
FC
 10
41.5761
 20
2.86616
  0
VERTEX
  8
viva-1
  5
FD
 10
41.4402
 20
2.84987
  0
VERTEX
  8
viva-1
  5
FE
 10
41.3044
 20
2.83368
  0
VERTEX
  8
viva-1
  5
FF
 10
41.1685
 20
2.81757
  0
VERTEX
  8
viva-1
  5
100
 10
41.0326
 20
2.80156
  0
VERTEX
  8
viva-1
  5
101
 10
40.8967
 20
2.78564
  0
VERTEX
  8
viva-1
  5
102
 10
40.7609
 20
2.76981
  0
VERTEX
  8
viva-1
  5
103
 10
40.625
 20
2.75407
  0
VERTEX
  8
viva-1
  5
104
 10
40.4891
 20
2.73842
  0
VERTEX
  8
viva-1
  5
105
 10
40.3533
 20
2.72285
  0
VERTEX
  8
viva-1
  5
106
 10
40.2174
 20
2.70738
  0
VERTEX
  8
viva-1
  5
107
 10
40.0815
 20
2.69199
  0
VERTEX
  8
viva-1
  5
108
 10
39.9457
 20
2.67669
  0
VERTEX
  8
viva-1
  5
109
 10
39.8098
 20
2.66148
  0
VERTEX
  8
viva-1
  5
10A
 10
39.6739
 20
2.64635
  0
VERTEX
  8
viva-1
  5
10B
 10
39.538
 20
2.6313
  0
VERTEX
  8
viva-1
  5
10C
 10
39.4022
 20
2.61634
  0
VERTEX
  8
viva-1
  5
10D
 10
39.2663
 20
2.60146
  0
VERTEX
  8
viva-1
  5
10E
 10
39.1304
 20
2.58667
  0
VERTEX
  8
viva-1
  5
10F
 10
38.9946
 20
2.57196
  0
VERTEX
  8
viva-1
  5
110
 10
38.8587
 20
2.55733
  0
VERTEX
  8
viva-1
  5
111
 10
38.7228
 20
2.54278
  0
VERTEX
  8
viva-1
  5
112
 10
38.587
 20
2.52831
  0
VERTEX
  8
viva-1
  5
113
 10
38.4511
 20
2.51392
  0
VERTEX
  8
viva-1
  5
114
 10
38.3152
 20
2.49961
  0
VERTEX
  8
viva-1
  5
115
 10
38.1794
 20
2.48538
  0
VERTEX
  8
viva-1
  5
116
 10
38.0435
 20
2.47122
  0
VERTEX
  8
viva-1
  5
117
 10
37.9076
 20
2.45715
  0
VERTEX
  8
viva-1
  5
118
 10
37.7717
 20
2.44315
  0
VERTEX
  8
viva-1
  5
119
 10
37.6359
 20
2.42922
  0
VERTEX
  8
viva-1
  5
11A
 10
37.5
 20
2.41537
  0
VERTEX
  8
viva-1
  5
11B
 10
37.3641
 20
2.4016
  0
VERTEX
  8
viva-1
  5
11C
 10
37.2283
 20
2.38791
  0
VERTEX
  8
viva-1
  5
11D
 10
37.0924
 20
2.37429
  0
VERTEX
  8
viva-1
  5
11E
 10
36.9565
 20
2.36076
  0
VERTEX
  8
viva-1
  5
11F
 10
36.8207
 20
2.3473
  0
VERTEX
  8
viva-1
  5
120
 10
36.6848
 20
2.33392
  0
VERTEX
  8
viva-1
  5
121
 10
36.5489
 20
2.32062
  0
VERTEX
  8
viva-1
  5
122
 10
36.4131
 20
2.3074
  0
VERTEX
  8
viva-1
  5
123
 10
36.2772
 20
2.29425
  0
VERTEX
  8
viva-1
  5
124
 10
36.1413
 20
2.28118
  0
VERTEX
  8
viva-1
  5
125
 10
36.0054
 20
2.26818
  0
VERTEX
  8
viva-1
  5
126
 10
35.8696
 20
2.25526
  0
VERTEX
  8
viva-1
  5
127
 10
35.7337
 20
2.24242
  0
VERTEX
  8
viva-1
  5
128
 10
35.5978
 20
2.22964
  0
VERTEX
  8
viva-1
  5
129
 10
35.462
 20
2.21695
  0
VERTEX
  8
viva-1
  5
12A
 10
35.3261
 20
2.20432
  0
VERTEX
  8
viva-1
  5
12B
 10
35.1902
 20
2.19177
  0
VERTEX
  8
viva-1
  5
12C
 10
35.0543
 20
2.17929
  0
VERTEX
  8
viva-1
  5
12D
 10
34.9185
 20
2.16689
  0
VERTEX
  8
viva-1
  5
12E
 10
34.7826
 20
2.15456
  0
VERTEX
  8
viva-1
  5
12F
 10
34.6467
 20
2.14229
  0
VERTEX
  8
viva-1
  5
130
 10
34.5109
 20
2.1301
  0
VERTEX
  8
viva-1
  5
131
 10
34.375
 20
2.11798
  0
VERTEX
  8
viva-1
  5
132
 10
34.2391
 20
2.10593
  0
VERTEX
  8
viva-1
  5
133
 10
34.1033
 20
2.09395
  0
VERTEX
  8
viva-1
  5
134
 10
33.9674
 20
2.08204
  0
VERTEX
  8
viva-1
  5
135
 10
33.8315
 20
2.07019
  0
VERTEX
  8
viva-1
  5
136
 10
33.6957
 20
2.05842
  0
VERTEX
  8
viva-1
  5
137
 10
33.5598
 20
2.04671
  0
VERTEX
  8
viva-1
  5
138
 10
33.4239
 20
2.03507
  0
VERTEX
  8
viva-1
  5
139
 10
33.288
 20
2.0235
  0
VERTEX
  8
viva-1
  5
13A
 10
33.1522
 20
2.012
  0
VERTEX
  8
viva-1
  5
13B
 10
33.0163
 20
2.00056
  0
VERTEX
  8
viva-1
  5
13C
 10
32.8804
 20
1.98918
  0
VERTEX
  8
viva-1
  5
13D
 10
32.7446
 20
1.97788
  0
VERTEX
  8
viva-1
  5
13E
 10
32.6087
 20
1.96663
  0
VERTEX
  8
viva-1
  5
13F
 10
32.4728
 20
1.95545
  0
VERTEX
  8
viva-1
  5
140
 10
32.337
 20
1.94434
  0
VERTEX
  8
viva-1
  5
141
 10
32.2011
 20
1.93329
  0
VERTEX
  8
viva-1
  5
142
 10
32.0652
 20
1.9223
  0
VERTEX
  8
viva-1
  5
143
 10
31.9294
 20
1.91138
  0
VERTEX
  8
viva-1
  5
144
 10
31.7935
 20
1.90051
  0
VERTEX
  8
viva-1
  5
145
 10
31.6576
 20
1.88971
  0
VERTEX
  8
viva-1
  5
146
 10
31.5217
 20
1.87898
  0
VERTEX
  8
viva-1
  5
147
 10
31.3859
 20
1.8683
  0
VERTEX
  8
viva-1
  5
148
 10
31.25
 20
1.85768
  0
VERTEX
  8
viva-1
  5
149
 10
31.1141
 20
1.84712
  0
VERTEX
  8
viva-1
  5
14A
 10
30.9783
 20
1.83663
  0
VERTEX
  8
viva-1
  5
14B
 10
30.8424
 20
1.82619
  0
VERTEX
  8
viva-1
  5
14C
 10
30.7065
 20
1.81581
  0
VERTEX
  8
viva-1
  5
14D
 10
30.5707
 20
1.80549
  0
VERTEX
  8
viva-1
  5
14E
 10
30.4348
 20
1.79523
  0
VERTEX
  8
viva-1
  5
14F
 10
30.2989
 20
1.78502
  0
VERTEX
  8
viva-1
  5
150
 10
30.163
 20
1.77487
  0
VERTEX
  8
viva-1
  5
151
 10
30.0272
 20
1.76478
  0
VERTEX
  8
viva-1
  5
152
 10
29.8913
 20
1.75475
  0
VERTEX
  8
viva-1
  5
153
 10
29.7554
 20
1.74477
  0
VERTEX
  8
viva-1
  5
154
 10
29.6196
 20
1.73484
  0
VERTEX
  8
viva-1
  5
155
 10
29.4837
 20
1.72498
  0
VERTEX
  8
viva-1
  5
156
 10
29.3478
 20
1.71516
  0
VERTEX
  8
viva-1
  5
157
 10
29.212
 20
1.7054
  0
VERTEX
  8
viva-1
  5
158
 10
29.0761
 20
1.6957
  0
VERTEX
  8
viva-1
  5
159
 10
28.9402
 20
1.68604
  0
VERTEX
  8
viva-1
  5
15A
 10
28.8044
 20
1.67644
  0
VERTEX
  8
viva-1
  5
15B
 10
28.6685
 20
1.6669
  0
VERTEX
  8
viva-1
  5
15C
 10
28.5326
 20
1.6574
  0
VERTEX
  8
viva-1
  5
15D
 10
28.3967
 20
1.64796
  0
VERTEX
  8
viva-1
  5
15E
 10
28.2609
 20
1.63856
  0
VERTEX
  8
viva-1
  5
15F
 10
28.125
 20
1.62922
  0
VERTEX
  8
viva-1
  5
160
 10
27.9891
 20
1.61993
  0
VERTEX
  8
viva-1
  5
161
 10
27.8533
 20
1.6107
  0
VERTEX
  8
viva-1
  5
162
 10
27.7174
 20
1.60151
  0
VERTEX
  8
viva-1
  5
163
 10
27.5815
 20
1.59238
  0
VERTEX
  8
viva-1
  5
164
 10
27.4457
 20
1.5833
  0
VERTEX
  8
viva-1
  5
165
 10
27.3098
 20
1.57427
  0
VERTEX
  8
viva-1
  5
166
 10
27.1739
 20
1.5653
  0
VERTEX
  8
viva-1
  5
167
 10
27.038
 20
1.55637
  0
VERTEX
  8
viva-1
  5
168
 10
26.9022
 20
1.5475
  0
VERTEX
  8
viva-1
  5
169
 10
26.7663
 20
1.53868
  0
VERTEX
  8
viva-1
  5
16A
 10
26.6304
 20
1.52991
  0
VERTEX
  8
viva-1
  5
16B
 10
26.4946
 20
1.52119
  0
VERTEX
  8
viva-1
  5
16C
 10
26.3587
 20
1.51252
  0
VERTEX
  8
viva-1
  5
16D
 10
26.2228
 20
1.5039
  0
VERTEX
  8
viva-1
  5
16E
 10
26.087
 20
1.49533
  0
VERTEX
  8
viva-1
  5
16F
 10
25.9511
 20
1.4868
  0
VERTEX
  8
viva-1
  5
170
 10
25.8152
 20
1.47833
  0
VERTEX
  8
viva-1
  5
171
 10
25.6793
 20
1.46991
  0
VERTEX
  8
viva-1
  5
172
 10
25.5435
 20
1.46153
  0
VERTEX
  8
viva-1
  5
173
 10
25.4076
 20
1.45321
  0
VERTEX
  8
viva-1
  5
174
 10
25.2717
 20
1.44493
  0
VERTEX
  8
viva-1
  5
175
 10
25.1359
 20
1.4367
  0
VERTEX
  8
viva-1
  5
176
 10
25.0
 20
1.42851
  0
VERTEX
  8
viva-1
  5
177
 10
24.8641
 20
1.42038
  0
VERTEX
  8
viva-1
  5
178
 10
24.7283
 20
1.41229
  0
VERTEX
  8
viva-1
  5
179
 10
24.5924
 20
1.40425
  0
VERTEX
  8
viva-1
  5
17A
 10
24.4565
 20
1.39625
  0
VERTEX
  8
viva-1
  5
17B
 10
24.3207
 20
1.3883
  0
VERTEX
  8
viva-1
  5
17C
 10
24.1848
 20
1.3804
  0
VERTEX
  8
viva-1
  5
17D
 10
24.0489
 20
1.37254
  0
VERTEX
  8
viva-1
  5
17E
 10
23.913
 20
1.36473
  0
VERTEX
  8
viva-1
  5
17F
 10
23.7772
 20
1.35696
  0
VERTEX
  8
viva-1
  5
180
 10
23.6413
 20
1.34924
  0
VERTEX
  8
viva-1
  5
181
 10
23.5054
 20
1.34156
  0
VERTEX
  8
viva-1
  5
182
 10
23.3696
 20
1.33393
  0
VERTEX
  8
viva-1
  5
183
 10
23.2337
 20
1.32634
  0
VERTEX
  8
viva-1
  5
184
 10
23.0978
 20
1.3188
  0
VERTEX
  8
viva-1
  5
185
 10
22.962
 20
1.31129
  0
VERTEX
  8
viva-1
  5
186
 10
22.8261
 20
1.30384
  0
VERTEX
  8
viva-1
  5
187
 10
22.6902
 20
1.29642
  0
VERTEX
  8
viva-1
  5
188
 10
22.5544
 20
1.28905
  0
VERTEX
  8
viva-1
  5
189
 10
22.4185
 20
1.28172
  0
VERTEX
  8
viva-1
  5
18A
 10
22.2826
 20
1.27443
  0
VERTEX
  8
viva-1
  5
18B
 10
22.1467
 20
1.26718
  0
VERTEX
  8
viva-1
  5
18C
 10
22.0109
 20
1.25998
  0
VERTEX
  8
viva-1
  5
18D
 10
21.875
 20
1.25282
  0
VERTEX
  8
viva-1
  5
18E
 10
21.7391
 20
1.2457
  0
VERTEX
  8
viva-1
  5
18F
 10
21.6033
 20
1.23862
  0
VERTEX
  8
viva-1
  5
190
 10
21.4674
 20
1.23158
  0
VERTEX
  8
viva-1
  5
191
 10
21.3315
 20
1.22458
  0
VERTEX
  8
viva-1
  5
192
 10
21.1957
 20
1.21762
  0
VERTEX
  8
viva-1
  5
193
 10
21.0598
 20
1.2107
  0
VERTEX
  8
viva-1
  5
194
 10
20.9239
 20
1.20382
  0
VERTEX
  8
viva-1
  5
195
 10
20.788
 20
1.19698
  0
VERTEX
  8
viva-1
  5
196
 10
20.6522
 20
1.19018
  0
VERTEX
  8
viva-1
  5
197
 10
20.5163
 20
1.18342
  0
VERTEX
  8
viva-1
  5
198
 10
20.3804
 20
1.17669
  0
VERTEX
  8
viva-1
  5
199
 10
20.2446
 20
1.17001
  0
VERTEX
  8
viva-1
  5
19A
 10
20.1087
 20
1.16336
  0
VERTEX
  8
viva-1
  5
19B
 10
19.9728
 20
1.15675
  0
VERTEX
  8
viva-1
  5
19C
 10
19.837
 20
1.15018
  0
VERTEX
  8
viva-1
  5
19D
 10
19.7011
 20
1.14364
  0
VERTEX
  8
viva-1
  5
19E
 10
19.5652
 20
1.13714
  0
VERTEX
  8
viva-1
  5
19F
 10
19.4293
 20
1.13068
  0
VERTEX
  8
viva-1
  5
1A0
 10
19.2935
 20
1.12426
  0
VERTEX
  8
viva-1
  5
1A1
 10
19.1576
 20
1.11787
  0
VERTEX
  8
viva-1
  5
1A2
 10
19.0217
 20
1.11152
  0
VERTEX
  8
viva-1
  5
1A3
 10
18.8859
 20
1.1052
  0
VERTEX
  8
viva-1
  5
1A4
 10
18.75
 20
1.09892
  0
VERTEX
  8
viva-1
  5
1A5
 10
18.6141
 20
1.09267
  0
VERTEX
  8
viva-1
  5
1A6
 10
18.4783
 20
1.08646
  0
VERTEX
  8
viva-1
  5
1A7
 10
18.3424
 20
1.08028
  0
VERTEX
  8
viva-1
  5
1A8
 10
18.2065
 20
1.07414
  0
VERTEX
  8
viva-1
  5
1A9
 10
18.0707
 20
1.06803
  0
VERTEX
  8
viva-1
  5
1AA
 10
17.9348
 20
1.06196
  0
VERTEX
  8
viva-1
  5
1AB
 10
17.7989
 20
1.05592
  0
VERTEX
  8
viva-1
  5
1AC
 10
17.663
 20
1.04992
  0
VERTEX
  8
viva-1
  5
1AD
 10
17.5272
 20
1.04394
  0
VERTEX
  8
viva-1
  5
1AE
 10
17.3913
 20
1.03801
  0
VERTEX
  8
viva-1
  5
1AF
 10
17.2554
 20
1.0321
  0
VERTEX
  8
viva-1
  5
1B0
 10
17.1196
 20
1.02623
  0
VERTEX
  8
viva-1
  5
1B1
 10
16.9837
 20
1.02039
  0
VERTEX
  8
viva-1
  5
1B2
 10
16.8478
 20
1.01459
  0
VERTEX
  8
viva-1
  5
1B3
 10
16.712
 20
1.00882
  0
VERTEX
  8
viva-1
  5
1B4
 10
16.5761
 20
1.00308
  0
VERTEX
  8
viva-1
  5
1B5
 10
16.4402
 20
0.997372
  0
VERTEX
  8
viva-1
  5
1B6
 10
16.3043
 20
0.991697
  0
VERTEX
  8
viva-1
  5
1B7
 10
16.1685
 20
0.986055
  0
VERTEX
  8
viva-1
  5
1B8
 10
16.0326
 20
0.980445
  0
VERTEX
  8
viva-1
  5
1B9
 10
15.8967
 20
0.974867
  0
VERTEX
  8
viva-1
  5
1BA
 10
15.7609
 20
0.96932
  0
VERTEX
  8
viva-1
  5
1BB
 10
15.625
 20
0.963805
  0
VERTEX
  8
viva-1
  5
1BC
 10
15.4891
 20
0.958322
  0
VERTEX
  8
viva-1
  5
1BD
 10
15.3533
 20
0.952869
  0
VERTEX
  8
viva-1
  5
1BE
 10
15.2174
 20
0.947448
  0
VERTEX
  8
viva-1
  5
1BF
 10
15.0815
 20
0.942057
  0
VERTEX
  8
viva-1
  5
1C0
 10
14.9457
 20
0.936697
  0
VERTEX
  8
viva-1
  5
1C1
 10
14.8098
 20
0.931368
  0
VERTEX
  8
viva-1
  5
1C2
 10
14.6739
 20
0.926069
  0
VERTEX
  8
viva-1
  5
1C3
 10
14.538
 20
0.9208
  0
VERTEX
  8
viva-1
  5
1C4
 10
14.4022
 20
0.915562
  0
VERTEX
  8
viva-1
  5
1C5
 10
14.2663
 20
0.910353
  0
VERTEX
  8
viva-1
  5
1C6
 10
14.1304
 20
0.905174
  0
VERTEX
  8
viva-1
  5
1C7
 10
13.9946
 20
0.900025
  0
VERTEX
  8
viva-1
  5
1C8
 10
13.8587
 20
0.894905
  0
VERTEX
  8
viva-1
  5
1C9
 10
13.7228
 20
0.889814
  0
VERTEX
  8
viva-1
  5
1CA
 10
13.587
 20
0.884752
  0
VERTEX
  8
viva-1
  5
1CB
 10
13.4511
 20
0.879719
  0
VERTEX
  8
viva-1
  5
1CC
 10
13.3152
 20
0.874715
  0
VERTEX
  8
viva-1
  5
1CD
 10
13.1793
 20
0.86974
  0
VERTEX
  8
viva-1
  5
1CE
 10
13.0435
 20
0.864793
  0
VERTEX
  8
viva-1
  5
1CF
 10
12.9076
 20
0.859874
  0
VERTEX
  8
viva-1
  5
1D0
 10
12.7717
 20
0.854984
  0
VERTEX
  8
viva-1
  5
1D1
 10
12.6359
 20
0.850121
  0
VERTEX
  8
viva-1
  5
1D2
 10
12.5
 20
0.845286
  0
VERTEX
  8
viva-1
  5
1D3
 10
12.3641
 20
0.840479
  0
VERTEX
  8
viva-1
  5
1D4
 10
12.2283
 20
0.835699
  0
VERTEX
  8
viva-1
  5
1D5
 10
12.0924
 20
0.830947
  0
VERTEX
  8
viva-1
  5
1D6
 10
11.9565
 20
0.826221
  0
VERTEX
  8
viva-1
  5
1D7
 10
11.8207
 20
0.821523
  0
VERTEX
  8
viva-1
  5
1D8
 10
11.6848
 20
0.816851
  0
VERTEX
  8
viva-1
  5
1D9
 10
11.5489
 20
0.812206
  0
VERTEX
  8
viva-1
  5
1DA
 10
11.413
 20
0.807588
  0
VERTEX
  8
viva-1
  5
1DB
 10
11.2772
 20
0.802995
  0
VERTEX
  8
viva-1
  5
1DC
 10
11.1413
 20
0.798429
  0
VERTEX
  8
viva-1
  5
1DD
 10
11.0054
 20
0.793889
  0
VERTEX
  8
viva-1
  5
1DE
 10
10.8696
 20
0.789375
  0
VERTEX
  8
viva-1
  5
1DF
 10
10.7337
 20
0.784886
  0
VERTEX
  8
viva-1
  5
1E0
 10
10.5978
 20
0.780423
  0
VERTEX
  8
viva-1
  5
1E1
 10
10.462
 20
0.775985
  0
VERTEX
  8
viva-1
  5
1E2
 10
10.3261
 20
0.771573
  0
VERTEX
  8
viva-1
  5
1E3
 10
10.1902
 20
0.767185
  0
VERTEX
  8
viva-1
  5
1E4
 10
10.0543
 20
0.762822
  0
VERTEX
  8
viva-1
  5
1E5
 10
9.91848
 20
0.758484
  0
VERTEX
  8
viva-1
  5
1E6
 10
9.78261
 20
0.75417
  0
VERTEX
  8
viva-1
  5
1E7
 10
9.64674
 20
0.749881
  0
VERTEX
  8
viva-1
  5
1E8
 10
9.51087
 20
0.745616
  0
VERTEX
  8
viva-1
  5
1E9
 10
9.375
 20
0.741375
  0
VERTEX
  8
viva-1
  5
1EA
 10
9.23913
 20
0.737157
  0
VERTEX
  8
viva-1
  5
1EB
 10
9.10326
 20
0.732964
  0
VERTEX
  8
viva-1
  5
1EC
 10
8.96739
 20
0.728794
  0
VERTEX
  8
viva-1
  5
1ED
 10
8.83152
 20
0.724647
  0
VERTEX
  8
viva-1
  5
1EE
 10
8.69565
 20
0.720525
  0
VERTEX
  8
viva-1
  5
1EF
 10
8.55978
 20
0.716425
  0
VERTEX
  8
viva-1
  5
1F0
 10
8.42391
 20
0.712348
  0
VERTEX
  8
viva-1
  5
1F1
 10
8.28804
 20
0.708295
  0
VERTEX
  8
viva-1
  5
1F2
 10
8.15217
 20
0.704264
  0
VERTEX
  8
viva-1
  5
1F3
 10
8.01631
 20
0.700256
  0
VERTEX
  8
viva-1
  5
1F4
 10
7.88044
 20
0.696271
  0
VERTEX
  8
viva-1
  5
1F5
 10
7.74457
 20
0.692309
  0
VERTEX
  8
viva-1
  5
1F6
 10
7.6087
 20
0.688369
  0
VERTEX
  8
viva-1
  5
1F7
 10
7.47283
 20
0.684451
  0
VERTEX
  8
viva-1
  5
1F8
 10
7.33696
 20
0.680556
  0
VERTEX
  8
viva-1
  5
1F9
 10
7.20109
 20
0.676682
  0
VERTEX
  8
viva-1
  5
1FA
 10
7.06522
 20
0.672831
  0
VERTEX
  8
viva-1
  5
1FB
 10
6.92935
 20
0.669002
  0
VERTEX
  8
viva-1
  5
1FC
 10
6.79348
 20
0.665194
  0
VERTEX
  8
viva-1
  5
1FD
 10
6.65761
 20
0.661408
  0
VERTEX
  8
viva-1
  5
1FE
 10
6.52174
 20
0.657643
  0
VERTEX
  8
viva-1
  5
1FF
 10
6.38587
 20
0.6539
  0
VERTEX
  8
viva-1
  5
200
 10
6.25
 20
0.650179
  0
VERTEX
  8
viva-1
  5
201
 10
6.11413
 20
0.646478
  0
VERTEX
  8
viva-1
  5
202
 10
5.97826
 20
0.642798
  0
VERTEX
  8
viva-1
  5
203
 10
5.84239
 20
0.63914
  0
VERTEX
  8
viva-1
  5
204
 10
5.70652
 20
0.635502
  0
VERTEX
  8
viva-1
  5
205
 10
5.57065
 20
0.631885
  0
VERTEX
  8
viva-1
  5
206
 10
5.43478
 20
0.628289
  0
VERTEX
  8
viva-1
  5
207
 10
5.29891
 20
0.624713
  0
VERTEX
  8
viva-1
  5
208
 10
5.16304
 20
0.621157
  0
VERTEX
  8
viva-1
  5
209
 10
5.02717
 20
0.617622
  0
VERTEX
  8
viva-1
  5
20A
 10
4.8913
 20
0.614107
  0
VERTEX
  8
viva-1
  5
20B
 10
4.75544
 20
0.610612
  0
VERTEX
  8
viva-1
  5
20C
 10
4.61957
 20
0.607137
  0
VERTEX
  8
viva-1
  5
20D
 10
4.4837
 20
0.603681
  0
VERTEX
  8
viva-1
  5
20E
 10
4.34783
 20
0.600246
  0
VERTEX
  8
viva-1
  5
20F
 10
4.21196
 20
0.59683
  0
VERTEX
  8
viva-1
  5
210
 10
4.07609
 20
0.593433
  0
VERTEX
  8
viva-1
  5
211
 10
3.94022
 20
0.590056
  0
VERTEX
  8
viva-1
  5
212
 10
3.80435
 20
0.586697
  0
VERTEX
  8
viva-1
  5
213
 10
3.66848
 20
0.583358
  0
VERTEX
  8
viva-1
  5
214
 10
3.53261
 20
0.580038
  0
VERTEX
  8
viva-1
  5
215
 10
3.39674
 20
0.576737
  0
VERTEX
  8
viva-1
  5
216
 10
3.26087
 20
0.573455
  0
VERTEX
  8
viva-1
  5
217
 10
3.125
 20
0.570191
  0
VERTEX
  8
viva-1
  5
218
 10
2.98913
 20
0.566946
  0
VERTEX
  8
viva-1
  5
219
 10
2.85326
 20
0.563719
  0
VERTEX
  8
viva-1
  5
21A
 10
2.71739
 20
0.56051
  0
VERTEX
  8
viva-1
  5
21B
 10
2.58152
 20
0.55732
  0
VERTEX
  8
viva-1
  5
21C
 10
2.44565
 20
0.554147
  0
VERTEX
  8
viva-1
  5
21D
 10
2.30978
 20
0.550993
  0
VERTEX
  8
viva-1
  5
21E
 10
2.17391
 20
0.547856
  0
VERTEX
  8
viva-1
  5
21F
 10
2.03804
 20
0.544737
  0
VERTEX
  8
viva-1
  5
220
 10
1.90217
 20
0.541636
  0
VERTEX
  8
viva-1
  5
221
 10
1.7663
 20
0.538552
  0
VERTEX
  8
viva-1
  5
222
 10
1.63043
 20
0.535486
  0
VERTEX
  8
viva-1
  5
223
 10
1.49457
 20
0.532437
  0
VERTEX
  8
viva-1
  5
224
 10
1.3587
 20
0.529405
  0
VERTEX
  8
viva-1
  5
225
 10
1.22283
 20
0.526389
  0
VERTEX
  8
viva-1
  5
226
 10
1.08696
 20
0.523391
  0
VERTEX
  8
viva-1
  5
227
 10
0.951087
 20
0.52041
  0
VERTEX
  8
viva-1
  5
228
 10
0.815217
 20
0.517445
  0
VERTEX
  8
viva-1
  5
229
 10
0.679348
 20
0.514497
  0
VERTEX
  8
viva-1
  5
22A
 10
0.543479
 20
0.511565
  0
VERTEX
  8
viva-1
  5
22B
 10
0.407609
 20
0.50865
  0
VERTEX
  8
viva-1
  5
22C
 10
0.271739
 20
0.50575
  0
VERTEX
  8
viva-1
  5
22D
 10
0.13587
 20
0.502867
  0
VERTEX
  8
viva-1
  5
22E
 10
0.0
 20
0.5
  0
VERTEX
  8
viva-1
  5
22F
 10
-25.0
 20
0.5
  0
VERTEX
  8
viva-1
  5
230
 10
-25.0
 20
-0.5
  0
VERTEX
  8
viva-1
  5
231
 10
0.0
 20
-0.5
  0
VERTEX
  8
viva-1
  5
232
 10
0.13587
 20
-0.502867
  0
VERTEX
  8
viva-1
  5
233
 10
0.271739
 20
-0.50575
  0
VERTEX
  8
viva-1
  5
234
 10
0.407609
 20
-0.50865
  0
VERTEX
  8
viva-1
  5
235
 10
0.543479
 20
-0.511565
  0
VERTEX
  8
viva-1
  5
236
 10
0.679348
 20
-0.514497
  0
VERTEX
  8
viva-1
  5
237
 10
0.815217
 20
-0.517445
  0
VERTEX
  8
viva-1
  5
238
 10
0.951087
 20
-0.52041
  0
VERTEX
  8
viva-1
  5
239
 10
1.08696
 20
-0.523391
  0
VERTEX
  8
viva-1
  5
23A
 10
1.22283
 20
-0.526389
  0
VERTEX
  8
viva-1
  5
23B
 10
1.3587
 20
-0.529405
  0
VERTEX
  8
viva-1
  5
23C
 10
1.49457
 20
-0.532437
  0
VERTEX
  8
viva-1
  5
23D
 10
1.63043
 20
-0.535486
  0
VERTEX
  8
viva-1
  5
23E
 10
1.7663
 20
-0.538552
  0
VERTEX
  8
viva-1
  5
23F
 10
1.90217
 20
-0.541636
  0
VERTEX
  8
viva-1
  5
240
 10
2.03804
 20
-0.544737
  0
VERTEX
  8
viva-1
  5
241
 10
2.17391
 20
-0.547856
  0
VERTEX
  8
viva-1
  5
242
 10
2.30978
 20
-0.550993
  0
VERTEX
  8
viva-1
  5
243
 10
2.44565
 20
-0.554147
  0
VERTEX
  8
viva-1
  5
244
 10
2.58152
 20
-0.55732
  0
VERTEX
  8
viva-1
  5
245
 10
2.71739
 20
-0.56051
  0
VERTEX
  8
viva-1
  5
246
 10
2.85326
 20
-0.563719
  0
VERTEX
  8
viva-1
  5
247
 10
2.98913
 20
-0.566946
  0
VERTEX
  8
viva-1
  5
248
 10
3.125
 20
-0.570191
  0
VERTEX
  8
viva-1
  5
249
 10
3.26087
 20
-0.573455
  0
VERTEX
  8
viva-1
  5
24A
 10
3.39674
 20
-0.576737
  0
VERTEX
  8
viva-1
  5
24B
 10
3.53261
 20
-0.580038
  0
VERTEX
  8
viva-1
  5
24C
 10
3.66848
 20
-0.583358
  0
VERTEX
  8
viva-1
  5
24D
 10
3.80435
 20
-0.586697
  0
VERTEX
  8
viva-1
  5
24E
 10
3.94022
 20
-0.590056
  0
VERTEX
  8
viva-1
  5
24F
 10
4.07609
 20
-0.593433
  0
VERTEX
  8
viva-1
  5
250
 10
4.21196
 20
-0.59683
  0
VERTEX
  8
viva-1
  5
251
 10
4.34783
 20
-0.600246
  0
VERTEX
  8
viva-1
  5
252
 10
4.4837
 20
-0.603681
  0
VERTEX
  8
viva-1
  5
253
 10
4.61957
 20
-0.607137
  0
VERTEX
  8
viva-1
  5
254
 10
4.75544
 20
-0.610612
  0
VERTEX
  8
viva-1
  5
255
 10
4.8913
 20
-0.614107
  0
VERTEX
  8
viva-1
  5
256
 10
5.02717
 20
-0.617622
  0
VERTEX
  8
viva-1
  5
257
 10
5.16304
 20
-0.621157
  0
VERTEX
  8
viva-1
  5
258
 10
5.29891
 20
-0.624713
  0
VERTEX
  8
viva-1
  5
259
 10
5.43478
 20
-0.628289
  0
VERTEX
  8
viva-1
  5
25A
 10
5.57065
 20
-0.631885
  0
VERTEX
  8
viva-1
  5
25B
 10
5.70652
 20
-0.635502
  0
VERTEX
  8
viva-1
  5
25C
 10
5.84239
 20
-0.63914
  0
VERTEX
  8
viva-1
  5
25D
 10
5.97826
 20
-0.642798
  0
VERTEX
  8
viva-1
  5
25E
 10
6.11413
 20
-0.646478
  0
VERTEX
  8
viva-1
  5
25F
 10
6.25
 20
-0.650179
  0
VERTEX
  8
viva-1
  5
260
 10
6.38587
 20
-0.6539
  0
VERTEX
  8
viva-1
  5
261
 10
6.52174
 20
-0.657643
  0
VERTEX
  8
viva-1
  5
262
 10
6.65761
 20
-0.661408
  0
VERTEX
  8
viva-1
  5
263
 10
6.79348
 20
-0.665194
  0
VERTEX
  8
viva-1
  5
264
 10
6.92935
 20
-0.669002
  0
VERTEX
  8
viva-1
  5
265
 10
7.06522
 20
-0.672831
  0
VERTEX
  8
viva-1
  5
266
 10
7.20109
 20
-0.676682
  0
VERTEX
  8
viva-1
  5
267
 10
7.33696
 20
-0.680556
  0
VERTEX
  8
viva-1
  5
268
 10
7.47283
 20
-0.684451
  0
VERTEX
  8
viva-1
  5
269
 10
7.6087
 20
-0.688369
  0
VERTEX
  8
viva-1
  5
26A
 10
7.74457
 20
-0.692309
  0
VERTEX
  8
viva-1
  5
26B
 10
7.88044
 20
-0.696271
  0
VERTEX
  8
viva-1
  5
26C
 10
8.01631
 20
-0.700256
  0
VERTEX
  8
viva-1
  5
26D
 10
8.15217
 20
-0.704264
  0
VERTEX
  8
viva-1
  5
26E
 10
8.28804
 20
-0.708295
  0
VERTEX
  8
viva-1
  5
26F
 10
8.42391
 20
-0.712348
  0
VERTEX
  8
viva-1
  5
270
 10
8.55978
 20
-0.716425
  0
VERTEX
  8
viva-1
  5
271
 10
8.69565
 20
-0.720525
  0
VERTEX
  8
viva-1
  5
272
 10
8.83152
 20
-0.724647
  0
VERTEX
  8
viva-1
  5
273
 10
8.96739
 20
-0.728794
  0
VERTEX
  8
viva-1
  5
274
 10
9.10326
 20
-0.732964
  0
VERTEX
  8
viva-1
  5
275
 10
9.23913
 20
-0.737157
  0
VERTEX
  8
viva-1
  5
276
 10
9.375
 20
-0.741375
  0
VERTEX
  8
viva-1
  5
277
 10
9.51087
 20
-0.745616
  0
VERTEX
  8
viva-1
  5
278
 10
9.64674
 20
-0.749881
  0
VERTEX
  8
viva-1
  5
279
 10
9.78261
 20
-0.75417
  0
VERTEX
  8
viva-1
  5
27A
 10
9.91848
 20
-0.758484
  0
VERTEX
  8
viva-1
  5
27B
 10
10.0543
 20
-0.762822
  0
VERTEX
  8
viva-1
  5
27C
 10
10.1902
 20
-0.767185
  0
VERTEX
  8
viva-1
  5
27D
 10
10.3261
 20
-0.771573
  0
VERTEX
  8
viva-1
  5
27E
 10
10.462
 20
-0.775985
  0
VERTEX
  8
viva-1
  5
27F
 10
10.5978
 20
-0.780423
  0
VERTEX
  8
viva-1
  5
280
 10
10.7337
 20
-0.784886
  0
VERTEX
  8
viva-1
  5
281
 10
10.8696
 20
-0.789375
  0
VERTEX
  8
viva-1
  5
282
 10
11.0054
 20
-0.793889
  0
VERTEX
  8
viva-1
  5
283
 10
11.1413
 20
-0.798429
  0
VERTEX
  8
viva-1
  5
284
 10
11.2772
 20
-0.802995
  0
VERTEX
  8
viva-1
  5
285
 10
11.413
 20
-0.807588
  0
VERTEX
  8
viva-1
  5
286
 10
11.5489
 20
-0.812206
  0
VERTEX
  8
viva-1
  5
287
 10
11.6848
 20
-0.816851
  0
VERTEX
  8
viva-1
  5
288
 10
11.8207
 20
-0.821523
  0
VERTEX
  8
viva-1
  5
289
 10
11.9565
 20
-0.826221
  0
VERTEX
  8
viva-1
  5
28A
 10
12.0924
 20
-0.830947
  0
VERTEX
  8
viva-1
  5
28B
 10
12.2283
 20
-0.835699
  0
VERTEX
  8
viva-1
  5
28C
 10
12.3641
 20
-0.840479
  0
VERTEX
  8
viva-1
  5
28D
 10
12.5
 20
-0.845286
  0
VERTEX
  8
viva-1
  5
28E
 10
12.6359
 20
-0.850121
  0
VERTEX
  8
viva-1
  5
28F
 10
12.7717
 20
-0.854984
  0
VERTEX
  8
viva-1
  5
290
 10
12.9076
 20
-0.859874
  0
VERTEX
  8
viva-1
  5
291
 10
13.0435
 20
-0.864793
  0
VERTEX
  8
viva-1
  5
292
 10
13.1793
 20
-0.86974
  0
VERTEX
  8
viva-1
  5
293
 10
13.3152
 20
-0.874715
  0
VERTEX
  8
viva-1
  5
294
 10
13.4511
 20
-0.879719
  0
VERTEX
  8
viva-1
  5
295
 10
13.587
 20
-0.884752
  0
VERTEX
  8
viva-1
  5
296
 10
13.7228
 20
-0.889814
  0
VERTEX
  8
viva-1
  5
297
 10
13.8587
 20
-0.894905
  0
VERTEX
  8
viva-1
  5
298
 10
13.9946
 20
-0.900025
  0
VERTEX
  8
viva-1
  5
299
 10
14.1304
 20
-0.905174
  0
VERTEX
  8
viva-1
  5
29A
 10
14.2663
 20
-0.910353
  0
VERTEX
  8
viva-1
  5
29B
 10
14.4022
 20
-0.915562
  0
VERTEX
  8
viva-1
  5
29C
 10
14.538
 20
-0.9208
  0
VERTEX
  8
viva-1
  5
29D
 10
14.6739
 20
-0.926069
  0
VERTEX
  8
viva-1
  5
29E
 10
14.8098
 20
-0.931368
  0
VERTEX
  8
viva-1
  5
29F
 10
14.9457
 20
-0.936697
  0
VERTEX
  8
viva-1
  5
2A0
 10
15.0815
 20
-0.942057
  0
VERTEX
  8
viva-1
  5
2A1
 10
15.2174
 20
-0.947448
  0
VERTEX
  8
viva-1
  5
2A2
 10
15.3533
 20
-0.952869
  0
VERTEX
  8
viva-1
  5
2A3
 10
15.4891
 20
-0.958322
  0
VERTEX
  8
viva-1
  5
2A4
 10
15.625
 20
-0.963805
  0
VERTEX
  8
viva-1
  5
2A5
 10
15.7609
 20
-0.96932
  0
VERTEX
  8
viva-1
  5
2A6
 10
15.8967
 20
-0.974867
  0
VERTEX
  8
viva-1
  5
2A7
 10
16.0326
 20
-0.980445
  0
VERTEX
  8
viva-1
  5
2A8
 10
16.1685
 20
-0.986055
  0
VERTEX
  8
viva-1
  5
2A9
 10
16.3043
 20
-0.991697
  0
VERTEX
  8
viva-1
  5
2AA
 10
16.4402
 20
-0.997372
  0
VERTEX
  8
viva-1
  5
2AB
 10
16.5761
 20
-1.00308
  0
VERTEX
  8
viva-1
  5
2AC
 10
16.712
 20
-1.00882
  0
VERTEX
  8
viva-1
  5
2AD
 10
16.8478
 20
-1.01459
  0
VERTEX
  8
viva-1
  5
2AE
 10
16.9837
 20
-1.02039
  0
VERTEX
  8
viva-1
  5
2AF
 10
17.1196
 20
-1.02623
  0
VERTEX
  8
viva-1
  5
2B0
 10
17.2554
 20
-1.0321
  0
VERTEX
  8
viva-1
  5
2B1
 10
17.3913
 20
-1.03801
  0
VERTEX
  8
viva-1
  5
2B2
 10
17.5272
 20
-1.04394
  0
VERTEX
  8
viva-1
  5
2B3
 10
17.663
 20
-1.04992
  0
VERTEX
  8
viva-1
  5
2B4
 10
17.7989
 20
-1.05592
  0
VERTEX
  8
viva-1
  5
2B5
 10
17.9348
 20
-1.06196
  0
VERTEX
  8
viva-1
  5
2B6
 10
18.0707
 20
-1.06803
  0
VERTEX
  8
viva-1
  5
2B7
 10
18.2065
 20
-1.07414
  0
VERTEX
  8
viva-1
  5
2B8
 10
18.3424
 20
-1.08028
  0
VERTEX
  8
viva-1
  5
2B9
 10
18.4783
 20
-1.08646
  0
VERTEX
  8
viva-1
  5
2BA
 10
18.6141
 20
-1.09267
  0
VERTEX
  8
viva-1
  5
2BB
 10
18.75
 20
-1.09892
  0
VERTEX
  8
viva-1
  5
2BC
 10
18.8859
 20
-1.1052
  0
VERTEX
  8
viva-1
  5
2BD
 10
19.0217
 20
-1.11152
  0
VERTEX
  8
viva-1
  5
2BE
 10
19.1576
 20
-1.11787
  0
VERTEX
  8
viva-1
  5
2BF
 10
19.2935
 20
-1.12426
  0
VERTEX
  8
viva-1
  5
2C0
 10
19.4293
 20
-1.13068
  0
VERTEX
  8
viva-1
  5
2C1
 10
19.5652
 20
-1.13714
  0
VERTEX
  8
viva-1
  5
2C2
 10
19.7011
 20
-1.14364
  0
VERTEX
  8
viva-1
  5
2C3
 10
19.837
 20
-1.15018
  0
VERTEX
  8
viva-1
  5
2C4
 10
19.9728
 20
-1.15675
  0
VERTEX
  8
viva-1
  5
2C5
 10
20.1087
 20
-1.16336
  0
VERTEX
  8
viva-1
  5
2C6
 10
20.2446
 20
-1.17001
  0
VERTEX
  8
viva-1
  5
2C7
 10
20.3804
 20
-1.17669
  0
VERTEX
  8
viva-1
  5
2C8
 10
20.5163
 20
-1.18342
  0
VERTEX
  8
viva-1
  5
2C9
 10
20.6522
 20
-1.19018
  0
VERTEX
  8
viva-1
  5
2CA
 10
20.788
 20
-1.19698
  0
VERTEX
  8
viva-1
  5
2CB
 10
20.9239
 20
-1.20382
  0
VERTEX
  8
viva-1
  5
2CC
 10
21.0598
 20
-1.2107
  0
VERTEX
  8
viva-1
  5
2CD
 10
21.1957
 20
-1.21762
  0
VERTEX
  8
viva-1
  5
2CE
 10
21.3315
 20
-1.22458
  0
VERTEX
  8
viva-1
  5
2CF
 10
21.4674
 20
-1.23158
  0
VERTEX
  8
viva-1
  5
2D0
 10
21.6033
 20
-1.23862
  0
VERTEX
  8
viva-1
  5
2D1
 10
21.7391
 20
-1.2457
  0
VERTEX
  8
viva-1
  5
2D2
 10
21.875
 20
-1.25282
  0
VERTEX
  8
viva-1
  5
2D3
 10
22.0109
 20
-1.25998
  0
VERTEX
  8
viva-1
  5
2D4
 10
22.1467
 20
-1.26718
  0
VERTEX
  8
viva-1
  5
2D5
 10
22.2826
 20
-1.27443
  0
VERTEX
  8
viva-1
  5
2D6
 10
22.4185
 20
-1.28172
  0
VERTEX
  8
viva-1
  5
2D7
 10
22.5544
 20
-1.28905
  0
VERTEX
  8
viva-1
  5
2D8
 10
22.6902
 20
-1.29642
  0
VERTEX
  8
viva-1
  5
2D9
 10
22.8261
 20
-1.30384
  0
VERTEX
  8
viva-1
  5
2DA
 10
22.962
 20
-1.31129
  0
VERTEX
  8
viva-1
  5
2DB
 10
23.0978
 20
-1.3188
  0
VERTEX
  8
viva-1
  5
2DC
 10
23.2337
 20
-1.32634
  0
VERTEX
  8
viva-1
  5
2DD
 10
23.3696
 20
-1.33393
  0
VERTEX
  8
viva-1
  5
2DE
 10
23.5054
 20
-1.34156
  0
VERTEX
  8
viva-1
  5
2DF
 10
23.6413
 20
-1.34924
  0
VERTEX
  8
viva-1
  5
2E0
 10
23.7772
 20
-1.35696
  0
VERTEX
  8
viva-1
  5
2E1
 10
23.913
 20
-1.36473
  0
VERTEX
  8
viva-1
  5
2E2
 10
24.0489
 20
-1.37254
  0
VERTEX
  8
viva-1
  5
2E3
 10
24.1848
 20
-1.3804
  0
VERTEX
  8
viva-1
  5
2E4
 10
24.3207
 20
-1.3883
  0
VERTEX
  8
viva-1
  5
2E5
 10
24.4565
 20
-1.39625
  0
VERTEX
  8
viva-1
  5
2E6
 10
24.5924
 20
-1.40425
  0
VERTEX
  8
viva-1
  5
2E7
 10
24.7283
 20
-1.41229
  0
VERTEX
  8
viva-1
  5
2E8
 10
24.8641
 20
-1.42038
  0
VERTEX
  8
viva-1
  5
2E9
 10
25.0
 20
-1.42851
  0
VERTEX
  8
viva-1
  5
2EA
 10
25.1359
 20
-1.4367
  0
VERTEX
  8
viva-1
  5
2EB
 10
25.2717
 20
-1.44493
  0
VERTEX
  8
viva-1
  5
2EC
 10
25.4076
 20
-1.45321
  0
VERTEX
  8
viva-1
  5
2ED
 10
25.5435
 20
-1.46153
  0
VERTEX
  8
viva-1
  5
2EE
 10
25.6793
 20
-1.46991
  0
VERTEX
  8
viva-1
  5
2EF
 10
25.8152
 20
-1.47833
  0
VERTEX
  8
viva-1
  5
2F0
 10
25.9511
 20
-1.4868
  0
VERTEX
  8
viva-1
  5
2F1
 10
26.087
 20
-1.49533
  0
VERTEX
  8
viva-1
  5
2F2
 10
26.2228
 20
-1.5039
  0
VERTEX
  8
viva-1
  5
2F3
 10
26.3587
 20
-1.51252
  0
VERTEX
  8
viva-1
  5
2F4
 10
26.4946
 20
-1.52119
  0
VERTEX
  8
viva-1
  5
2F5
 10
26.6304
 20
-1.52991
  0
VERTEX
  8
viva-1
  5
2F6
 10
26.7663
 20
-1.53868
  0
VERTEX
  8
viva-1
  5
2F7
 10
26.9022
 20
-1.5475
  0
VERTEX
  8
viva-1
  5
2F8
 10
27.038
 20
-1.55637
  0
VERTEX
  8
viva-1
  5
2F9
 10
27.1739
 20
-1.5653
  0
VERTEX
  8
viva-1
  5
2FA
 10
27.3098
 20
-1.57427
  0
VERTEX
  8
viva-1
  5
2FB
 10
27.4457
 20
-1.5833
  0
VERTEX
  8
viva-1
  5
2FC
 10
27.5815
 20
-1.59238
  0
VERTEX
  8
viva-1
  5
2FD
 10
27.7174
 20
-1.60151
  0
VERTEX
  8
viva-1
  5
2FE
 10
27.8533
 20
-1.6107
  0
VERTEX
  8
viva-1
  5
2FF
 10
27.9891
 20
-1.61993
  0
VERTEX
  8
viva-1
  5
300
 10
28.125
 20
-1.62922
  0
VERTEX
  8
viva-1
  5
301
 10
28.2609
 20
-1.63856
  0
VERTEX
  8
viva-1
  5
302
 10
28.3967
 20
-1.64796
  0
VERTEX
  8
viva-1
  5
303
 10
28.5326
 20
-1.6574
  0
VERTEX
  8
viva-1
  5
304
 10
28.6685
 20
-1.6669
  0
VERTEX
  8
viva-1
  5
305
 10
28.8044
 20
-1.67644
  0
VERTEX
  8
viva-1
  5
306
 10
28.9402
 20
-1.68604
  0
VERTEX
  8
viva-1
  5
307
 10
29.0761
 20
-1.6957
  0
VERTEX
  8
viva-1
  5
308
 10
29.212
 20
-1.7054
  0
VERTEX
  8
viva-1
  5
309
 10
29.3478
 20
-1.71516
  0
VERTEX
  8
viva-1
  5
30A
 10
29.4837
 20
-1.72498
  0
VERTEX
  8
viva-1
  5
30B
 10
29.6196
 20
-1.73484
  0
VERTEX
  8
viva-1
  5
30C
 10
29.7554
 20
-1.74477
  0
VERTEX
  8
viva-1
  5
30D
 10
29.8913
 20
-1.75475
  0
VERTEX
  8
viva-1
  5
30E
 10
30.0272
 20
-1.76478
  0
VERTEX
  8
viva-1
  5
30F
 10
30.163
 20
-1.77487
  0
VERTEX
  8
viva-1
  5
310
 10
30.2989
 20
-1.78502
  0
VERTEX
  8
viva-1
  5
311
 10
30.4348
 20
-1.79523
  0
VERTEX
  8
viva-1
  5
312
 10
30.5707
 20
-1.80549
  0
VERTEX
  8
viva-1
  5
313
 10
30.7065
 20
-1.81581
  0
VERTEX
  8
viva-1
  5
314
 10
30.8424
 20
-1.82619
  0
VERTEX
  8
viva-1
  5
315
 10
30.9783
 20
-1.83663
  0
VERTEX
  8
viva-1
  5
316
 10
31.1141
 20
-1.84712
  0
VERTEX
  8
viva-1
  5
317
 10
31.25
 20
-1.85768
  0
VERTEX
  8
viva-1
  5
318
 10
31.3859
 20
-1.8683
  0
VERTEX
  8
viva-1
  5
319
 10
31.5217
 20
-1.87898
  0
VERTEX
  8
viva-1
  5
31A
 10
31.6576
 20
-1.88971
  0
VERTEX
  8
viva-1
  5
31B
 10
31.7935
 20
-1.90051
  0
VERTEX
  8
viva-1
  5
31C
 10
31.9294
 20
-1.91138
  0
VERTEX
  8
viva-1
  5
31D
 10
32.0652
 20
-1.9223
  0
VERTEX
  8
viva-1
  5
31E
 10
32.2011
 20
-1.93329
  0
VERTEX
  8
viva-1
  5
31F
 10
32.337
 20
-1.94434
  0
VERTEX
  8
viva-1
  5
320
 10
32.4728
 20
-1.95545
  0
VERTEX
  8
viva-1
  5
321
 10
32.6087
 20
-1.96663
  0
VERTEX
  8
viva-1
  5
322
 10
32.7446
 20
-1.97788
  0
VERTEX
  8
viva-1
  5
323
 10
32.8804
 20
-1.98918
  0
VERTEX
  8
viva-1
  5
324
 10
33.0163
 20
-2.00056
  0
VERTEX
  8
viva-1
  5
325
 10
33.1522
 20
-2.012
  0
VERTEX
  8
viva-1
  5
326
 10
33.288
 20
-2.0235
  0
VERTEX
  8
viva-1
  5
327
 10
33.4239
 20
-2.03507
  0
VERTEX
  8
viva-1
  5
328
 10
33.5598
 20
-2.04671
  0
VERTEX
  8
viva-1
  5
329
 10
33.6957
 20
-2.05842
  0
VERTEX
  8
viva-1
  5
32A
 10
33.8315
 20
-2.07019
  0
VERTEX
  8
viva-1
  5
32B
 10
33.9674
 20
-2.08204
  0
VERTEX
  8
viva-1
  5
32C
 10
34.1033
 20
-2.09395
  0
VERTEX
  8
viva-1
  5
32D
 10
34.2391
 20
-2.10593
  0
VERTEX
  8
viva-1
  5
32E
 10
34.375
 20
-2.11798
  0
VERTEX
  8
viva-1
  5
32F
 10
34.5109
 20
-2.1301
  0
VERTEX
  8
viva-1
  5
330
 10
34.6467
 20
-2.14229
  0
VERTEX
  8
viva-1
  5
331
 10
34.7826
 20
-2.15456
  0
VERTEX
  8
viva-1
  5
332
 10
34.9185
 20
-2.16689
  0
VERTEX
  8
viva-1
  5
333
 10
35.0543
 20
-2.17929
  0
VERTEX
  8
viva-1
  5
334
 10
35.1902
 20
-2.19177
  0
VERTEX
  8
viva-1
  5
335
 10
35.3261
 20
-2.20432
  0
VERTEX
  8
viva-1
  5
336
 10
35.462
 20
-2.21695
  0
VERTEX
  8
viva-1
  5
337
 10
35.5978
 20
-2.22964
  0
VERTEX
  8
viva-1
  5
338
 10
35.7337
 20
-2.24242
  0
VERTEX
  8
viva-1
  5
339
 10
35.8696
 20
-2.25526
  0
VERTEX
  8
viva-1
  5
33A
 10
36.0054
 20
-2.26818
  0
VERTEX
  8
viva-1
  5
33B
 10
36.1413
 20
-2.28118
  0
VERTEX
  8
viva-1
  5
33C
 10
36.2772
 20
-2.29425
  0
VERTEX
  8
viva-1
  5
33D
 10
36.4131
 20
-2.3074
  0
VERTEX
  8
viva-1
  5
33E
 10
36.5489
 20
-2.32062
  0
VERTEX
  8
viva-1
  5
33F
 10
36.6848
 20
-2.33392
  0
VERTEX
  8
viva-1
  5
340
 10
36.8207
 20
-2.3473
  0
VERTEX
  8
viva-1
  5
341
 10
36.9565
 20
-2.36076
  0
VERTEX
  8
viva-1
  5
342
 10
37.0924
 20
-2.37429
  0
VERTEX
  8
viva-1
  5
343
 10
37.2283
 20
-2.38791
  0
VERTEX
  8
viva-1
  5
344
 10
37.3641
 20
-2.4016
  0
VERTEX
  8
viva-1
  5
345
 10
37.5
 20
-2.41537
  0
VERTEX
  8
viva-1
  5
346
 10
37.6359
 20
-2.42922
  0
VERTEX
  8
viva-1
  5
347
 10
37.7717
 20
-2.44315
  0
VERTEX
  8
viva-1
  5
348
 10
37.9076
 20
-2.45715
  0
VERTEX
  8
viva-1
  5
349
 10
38.0435
 20
-2.47122
  0
VERTEX
  8
viva-1
  5
34A
 10
38.1794
 20
-2.48538
  0
VERTEX
  8
viva-1
  5
34B
 10
38.3152
 20
-2.49961
  0
VERTEX
  8
viva-1
  5
34C
 10
38.4511
 20
-2.51392
  0
VERTEX
  8
viva-1
  5
34D
 10
38.587
 20
-2.52831
  0
VERTEX
  8
viva-1
  5
34E
 10
38.7228
 20
-2.54278
  0
VERTEX
  8
viva-1
  5
34F
 10
38.8587
 20
-2.55733
  0
VERTEX
  8
viva-1
  5
350
 10
38.9946
 20
-2.57196
  0
VERTEX
  8
viva-1
  5
351
 10
39.1304
 20
-2.58667
  0
VERTEX
  8
viva-1
  5
352
 10
39.2663
 20
-2.60146
  0
VERTEX
  8
viva-1
  5
353
 10
39.4022
 20
-2.61634
  0
VERTEX
  8
viva-1
  5
354
 10
39.538
 20
-2.6313
  0
VERTEX
  8
viva-1
  5
355
 10
39.6739
 20
-2.64635
  0
VERTEX
  8
viva-1
  5
356
 10
39.8098
 20
-2.66148
  0
VERTEX
  8
viva-1
  5
357
 10
39.9457
 20
-2.67669
  0
VERTEX
  8
viva-1
  5
358
 10
40.0815
 20
-2.69199
  0
VERTEX
  8
viva-1
  5
359
 10
40.2174
 20
-2.70738
  0
VERTEX
  8
viva-1
  5
35A
 10
40.3533
 20
-2.72285
  0
VERTEX
  8
viva-1
  5
35B
 10
40.4891
 20
-2.73842
  0
VERTEX
  8
viva-1
  5
35C
 10
40.625
 20
-2.75407
  0
VERTEX
  8
viva-1
  5
35D
 10
40.7609
 20
-2.76981
  0
VERTEX
  8
viva-1
  5
35E
 10
40.8967
 20
-2.78564
  0
VERTEX
  8
viva-1
  5
35F
 10
41.0326
 20
-2.80156
  0
VERTEX
  8
viva-1
  5
360
 10
41.1685
 20
-2.81757
  0
VERTEX
  8
viva-1
  5
361
 10
41.3044
 20
-2.83368
  0
VERTEX
  8
viva-1
  5
362
 10
41.4402
 20
-2.84987
  0
VERTEX
  8
viva-1
  5
363
 10
41.5761
 20
-2.86616
  0
VERTEX
  8
viva-1
  5
364
 10
41.712
 20
-2.88254
  0
VERTEX
  8
viva-1
  5
365
 10
41.8478
 20
-2.89902
  0
VERTEX
  8
viva-1
  5
366
 10
41.9837
 20
-2.91559
  0
VERTEX
  8
viva-1
  5
367
 10
42.1196
 20
-2.93226
  0
VERTEX
  8
viva-1
  5
368
 10
42.2554
 20
-2.94903
  0
VERTEX
  8
viva-1
  5
369
 10
42.3913
 20
-2.96589
  0
VERTEX
  8
viva-1
  5
36A
 10
42.5272
 20
-2.98285
  0
VERTEX
  8
viva-1
  5
36B
 10
42.6631
 20
-2.9999
  0
VERTEX
  8
viva-1
  5
36C
 10
42.7989
 20
-3.01706
  0
VERTEX
  8
viva-1
  5
36D
 10
42.9348
 20
-3.03431
  0
VERTEX
  8
viva-1
  5
36E
 10
43.0707
 20
-3.05167
  0
VERTEX
  8
viva-1
  5
36F
 10
43.2065
 20
-3.06912
  0
VERTEX
  8
viva-1
  5
370
 10
43.3424
 20
-3.08668
  0
VERTEX
  8
viva-1
  5
371
 10
43.4783
 20
-3.10434
  0
VERTEX
  8
viva-1
  5
372
 10
43.6141
 20
-3.1221
  0
VERTEX
  8
viva-1
  5
373
 10
43.75
 20
-3.13997
  0
VERTEX
  8
viva-1
  5
374
 10
43.8859
 20
-3.15794
  0
VERTEX
  8
viva-1
  5
375
 10
44.0217
 20
-3.17601
  0
VERTEX
  8
viva-1
  5
376
 10
44.1576
 20
-3.19419
  0
VERTEX
  8
viva-1
  5
377
 10
44.2935
 20
-3.21248
  0
VERTEX
  8
viva-1
  5
378
 10
44.4293
 20
-3.23087
  0
VERTEX
  8
viva-1
  5
379
 10
44.5652
 20
-3.24937
  0
VERTEX
  8
viva-1
  5
37A
 10
44.7011
 20
-3.26798
  0
VERTEX
  8
viva-1
  5
37B
 10
44.837
 20
-3.28669
  0
VERTEX
  8
viva-1
  5
37C
 10
44.9728
 20
-3.30552
  0
VERTEX
  8
viva-1
  5
37D
 10
45.1087
 20
-3.32445
  0
VERTEX
  8
viva-1
  5
37E
 10
45.2446
 20
-3.34349
  0
VERTEX
  8
viva-1
  5
37F
 10
45.3805
 20
-3.36265
  0
VERTEX
  8
viva-1
  5
380
 10
45.5163
 20
-3.38192
  0
VERTEX
  8
viva-1
  5
381
 10
45.6522
 20
-3.40129
  0
VERTEX
  8
viva-1
  5
382
 10
45.7881
 20
-3.42079
  0
VERTEX
  8
viva-1
  5
383
 10
45.9239
 20
-3.44039
  0
VERTEX
  8
viva-1
  5
384
 10
46.0598
 20
-3.46011
  0
VERTEX
  8
viva-1
  5
385
 10
46.1957
 20
-3.47995
  0
VERTEX
  8
viva-1
  5
386
 10
46.3315
 20
-3.4999
  0
VERTEX
  8
viva-1
  5
387
 10
46.4674
 20
-3.51996
  0
VERTEX
  8
viva-1
  5
388
 10
46.6033
 20
-3.54015
  0
VERTEX
  8
viva-1
  5
389
 10
46.7391
 20
-3.56045
  0
VERTEX
  8
viva-1
  5
38A
 10
46.875
 20
-3.58086
  0
VERTEX
  8
viva-1
  5
38B
 10
47.0109
 20
-3.60139
  0
VERTEX
  8
viva-1
  5
38C
 10
47.1468
 20
-3.62203
  0
VERTEX
  8
viva-1
  5
38D
 10
47.2826
 20
-3.64278
  0
VERTEX
  8
viva-1
  5
38E
 10
47.4185
 20
-3.66365
  0
VERTEX
  8
viva-1
  5
38F
 10
47.5544
 20
-3.68463
  0
VERTEX
  8
viva-1
  5
390
 10
47.6902
 20
-3.70571
  0
VERTEX
  8
viva-1
  5
391
 10
47.8261
 20
-3.72692
  0
VERTEX
  8
viva-1
  5
392
 10
47.962
 20
-3.74825
  0
VERTEX
  8
viva-1
  5
393
 10
48.0978
 20
-3.76968
  0
VERTEX
  8
viva-1
  5
394
 10
48.2337
 20
-3.79125
  0
VERTEX
  8
viva-1
  5
395
 10
48.3696
 20
-3.81293
  0
VERTEX
  8
viva-1
  5
396
 10
48.5054
 20
-3.83473
  0
VERTEX
  8
viva-1
  5
397
 10
48.6413
 20
-3.85665
  0
VERTEX
  8
viva-1
  5
398
 10
48.7772
 20
-3.8787
  0
VERTEX
  8
viva-1
  5
399
 10
48.913
 20
-3.90087
  0
VERTEX
  8
viva-1
  5
39A
 10
49.0489
 20
-3.92318
  0
VERTEX
  8
viva-1
  5
39B
 10
49.1848
 20
-3.9456
  0
VERTEX
  8
viva-1
  5
39C
 10
49.3207
 20
-3.96816
  0
VERTEX
  8
viva-1
  5
39D
 10
49.4565
 20
-3.99085
  0
VERTEX
  8
viva-1
  5
39E
 10
49.5924
 20
-4.01366
  0
VERTEX
  8
viva-1
  5
39F
 10
49.7283
 20
-4.03661
  0
VERTEX
  8
viva-1
  5
3A0
 10
49.8642
 20
-4.0597
  0
VERTEX
  8
viva-1
  5
3A1
 10
50.0
 20
-4.08292
  0
VERTEX
  8
viva-1
  5
3A2
 10
50.1359
 20
-4.10627
  0
VERTEX
  8
viva-1
  5
3A3
 10
50.2718
 20
-4.12977
  0
VERTEX
  8
viva-1
  5
3A4
 10
50.4076
 20
-4.1534
  0
VERTEX
  8
viva-1
  5
3A5
 10
50.5435
 20
-4.17716
  0
VERTEX
  8
viva-1
  5
3A6
 10
50.6794
 20
-4.20108
  0
VERTEX
  8
viva-1
  5
3A7
 10
50.8152
 20
-4.22513
  0
VERTEX
  8
viva-1
  5
3A8
 10
50.9511
 20
-4.24933
  0
VERTEX
  8
viva-1
  5
3A9
 10
51.087
 20
-4.27368
  0
VERTEX
  8
viva-1
  5
3AA
 10
51.2229
 20
-4.29816
  0
VERTEX
  8
viva-1
  5
3AB
 10
51.3587
 20
-4.32279
  0
VERTEX
  8
viva-1
  5
3AC
 10
51.4946
 20
-4.34758
  0
VERTEX
  8
viva-1
  5
3AD
 10
51.6305
 20
-4.37251
  0
VERTEX
  8
viva-1
  5
3AE
 10
51.7663
 20
-4.39758
  0
VERTEX
  8
viva-1
  5
3AF
 10
51.9022
 20
-4.42278
  0
VERTEX
  8
viva-1
  5
3B0
 10
52.0381
 20
-4.44812
  0
VERTEX
  8
viva-1
  5
3B1
 10
52.1739
 20
-4.4736
  0
VERTEX
  8
viva-1
  5
3B2
 10
52.3098
 20
-4.49922
  0
VERTEX
  8
viva-1
  5
3B3
 10
52.4457
 20
-4.52498
  0
VERTEX
  8
viva-1
  5
3B4
 10
52.5815
 20
-4.55088
  0
VERTEX
  8
viva-1
  5
3B5
 10
52.7174
 20
-4.57693
  0
VERTEX
  8
viva-1
  5
3B6
 10
52.8533
 20
-4.60312
  0
VERTEX
  8
viva-1
  5
3B7
 10
52.9891
 20
-4.62945
  0
VERTEX
  8
viva-1
  5
3B8
 10
53.125
 20
-4.65593
  0
VERTEX
  8
viva-1
  5
3B9
 10
53.2609
 20
-4.68256
  0
VERTEX
  8
viva-1
  5
3BA
 10
53.3967
 20
-4.70933
  0
VERTEX
  8
viva-1
  5
3BB
 10
53.5326
 20
-4.73627
  0
VERTEX
  8
viva-1
  5
3BC
 10
53.6685
 20
-4.76335
  0
VERTEX
  8
viva-1
  5
3BD
 10
53.8043
 20
-4.79058
  0
VERTEX
  8
viva-1
  5
3BE
 10
53.9402
 20
-4.81797
  0
VERTEX
  8
viva-1
  5
3BF
 10
54.0761
 20
-4.84551
  0
VERTEX
  8
viva-1
  5
3C0
 10
54.212
 20
-4.87321
  0
VERTEX
  8
viva-1
  5
3C1
 10
54.3479
 20
-4.90107
  0
VERTEX
  8
viva-1
  5
3C2
 10
54.4837
 20
-4.92909
  0
VERTEX
  8
viva-1
  5
3C3
 10
54.6196
 20
-4.95726
  0
VERTEX
  8
viva-1
  5
3C4
 10
54.7555
 20
-4.9856
  0
VERTEX
  8
viva-1
  5
3C5
 10
54.8913
 20
-5.0141
  0
VERTEX
  8
viva-1
  5
3C6
 10
55.0272
 20
-5.04276
  0
VERTEX
  8
viva-1
  5
3C7
 10
55.1631
 20
-5.0716
  0
VERTEX
  8
viva-1
  5
3C8
 10
55.2989
 20
-5.10059
  0
VERTEX
  8
viva-1
  5
3C9
 10
55.4348
 20
-5.12975
  0
VERTEX
  8
viva-1
  5
3CA
 10
55.5707
 20
-5.15909
  0
VERTEX
  8
viva-1
  5
3CB
 10
55.7066
 20
-5.18859
  0
VERTEX
  8
viva-1
  5
3CC
 10
55.8424
 20
-5.21825
  0
VERTEX
  8
viva-1
  5
3CD
 10
55.9783
 20
-5.24811
  0
VERTEX
  8
viva-1
  5
3CE
 10
56.1142
 20
-5.27813
  0
VERTEX
  8
viva-1
  5
3CF
 10
56.25
 20
-5.30831
  0
VERTEX
  8
viva-1
  5
3D0
 10
56.3859
 20
-5.33869
  0
VERTEX
  8
viva-1
  5
3D1
 10
56.5218
 20
-5.36924
  0
VERTEX
  8
viva-1
  5
3D2
 10
56.6576
 20
-5.39995
  0
VERTEX
  8
viva-1
  5
3D3
 10
56.7935
 20
-5.43087
  0
VERTEX
  8
viva-1
  5
3D4
 10
56.9294
 20
-5.46195
  0
VERTEX
  8
viva-1
  5
3D5
 10
57.0652
 20
-5.49321
  0
VERTEX
  8
viva-1
  5
3D6
 10
57.2011
 20
-5.52467
  0
VERTEX
  8
viva-1
  5
3D7
 10
57.337
 20
-5.55631
  0
VERTEX
  8
viva-1
  5
3D8
 10
57.4728
 20
-5.58812
  0
VERTEX
  8
viva-1
  5
3D9
 10
57.6087
 20
-5.62014
  0
VERTEX
  8
viva-1
  5
3DA
 10
57.7446
 20
-5.65234
  0
VERTEX
  8
viva-1
  5
3DB
 10
57.8804
 20
-5.68471
  0
VERTEX
  8
viva-1
  5
3DC
 10
58.0163
 20
-5.7173
  0
VERTEX
  8
viva-1
  5
3DD
 10
58.1522
 20
-5.75007
  0
VERTEX
  8
viva-1
  5
3DE
 10
58.288
 20
-5.78302
  0
VERTEX
  8
viva-1
  5
3DF
 10
58.424
 20
-5.81619
  0
VERTEX
  8
viva-1
  5
3E0
 10
58.5598
 20
-5.84954
  0
VERTEX
  8
viva-1
  5
3E1
 10
58.6957
 20
-5.88307
  0
VERTEX
  8
viva-1
  5
3E2
 10
58.8316
 20
-5.9168
  0
VERTEX
  8
viva-1
  5
3E3
 10
58.9674
 20
-5.95071
  0
VERTEX
  8
viva-1
  5
3E4
 10
59.1033
 20
-5.9848
  0
VERTEX
  8
viva-1
  5
3E5
 10
59.2392
 20
-6.01909
  0
VERTEX
  8
viva-1
  5
3E6
 10
59.375
 20
-6.05355
  0
VERTEX
  8
viva-1
  5
3E7
 10
59.5109
 20
-6.0882
  0
VERTEX
  8
viva-1
  5
3E8
 10
59.6468
 20
-6.12306
  0
VERTEX
  8
viva-1
  5
3E9
 10
59.7827
 20
-6.1581
  0
VERTEX
  8
viva-1
  5
3EA
 10
59.9185
 20
-6.19332
  0
VERTEX
  8
viva-1
  5
3EB
 10
60.0544
 20
-6.22876
  0
VERTEX
  8
viva-1
  5
3EC
 10
60.1903
 20
-6.26439
  0
VERTEX
  8
viva-1
  5
3ED
 10
60.3261
 20
-6.3002
  0
VERTEX
  8
viva-1
  5
3EE
 10
60.462
 20
-6.33625
  0
VERTEX
  8
viva-1
  5
3EF
 10
60.5979
 20
-6.37248
  0
VERTEX
  8
viva-1
  5
3F0
 10
60.7337
 20
-6.4089
  0
VERTEX
  8
viva-1
  5
3F1
 10
60.8696
 20
-6.44556
  0
VERTEX
  8
viva-1
  5
3F2
 10
61.0055
 20
-6.4824
  0
VERTEX
  8
viva-1
  5
3F3
 10
61.1413
 20
-6.51945
  0
VERTEX
  8
viva-1
  5
3F4
 10
61.2772
 20
-6.55673
  0
VERTEX
  8
viva-1
  5
3F5
 10
61.4131
 20
-6.59421
  0
VERTEX
  8
viva-1
  5
3F6
 10
61.5489
 20
-6.63189
  0
VERTEX
  8
viva-1
  5
3F7
 10
61.6848
 20
-6.66982
  0
VERTEX
  8
viva-1
  5
3F8
 10
61.8207
 20
-6.70794
  0
VERTEX
  8
viva-1
  5
3F9
 10
61.9565
 20
-6.74628
  0
VERTEX
  8
viva-1
  5
3FA
 10
62.0924
 20
-6.78486
  0
VERTEX
  8
viva-1
  5
3FB
 10
62.2283
 20
-6.82365
  0
VERTEX
  8
viva-1
  5
3FC
 10
62.3641
 20
-6.86265
  0
VERTEX
  8
viva-1
  5
3FD
 10
62.5001
 20
-6.9019
  0
VERTEX
  8
viva-1
  5
3FE
 10
62.6359
 20
-6.94137
  0
VERTEX
  8
viva-1
  5
3FF
 10
62.7717
 20
-6.98104
  0
VERTEX
  8
viva-1
  5
400
 10
62.9077
 20
-7.02099
  0
VERTEX
  8
viva-1
  5
401
 10
63.0435
 20
-7.06114
  0
VERTEX
  8
viva-1
  5
402
 10
63.1793
 20
-7.10152
  0
VERTEX
  8
viva-1
  5
403
 10
63.3153
 20
-7.14216
  0
VERTEX
  8
viva-1
  5
404
 10
63.4512
 20
-7.18302
  0
VERTEX
  8
viva-1
  5
405
 10
63.587
 20
-7.2241
  0
VERTEX
  8
viva-1
  5
406
 10
63.7229
 20
-7.26547
  0
VERTEX
  8
viva-1
  5
407
 10
63.8588
 20
-7.30705
  0
VERTEX
  8
viva-1
  5
408
 10
63.9946
 20
-7.34886
  0
VERTEX
  8
viva-1
  5
409
 10
64.1305
 20
-7.39095
  0
VERTEX
  8
viva-1
  5
40A
 10
64.2664
 20
-7.43327
  0
VERTEX
  8
viva-1
  5
40B
 10
64.4022
 20
-7.47581
  0
VERTEX
  8
viva-1
  5
40C
 10
64.5381
 20
-7.51865
  0
VERTEX
  8
viva-1
  5
40D
 10
64.674
 20
-7.56172
  0
VERTEX
  8
viva-1
  5
40E
 10
64.8098
 20
-7.60502
  0
VERTEX
  8
viva-1
  5
40F
 10
64.9457
 20
-7.64862
  0
VERTEX
  8
viva-1
  5
410
 10
65.0816
 20
-7.69245
  0
VERTEX
  8
viva-1
  5
411
 10
65.2174
 20
-7.73652
  0
VERTEX
  8
viva-1
  5
412
 10
65.3533
 20
-7.7809
  0
VERTEX
  8
viva-1
  5
413
 10
65.4892
 20
-7.82551
  0
VERTEX
  8
viva-1
  5
414
 10
65.625
 20
-7.87035
  0
VERTEX
  8
viva-1
  5
415
 10
65.7609
 20
-7.91549
  0
VERTEX
  8
viva-1
  5
416
 10
65.8968
 20
-7.96086
  0
VERTEX
  8
viva-1
  5
417
 10
66.0326
 20
-8.00645
  0
VERTEX
  8
viva-1
  5
418
 10
66.1686
 20
-8.05234
  0
VERTEX
  8
viva-1
  5
419
 10
66.3044
 20
-8.09844
  0
VERTEX
  8
viva-1
  5
41A
 10
66.4402
 20
-8.14477
  0
VERTEX
  8
viva-1
  5
41B
 10
66.5762
 20
-8.19141
  0
VERTEX
  8
viva-1
  5
41C
 10
66.712
 20
-8.23827
  0
VERTEX
  8
viva-1
  5
41D
 10
66.8478
 20
-8.28537
  0
VERTEX
  8
viva-1
  5
41E
 10
66.9838
 20
-8.33278
  0
VERTEX
  8
viva-1
  5
41F
 10
67.1196
 20
-8.38043
  0
VERTEX
  8
viva-1
  5
420
 10
67.2554
 20
-8.42832
  0
VERTEX
  8
viva-1
  5
421
 10
67.3914
 20
-8.47654
  0
VERTEX
  8
viva-1
  5
422
 10
67.5273
 20
-8.525
  0
VERTEX
  8
viva-1
  5
423
 10
67.663
 20
-8.57371
  0
VERTEX
  8
viva-1
  5
424
 10
67.799
 20
-8.62275
  0
VERTEX
  8
viva-1
  5
425
 10
67.9349
 20
-8.67205
  0
VERTEX
  8
viva-1
  5
426
 10
68.0707
 20
-8.72159
  0
VERTEX
  8
viva-1
  5
427
 10
68.2066
 20
-8.77149
  0
VERTEX
  8
viva-1
  5
428
 10
68.3425
 20
-8.82164
  0
VERTEX
  8
viva-1
  5
429
 10
68.4783
 20
-8.87205
  0
VERTEX
  8
viva-1
  5
42A
 10
68.6142
 20
-8.92282
  0
VERTEX
  8
viva-1
  5
42B
 10
68.7501
 20
-8.97385
  0
VERTEX
  8
viva-1
  5
42C
 10
68.8859
 20
-9.02515
  0
VERTEX
  8
viva-1
  5
42D
 10
69.0218
 20
-9.07682
  0
VERTEX
  8
viva-1
  5
42E
 10
69.1577
 20
-9.12876
  0
VERTEX
  8
viva-1
  5
42F
 10
69.2935
 20
-9.18097
  0
VERTEX
  8
viva-1
  5
430
 10
69.4295
 20
-9.23357
  0
VERTEX
  8
viva-1
  5
431
 10
69.5653
 20
-9.28643
  0
VERTEX
  8
viva-1
  5
432
 10
69.7011
 20
-9.33958
  0
VERTEX
  8
viva-1
  5
433
 10
69.8371
 20
-9.39312
  0
VERTEX
  8
viva-1
  5
434
 10
69.9729
 20
-9.44695
  0
VERTEX
  8
viva-1
  5
435
 10
70.1087
 20
-9.50105
  0
VERTEX
  8
viva-1
  5
436
 10
70.2447
 20
-9.55556
  0
VERTEX
  8
viva-1
  5
437
 10
70.3805
 20
-9.61035
  0
VERTEX
  8
viva-1
  5
438
 10
70.5163
 20
-9.66538
  0
VERTEX
  8
viva-1
  5
439
 10
70.6523
 20
-9.72078
  0
VERTEX
  8
viva-1
  5
43A
 10
70.7881
 20
-9.77642
  0
VERTEX
  8
viva-1
  5
43B
 10
70.9239
 20
-9.83232
  0
VERTEX
  8
viva-1
  5
43C
 10
71.0599
 20
-9.8886
  0
VERTEX
  8
viva-1
  5
43D
 10
71.1958
 20
-9.94514
  0
VERTEX
  8
viva-1
  5
43E
 10
71.3315
 20
-10.002
  0
VERTEX
  8
viva-1
  5
43F
 10
71.4675
 20
-10.0592
  0
VERTEX
  8
viva-1
  5
440
 10
71.6034
 20
-10.1167
  0
VERTEX
  8
viva-1
  5
441
 10
71.7391
 20
-10.1745
  0
VERTEX
  8
viva-1
  5
442
 10
71.8751
 20
-10.2327
  0
VERTEX
  8
viva-1
  5
443
 10
72.011
 20
-10.2913
  0
VERTEX
  8
viva-1
  5
444
 10
72.1467
 20
-10.3501
  0
VERTEX
  8
viva-1
  5
445
 10
72.2827
 20
-10.4094
  0
VERTEX
  8
viva-1
  5
446
 10
72.4186
 20
-10.469
  0
VERTEX
  8
viva-1
  5
447
 10
72.5543
 20
-10.5289
  0
VERTEX
  8
viva-1
  5
448
 10
72.6903
 20
-10.5893
  0
VERTEX
  8
viva-1
  5
449
 10
72.8262
 20
-10.65
  0
VERTEX
  8
viva-1
  5
44A
 10
72.962
 20
-10.711
  0
VERTEX
  8
viva-1
  5
44B
 10
73.0979
 20
-10.7723
  0
VERTEX
  8
viva-1
  5
44C
 10
73.2338
 20
-10.834
  0
VERTEX
  8
viva-1
  5
44D
 10
73.3696
 20
-10.8959
  0
VERTEX
  8
viva-1
  5
44E
 10
73.5056
 20
-10.9582
  0
VERTEX
  8
viva-1
  5
44F
 10
73.6414
 20
-11.0209
  0
VERTEX
  8
viva-1
  5
450
 10
73.7772
 20
-11.0839
  0
VERTEX
  8
viva-1
  5
451
 10
73.9132
 20
-11.1474
  0
VERTEX
  8
viva-1
  5
452
 10
74.0491
 20
-11.2112
  0
VERTEX
  8
viva-1
  5
453
 10
74.1848
 20
-11.2754
  0
VERTEX
  8
viva-1
  5
454
 10
74.3208
 20
-11.34
  0
VERTEX
  8
viva-1
  5
455
 10
74.4567
 20
-11.4049
  0
VERTEX
  8
viva-1
  5
456
 10
74.5924
 20
-11.4702
  0
VERTEX
  8
viva-1
  5
457
 10
74.7284
 20
-11.5358
  0
VERTEX
  8
viva-1
  5
458
 10
74.8643
 20
-11.6018
  0
VERTEX
  8
viva-1
  5
459
 10
75.0
 20
-11.668
  0
VERTEX
  8
viva-1
  5
45A
 10
75.0
 20
-37.5
  0
VERTEX
  8
viva-1
  5
45B
 10
-26.0
 20
-37.5
  0
VERTEX
  8
viva-1
  5
45C
 10
-26.0
 20
37.5
  0
VERTEX
  8
viva-1
  5
45D
 10
75.0
 20
37.5
  0
SEQEND
  8
viva-1
  5
45E
  0
POLYLINE
  8
viva-1
  5
45F
 66
1
 10
0.0
 20
0.0
 30
0.0
 70
1
  0
VERTEX
  8
viva-1
  5
460
 10
75.0
 20
-37.5
  0
VERTEX
  8
viva-1
  5
461
 10
-26.0
 20
-37.5
  0
VERTEX
  8
viva-1
  5
462
 10
-26.0
 20
37.5
  0
VERTEX
  8
viva-1
  5
463
 10
75.0
 20
37.5
  0
SEQEND
  8
viva-1
  5
464
  0
POLYLINE
  8
viva-1
  5
465
 66
1
 10
0.0
 20
0.0
 30
0.0
 70
1
  0
VERTEX
  8
viva-1
  5
466
 10
85.0
 20
-47.5
  0
VERTEX
  8
viva-1
  5
467
 10
-36.0
 20
-47.5
  0
VERTEX
  8
viva-1
  5
468
 10
-36.0
 20
47.5
  0
VERTEX
  8
viva-1
  5
469
 10
85.0
 20
47.5
  0
SEQEND
  8
viva-1
  5
46A
  0
ENDSEC
  0
EOF
