  0
SECTION
  2
ENTITIES
  0
POLYLINE
  8
taper
  5
1
 66
1
 10
0.0
 20
0.0
 30
0.0
 70
1
  0
VERTEX
  8
taper
  5
2
 10
3.94981
 20
-41.5
  0
VERTEX
  8
taper
  5
3
 10
4.70135
 20
-41.5
  0
SEQEND
  8
taper
  5
4
  0
POLYLINE
  8
taper
  5
5
 66
1
 10
0.0
 20
0.0
 30
0.0
 70
1
  0
VERTEX
  8
taper
  5
6
 10
4.70135
 20
-41.5
  0
VERTEX
  8
taper
  5
7
 10
3.94981
 20
-41.5
  0
VERTEX
  8
taper
  5
8
 10
3.94981
 20
-7.36765
  0
VERTEX
  8
taper
  5
9
 10
3.88808
 20
-7.36765
  0
VERTEX
  8
taper
  5
A
 10
3.88808
 20
0.0868619
  0
VERTEX
  8
taper
  5
B
 10
-6.43024
 20
10.4052
  0
VERTEX
  8
taper
  5
C
 10
-3.27994
 20
12.8225
  0
VERTEX
  8
taper
  5
D
 10
0.388656
 20
14.3421
  0
VERTEX
  8
taper
  5
E
 10
4.32555
 20
14.8604
  0
VERTEX
  8
taper
  5
F
 10
8.26245
 20
14.3421
  0
VERTEX
  8
taper
  5
10
 10
11.9311
 20
12.8225
  0
VERTEX
  8
taper
  5
11
 10
15.0814
 20
10.4052
  0
VERTEX
  8
taper
  5
12
 10
4.76308
 20
0.0869448
  0
VERTEX
  8
taper
  5
13
 10
4.76308
 20
-7.36765
  0
VERTEX
  8
taper
  5
14
 10
4.70135
 20
-7.36765
  0
SEQEND
  8
taper
  5
15
  0
POLYLINE
  8
taper
  5
16
 66
1
 10
0.0
 20
0.0
 30
0.0
 70
1
  0
VERTEX
  8
taper
  5
17
 10
64.5919
 20
41.5
  0
VERTEX
  8
taper
  5
18
 10
64.5194
 20
41.3408
  0
VERTEX
  8
taper
  5
19
 10
64.4466
 20
41.1818
  0
VERTEX
  8
taper
  5
1A
 10
64.3737
 20
41.0228
  0
VERTEX
  8
taper
  5
1B
 10
64.3011
 20
40.8654
  0
VERTEX
  8
taper
  5
1C
 10
64.2284
 20
40.7082
  0
VERTEX
  8
taper
  5
1D
 10
64.1554
 20
40.5511
  0
VERTEX
  8
taper
  5
1E
 10
64.0829
 20
40.3955
  0
VERTEX
  8
taper
  5
1F
 10
64.0102
 20
40.2401
  0
VERTEX
  8
taper
  5
20
 10
63.9372
 20
40.0848
  0
VERTEX
  8
taper
  5
21
 10
63.8647
 20
39.931
  0
VERTEX
  8
taper
  5
22
 10
63.792
 20
39.7773
  0
VERTEX
  8
taper
  5
23
 10
63.719
 20
39.6238
  0
VERTEX
  8
taper
  5
24
 10
63.6465
 20
39.4718
  0
VERTEX
  8
taper
  5
25
 10
63.5738
 20
39.3199
  0
VERTEX
  8
taper
  5
26
 10
63.5008
 20
39.1681
  0
VERTEX
  8
taper
  5
27
 10
63.4283
 20
39.0178
  0
VERTEX
  8
taper
  5
28
 10
63.3555
 20
38.8677
  0
VERTEX
  8
taper
  5
29
 10
63.2826
 20
38.7176
  0
VERTEX
  8
taper
  5
2A
 10
63.2101
 20
38.5691
  0
VERTEX
  8
taper
  5
2B
 10
63.1373
 20
38.4206
  0
VERTEX
  8
taper
  5
2C
 10
63.0644
 20
38.2723
  0
VERTEX
  8
taper
  5
2D
 10
62.9918
 20
38.1255
  0
VERTEX
  8
taper
  5
2E
 10
62.9191
 20
37.9788
  0
VERTEX
  8
taper
  5
2F
 10
62.8461
 20
37.8321
  0
VERTEX
  8
taper
  5
30
 10
62.7736
 20
37.687
  0
VERTEX
  8
taper
  5
31
 10
62.7009
 20
37.5419
  0
VERTEX
  8
taper
  5
32
 10
62.6279
 20
37.397
  0
VERTEX
  8
taper
  5
33
 10
62.5554
 20
37.2535
  0
VERTEX
  8
taper
  5
34
 10
62.4827
 20
37.1102
  0
VERTEX
  8
taper
  5
35
 10
62.4097
 20
36.9669
  0
VERTEX
  8
taper
  5
36
 10
62.3372
 20
36.8251
  0
VERTEX
  8
taper
  5
37
 10
62.2645
 20
36.6834
  0
VERTEX
  8
taper
  5
38
 10
62.1915
 20
36.5417
  0
VERTEX
  8
taper
  5
39
 10
62.119
 20
36.4015
  0
VERTEX
  8
taper
  5
3A
 10
62.0462
 20
36.2615
  0
VERTEX
  8
taper
  5
3B
 10
61.9733
 20
36.1215
  0
VERTEX
  8
taper
  5
3C
 10
61.9008
 20
35.9829
  0
VERTEX
  8
taper
  5
3D
 10
61.828
 20
35.8444
  0
VERTEX
  8
taper
  5
3E
 10
61.7551
 20
35.7061
  0
VERTEX
  8
taper
  5
3F
 10
61.6825
 20
35.5691
  0
VERTEX
  8
taper
  5
40
 10
61.6098
 20
35.4322
  0
VERTEX
  8
taper
  5
41
 10
61.5368
 20
35.2955
  0
VERTEX
  8
taper
  5
42
 10
61.4643
 20
35.1601
  0
VERTEX
  8
taper
  5
43
 10
61.3916
 20
35.0248
  0
VERTEX
  8
taper
  5
44
 10
61.3186
 20
34.8896
  0
VERTEX
  8
taper
  5
45
 10
61.2461
 20
34.7558
  0
VERTEX
  8
taper
  5
46
 10
61.1734
 20
34.622
  0
VERTEX
  8
taper
  5
47
 10
61.1004
 20
34.4884
  0
VERTEX
  8
taper
  5
48
 10
61.0279
 20
34.3561
  0
VERTEX
  8
taper
  5
49
 10
60.9552
 20
34.2239
  0
VERTEX
  8
taper
  5
4A
 10
60.8822
 20
34.0919
  0
VERTEX
  8
taper
  5
4B
 10
60.8097
 20
33.9611
  0
VERTEX
  8
taper
  5
4C
 10
60.7369
 20
33.8304
  0
VERTEX
  8
taper
  5
4D
 10
60.664
 20
33.6999
  0
VERTEX
  8
taper
  5
4E
 10
60.5915
 20
33.5706
  0
VERTEX
  8
taper
  5
4F
 10
60.5187
 20
33.4414
  0
VERTEX
  8
taper
  5
50
 10
60.4458
 20
33.3124
  0
VERTEX
  8
taper
  5
51
 10
60.3732
 20
33.1846
  0
VERTEX
  8
taper
  5
52
 10
60.3005
 20
33.057
  0
VERTEX
  8
taper
  5
53
 10
60.2276
 20
32.9294
  0
VERTEX
  8
taper
  5
54
 10
60.155
 20
32.8031
  0
VERTEX
  8
taper
  5
55
 10
60.0823
 20
32.6769
  0
VERTEX
  8
taper
  5
56
 10
60.0093
 20
32.5509
  0
VERTEX
  8
taper
  5
57
 10
59.9368
 20
32.426
  0
VERTEX
  8
taper
  5
58
 10
59.8641
 20
32.3013
  0
VERTEX
  8
taper
  5
59
 10
59.7911
 20
32.1766
  0
VERTEX
  8
taper
  5
5A
 10
59.7186
 20
32.0532
  0
VERTEX
  8
taper
  5
5B
 10
59.6459
 20
31.9299
  0
VERTEX
  8
taper
  5
5C
 10
59.5729
 20
31.8067
  0
VERTEX
  8
taper
  5
5D
 10
59.5004
 20
31.6847
  0
VERTEX
  8
taper
  5
5E
 10
59.4276
 20
31.5628
  0
VERTEX
  8
taper
  5
5F
 10
59.3547
 20
31.4411
  0
VERTEX
  8
taper
  5
60
 10
59.2822
 20
31.3205
  0
VERTEX
  8
taper
  5
61
 10
59.2094
 20
31.2
  0
VERTEX
  8
taper
  5
62
 10
59.1365
 20
31.0796
  0
VERTEX
  8
taper
  5
63
 10
59.0639
 20
30.9604
  0
VERTEX
  8
taper
  5
64
 10
58.9912
 20
30.8413
  0
VERTEX
  8
taper
  5
65
 10
58.9183
 20
30.7223
  0
VERTEX
  8
taper
  5
66
 10
58.8457
 20
30.6045
  0
VERTEX
  8
taper
  5
67
 10
58.773
 20
30.4867
  0
VERTEX
  8
taper
  5
68
 10
58.7
 20
30.3691
  0
VERTEX
  8
taper
  5
69
 10
58.6275
 20
30.2526
  0
VERTEX
  8
taper
  5
6A
 10
58.5548
 20
30.1362
  0
VERTEX
  8
taper
  5
6B
 10
58.4818
 20
30.0199
  0
VERTEX
  8
taper
  5
6C
 10
58.4093
 20
29.9047
  0
VERTEX
  8
taper
  5
6D
 10
58.3365
 20
29.7897
  0
VERTEX
  8
taper
  5
6E
 10
58.2636
 20
29.6747
  0
VERTEX
  8
taper
  5
6F
 10
58.1911
 20
29.5608
  0
VERTEX
  8
taper
  5
70
 10
58.1183
 20
29.4471
  0
VERTEX
  8
taper
  5
71
 10
58.0454
 20
29.3335
  0
VERTEX
  8
taper
  5
72
 10
57.9729
 20
29.2209
  0
VERTEX
  8
taper
  5
73
 10
57.9001
 20
29.1084
  0
VERTEX
  8
taper
  5
74
 10
57.8272
 20
28.9961
  0
VERTEX
  8
taper
  5
75
 10
57.7546
 20
28.8848
  0
VERTEX
  8
taper
  5
76
 10
57.6819
 20
28.7737
  0
VERTEX
  8
taper
  5
77
 10
57.609
 20
28.6626
  0
VERTEX
  8
taper
  5
78
 10
57.5364
 20
28.5526
  0
VERTEX
  8
taper
  5
79
 10
57.4637
 20
28.4427
  0
VERTEX
  8
taper
  5
7A
 10
57.3907
 20
28.333
  0
VERTEX
  8
taper
  5
7B
 10
57.3182
 20
28.2242
  0
VERTEX
  8
taper
  5
7C
 10
57.2455
 20
28.1156
  0
VERTEX
  8
taper
  5
7D
 10
57.1725
 20
28.0071
  0
VERTEX
  8
taper
  5
7E
 10
57.1
 20
27.8996
  0
VERTEX
  8
taper
  5
7F
 10
57.0272
 20
27.7922
  0
VERTEX
  8
taper
  5
80
 10
56.9543
 20
27.6849
  0
VERTEX
  8
taper
  5
81
 10
56.8818
 20
27.5787
  0
VERTEX
  8
taper
  5
82
 10
56.809
 20
27.4725
  0
VERTEX
  8
taper
  5
83
 10
56.7361
 20
27.3665
  0
VERTEX
  8
taper
  5
84
 10
56.6636
 20
27.2615
  0
VERTEX
  8
taper
  5
85
 10
56.5908
 20
27.1565
  0
VERTEX
  8
taper
  5
86
 10
56.5179
 20
27.0517
  0
VERTEX
  8
taper
  5
87
 10
56.4453
 20
26.9479
  0
VERTEX
  8
taper
  5
88
 10
56.3726
 20
26.8442
  0
VERTEX
  8
taper
  5
89
 10
56.2997
 20
26.7406
  0
VERTEX
  8
taper
  5
8A
 10
56.2271
 20
26.638
  0
VERTEX
  8
taper
  5
8B
 10
56.1544
 20
26.5354
  0
VERTEX
  8
taper
  5
8C
 10
56.0815
 20
26.4331
  0
VERTEX
  8
taper
  5
8D
 10
56.0089
 20
26.3316
  0
VERTEX
  8
taper
  5
8E
 10
55.9362
 20
26.2303
  0
VERTEX
  8
taper
  5
8F
 10
55.8632
 20
26.1291
  0
VERTEX
  8
taper
  5
90
 10
55.7907
 20
26.0288
  0
VERTEX
  8
taper
  5
91
 10
55.7179
 20
25.9286
  0
VERTEX
  8
taper
  5
92
 10
55.645
 20
25.8286
  0
VERTEX
  8
taper
  5
93
 10
55.5725
 20
25.7294
  0
VERTEX
  8
taper
  5
94
 10
55.4997
 20
25.6304
  0
VERTEX
  8
taper
  5
95
 10
55.4268
 20
25.5315
  0
VERTEX
  8
taper
  5
96
 10
55.3542
 20
25.4335
  0
VERTEX
  8
taper
  5
97
 10
55.2815
 20
25.3357
  0
VERTEX
  8
taper
  5
98
 10
55.2086
 20
25.2379
  0
VERTEX
  8
taper
  5
99
 10
55.136
 20
25.1411
  0
VERTEX
  8
taper
  5
9A
 10
55.0633
 20
25.0443
  0
VERTEX
  8
taper
  5
9B
 10
54.9904
 20
24.9477
  0
VERTEX
  8
taper
  5
9C
 10
54.9178
 20
24.852
  0
VERTEX
  8
taper
  5
9D
 10
54.8451
 20
24.7564
  0
VERTEX
  8
taper
  5
9E
 10
54.7722
 20
24.6609
  0
VERTEX
  8
taper
  5
9F
 10
54.6996
 20
24.5663
  0
VERTEX
  8
taper
  5
A0
 10
54.6269
 20
24.4717
  0
VERTEX
  8
taper
  5
A1
 10
54.5539
 20
24.3774
  0
VERTEX
  8
taper
  5
A2
 10
54.4814
 20
24.2838
  0
VERTEX
  8
taper
  5
A3
 10
54.4086
 20
24.1904
  0
VERTEX
  8
taper
  5
A4
 10
54.3357
 20
24.0971
  0
VERTEX
  8
taper
  5
A5
 10
54.2632
 20
24.0046
  0
VERTEX
  8
taper
  5
A6
 10
54.1904
 20
23.9123
  0
VERTEX
  8
taper
  5
A7
 10
54.1175
 20
23.8201
  0
VERTEX
  8
taper
  5
A8
 10
54.0449
 20
23.7287
  0
VERTEX
  8
taper
  5
A9
 10
53.9722
 20
23.6374
  0
VERTEX
  8
taper
  5
AA
 10
53.8993
 20
23.5462
  0
VERTEX
  8
taper
  5
AB
 10
53.8267
 20
23.4559
  0
VERTEX
  8
taper
  5
AC
 10
53.754
 20
23.3657
  0
VERTEX
  8
taper
  5
AD
 10
53.6811
 20
23.2756
  0
VERTEX
  8
taper
  5
AE
 10
53.6085
 20
23.1862
  0
VERTEX
  8
taper
  5
AF
 10
53.5358
 20
23.097
  0
VERTEX
  8
taper
  5
B0
 10
53.4629
 20
23.008
  0
VERTEX
  8
taper
  5
B1
 10
53.3903
 20
22.9197
  0
VERTEX
  8
taper
  5
B2
 10
53.3176
 20
22.8315
  0
VERTEX
  8
taper
  5
B3
 10
53.2446
 20
22.7435
  0
VERTEX
  8
taper
  5
B4
 10
53.1721
 20
22.6562
  0
VERTEX
  8
taper
  5
B5
 10
53.0993
 20
22.5691
  0
VERTEX
  8
taper
  5
B6
 10
53.0264
 20
22.4821
  0
VERTEX
  8
taper
  5
B7
 10
52.9539
 20
22.3958
  0
VERTEX
  8
taper
  5
B8
 10
52.8811
 20
22.3096
  0
VERTEX
  8
taper
  5
B9
 10
52.8082
 20
22.2236
  0
VERTEX
  8
taper
  5
BA
 10
52.7356
 20
22.1383
  0
VERTEX
  8
taper
  5
BB
 10
52.6629
 20
22.0531
  0
VERTEX
  8
taper
  5
BC
 10
52.59
 20
21.9681
  0
VERTEX
  8
taper
  5
BD
 10
52.5174
 20
21.8838
  0
VERTEX
  8
taper
  5
BE
 10
52.4447
 20
21.7996
  0
VERTEX
  8
taper
  5
BF
 10
52.3718
 20
21.7155
  0
VERTEX
  8
taper
  5
C0
 10
52.2992
 20
21.6322
  0
VERTEX
  8
taper
  5
C1
 10
52.2265
 20
21.5489
  0
VERTEX
  8
taper
  5
C2
 10
52.1536
 20
21.4659
  0
VERTEX
  8
taper
  5
C3
 10
52.081
 20
21.3834
  0
VERTEX
  8
taper
  5
C4
 10
52.0082
 20
21.3012
  0
VERTEX
  8
taper
  5
C5
 10
51.9354
 20
21.219
  0
VERTEX
  8
taper
  5
C6
 10
51.8628
 20
21.1375
  0
VERTEX
  8
taper
  5
C7
 10
51.79
 20
21.0562
  0
VERTEX
  8
taper
  5
C8
 10
51.7171
 20
20.975
  0
VERTEX
  8
taper
  5
C9
 10
51.6446
 20
20.8944
  0
VERTEX
  8
taper
  5
CA
 10
51.5718
 20
20.814
  0
VERTEX
  8
taper
  5
CB
 10
51.4989
 20
20.7337
  0
VERTEX
  8
taper
  5
CC
 10
51.4263
 20
20.6541
  0
VERTEX
  8
taper
  5
CD
 10
51.3536
 20
20.5746
  0
VERTEX
  8
taper
  5
CE
 10
51.2807
 20
20.4953
  0
VERTEX
  8
taper
  5
CF
 10
51.2081
 20
20.4165
  0
VERTEX
  8
taper
  5
D0
 10
51.1354
 20
20.338
  0
VERTEX
  8
taper
  5
D1
 10
51.0625
 20
20.2595
  0
VERTEX
  8
taper
  5
D2
 10
50.9899
 20
20.1817
  0
VERTEX
  8
taper
  5
D3
 10
50.9172
 20
20.104
  0
VERTEX
  8
taper
  5
D4
 10
50.8443
 20
20.0265
  0
VERTEX
  8
taper
  5
D5
 10
50.7717
 20
19.9496
  0
VERTEX
  8
taper
  5
D6
 10
50.6989
 20
19.8728
  0
VERTEX
  8
taper
  5
D7
 10
50.6261
 20
19.7961
  0
VERTEX
  8
taper
  5
D8
 10
50.5535
 20
19.7201
  0
VERTEX
  8
taper
  5
D9
 10
50.4807
 20
19.6442
  0
VERTEX
  8
taper
  5
DA
 10
50.4078
 20
19.5684
  0
VERTEX
  8
taper
  5
DB
 10
50.3353
 20
19.4932
  0
VERTEX
  8
taper
  5
DC
 10
50.2625
 20
19.4182
  0
VERTEX
  8
taper
  5
DD
 10
50.1896
 20
19.3433
  0
VERTEX
  8
taper
  5
DE
 10
50.117
 20
19.269
  0
VERTEX
  8
taper
  5
DF
 10
50.0443
 20
19.1948
  0
VERTEX
  8
taper
  5
E0
 10
49.9714
 20
19.1208
  0
VERTEX
  8
taper
  5
E1
 10
49.8988
 20
19.0474
  0
VERTEX
  8
taper
  5
E2
 10
49.8261
 20
18.9741
  0
VERTEX
  8
taper
  5
E3
 10
49.7532
 20
18.9009
  0
VERTEX
  8
taper
  5
E4
 10
49.6806
 20
18.8283
  0
VERTEX
  8
taper
  5
E5
 10
49.6079
 20
18.7558
  0
VERTEX
  8
taper
  5
E6
 10
49.535
 20
18.6835
  0
VERTEX
  8
taper
  5
E7
 10
49.4624
 20
18.6117
  0
VERTEX
  8
taper
  5
E8
 10
49.3896
 20
18.5401
  0
VERTEX
  8
taper
  5
E9
 10
49.3168
 20
18.4686
  0
VERTEX
  8
taper
  5
EA
 10
49.2442
 20
18.3977
  0
VERTEX
  8
taper
  5
EB
 10
49.1714
 20
18.3269
  0
VERTEX
  8
taper
  5
EC
 10
49.0985
 20
18.2562
  0
VERTEX
  8
taper
  5
ED
 10
49.0259
 20
18.1861
  0
VERTEX
  8
taper
  5
EE
 10
48.9532
 20
18.1161
  0
VERTEX
  8
taper
  5
EF
 10
48.8803
 20
18.0463
  0
VERTEX
  8
taper
  5
F0
 10
48.8077
 20
17.977
  0
VERTEX
  8
taper
  5
F1
 10
48.735
 20
17.9078
  0
VERTEX
  8
taper
  5
F2
 10
48.6621
 20
17.8388
  0
VERTEX
  8
taper
  5
F3
 10
48.5895
 20
17.7703
  0
VERTEX
  8
taper
  5
F4
 10
48.5168
 20
17.7019
  0
VERTEX
  8
taper
  5
F5
 10
48.4439
 20
17.6337
  0
VERTEX
  8
taper
  5
F6
 10
48.3713
 20
17.5659
  0
VERTEX
  8
taper
  5
F7
 10
48.2986
 20
17.4984
  0
VERTEX
  8
taper
  5
F8
 10
48.2257
 20
17.4309
  0
VERTEX
  8
taper
  5
F9
 10
48.1531
 20
17.364
  0
VERTEX
  8
taper
  5
FA
 10
48.0803
 20
17.2972
  0
VERTEX
  8
taper
  5
FB
 10
48.0075
 20
17.2305
  0
VERTEX
  8
taper
  5
FC
 10
47.9349
 20
17.1643
  0
VERTEX
  8
taper
  5
FD
 10
47.8621
 20
17.0983
  0
VERTEX
  8
taper
  5
FE
 10
47.7893
 20
17.0324
  0
VERTEX
  8
taper
  5
FF
 10
47.7166
 20
16.967
  0
VERTEX
  8
taper
  5
100
 10
47.6439
 20
16.9018
  0
VERTEX
  8
taper
  5
101
 10
47.571
 20
16.8366
  0
VERTEX
  8
taper
  5
102
 10
47.4984
 20
16.772
  0
VERTEX
  8
taper
  5
103
 10
47.4257
 20
16.7075
  0
VERTEX
  8
taper
  5
104
 10
47.3528
 20
16.6431
  0
VERTEX
  8
taper
  5
105
 10
47.2802
 20
16.5792
  0
VERTEX
  8
taper
  5
106
 10
47.2075
 20
16.5154
  0
VERTEX
  8
taper
  5
107
 10
47.1346
 20
16.4518
  0
VERTEX
  8
taper
  5
108
 10
47.062
 20
16.3886
  0
VERTEX
  8
taper
  5
109
 10
46.9893
 20
16.3256
  0
VERTEX
  8
taper
  5
10A
 10
46.9164
 20
16.2627
  0
VERTEX
  8
taper
  5
10B
 10
46.8438
 20
16.2002
  0
VERTEX
  8
taper
  5
10C
 10
46.771
 20
16.1379
  0
VERTEX
  8
taper
  5
10D
 10
46.6982
 20
16.0757
  0
VERTEX
  8
taper
  5
10E
 10
46.6256
 20
16.014
  0
VERTEX
  8
taper
  5
10F
 10
46.5528
 20
15.9524
  0
VERTEX
  8
taper
  5
110
 10
46.48
 20
15.891
  0
VERTEX
  8
taper
  5
111
 10
46.4073
 20
15.8299
  0
VERTEX
  8
taper
  5
112
 10
46.3346
 20
15.769
  0
VERTEX
  8
taper
  5
113
 10
46.2617
 20
15.7083
  0
VERTEX
  8
taper
  5
114
 10
46.1891
 20
15.648
  0
VERTEX
  8
taper
  5
115
 10
46.1164
 20
15.5878
  0
VERTEX
  8
taper
  5
116
 10
46.0435
 20
15.5277
  0
VERTEX
  8
taper
  5
117
 10
45.9709
 20
15.4681
  0
VERTEX
  8
taper
  5
118
 10
45.8982
 20
15.4086
  0
VERTEX
  8
taper
  5
119
 10
45.8253
 20
15.3492
  0
VERTEX
  8
taper
  5
11A
 10
45.7527
 20
15.2902
  0
VERTEX
  8
taper
  5
11B
 10
45.6799
 20
15.2314
  0
VERTEX
  8
taper
  5
11C
 10
45.6071
 20
15.1727
  0
VERTEX
  8
taper
  5
11D
 10
45.5345
 20
15.1144
  0
VERTEX
  8
taper
  5
11E
 10
45.4617
 20
15.0563
  0
VERTEX
  8
taper
  5
11F
 10
45.3889
 20
14.9983
  0
VERTEX
  8
taper
  5
120
 10
45.3162
 20
14.9406
  0
VERTEX
  8
taper
  5
121
 10
45.2435
 20
14.8832
  0
VERTEX
  8
taper
  5
122
 10
45.1707
 20
14.8258
  0
VERTEX
  8
taper
  5
123
 10
45.098
 20
14.7688
  0
VERTEX
  8
taper
  5
124
 10
45.0253
 20
14.712
  0
VERTEX
  8
taper
  5
125
 10
44.9524
 20
14.6553
  0
VERTEX
  8
taper
  5
126
 10
44.8798
 20
14.599
  0
VERTEX
  8
taper
  5
127
 10
44.8071
 20
14.5428
  0
VERTEX
  8
taper
  5
128
 10
44.7342
 20
14.4867
  0
VERTEX
  8
taper
  5
129
 10
44.6616
 20
14.431
  0
VERTEX
  8
taper
  5
12A
 10
44.5889
 20
14.3755
  0
VERTEX
  8
taper
  5
12B
 10
44.516
 20
14.3201
  0
VERTEX
  8
taper
  5
12C
 10
44.4434
 20
14.265
  0
VERTEX
  8
taper
  5
12D
 10
44.3706
 20
14.2101
  0
VERTEX
  8
taper
  5
12E
 10
44.2978
 20
14.1554
  0
VERTEX
  8
taper
  5
12F
 10
44.2252
 20
14.1009
  0
VERTEX
  8
taper
  5
130
 10
44.1524
 20
14.0467
  0
VERTEX
  8
taper
  5
131
 10
44.0796
 20
13.9925
  0
VERTEX
  8
taper
  5
132
 10
44.0069
 20
13.9387
  0
VERTEX
  8
taper
  5
133
 10
43.9342
 20
13.8851
  0
VERTEX
  8
taper
  5
134
 10
43.8614
 20
13.8315
  0
VERTEX
  8
taper
  5
135
 10
43.7887
 20
13.7784
  0
VERTEX
  8
taper
  5
136
 10
43.716
 20
13.7253
  0
VERTEX
  8
taper
  5
137
 10
43.6432
 20
13.6724
  0
VERTEX
  8
taper
  5
138
 10
43.5705
 20
13.6199
  0
VERTEX
  8
taper
  5
139
 10
43.4978
 20
13.5674
  0
VERTEX
  8
taper
  5
13A
 10
43.4249
 20
13.5151
  0
VERTEX
  8
taper
  5
13B
 10
43.3523
 20
13.4632
  0
VERTEX
  8
taper
  5
13C
 10
43.2796
 20
13.4114
  0
VERTEX
  8
taper
  5
13D
 10
43.2067
 20
13.3597
  0
VERTEX
  8
taper
  5
13E
 10
43.1341
 20
13.3083
  0
VERTEX
  8
taper
  5
13F
 10
43.0613
 20
13.2571
  0
VERTEX
  8
taper
  5
140
 10
42.9885
 20
13.206
  0
VERTEX
  8
taper
  5
141
 10
42.9159
 20
13.1552
  0
VERTEX
  8
taper
  5
142
 10
42.8431
 20
13.1046
  0
VERTEX
  8
taper
  5
143
 10
42.7703
 20
13.0541
  0
VERTEX
  8
taper
  5
144
 10
42.6976
 20
13.0039
  0
VERTEX
  8
taper
  5
145
 10
42.6249
 20
12.9539
  0
VERTEX
  8
taper
  5
146
 10
42.5521
 20
12.9039
  0
VERTEX
  8
taper
  5
147
 10
42.4794
 20
12.8543
  0
VERTEX
  8
taper
  5
148
 10
42.4067
 20
12.8049
  0
VERTEX
  8
taper
  5
149
 10
42.3339
 20
12.7555
  0
VERTEX
  8
taper
  5
14A
 10
42.2612
 20
12.7065
  0
VERTEX
  8
taper
  5
14B
 10
42.1885
 20
12.6576
  0
VERTEX
  8
taper
  5
14C
 10
42.1156
 20
12.6088
  0
VERTEX
  8
taper
  5
14D
 10
42.043
 20
12.5604
  0
VERTEX
  8
taper
  5
14E
 10
41.9703
 20
12.512
  0
VERTEX
  8
taper
  5
14F
 10
41.8974
 20
12.4638
  0
VERTEX
  8
taper
  5
150
 10
41.8248
 20
12.4159
  0
VERTEX
  8
taper
  5
151
 10
41.752
 20
12.3681
  0
VERTEX
  8
taper
  5
152
 10
41.6792
 20
12.3205
  0
VERTEX
  8
taper
  5
153
 10
41.6066
 20
12.2731
  0
VERTEX
  8
taper
  5
154
 10
41.5338
 20
12.2259
  0
VERTEX
  8
taper
  5
155
 10
41.461
 20
12.1788
  0
VERTEX
  8
taper
  5
156
 10
41.3883
 20
12.132
  0
VERTEX
  8
taper
  5
157
 10
41.3156
 20
12.0853
  0
VERTEX
  8
taper
  5
158
 10
41.2428
 20
12.0388
  0
VERTEX
  8
taper
  5
159
 10
41.1701
 20
11.9925
  0
VERTEX
  8
taper
  5
15A
 10
41.0974
 20
11.9464
  0
VERTEX
  8
taper
  5
15B
 10
41.0246
 20
11.9004
  0
VERTEX
  8
taper
  5
15C
 10
40.9519
 20
11.8547
  0
VERTEX
  8
taper
  5
15D
 10
40.8792
 20
11.8091
  0
VERTEX
  8
taper
  5
15E
 10
40.8063
 20
11.7636
  0
VERTEX
  8
taper
  5
15F
 10
40.7337
 20
11.7184
  0
VERTEX
  8
taper
  5
160
 10
40.661
 20
11.6733
  0
VERTEX
  8
taper
  5
161
 10
40.5881
 20
11.6284
  0
VERTEX
  8
taper
  5
162
 10
40.5155
 20
11.5837
  0
VERTEX
  8
taper
  5
163
 10
40.4427
 20
11.5391
  0
VERTEX
  8
taper
  5
164
 10
40.3699
 20
11.4947
  0
VERTEX
  8
taper
  5
165
 10
40.2973
 20
11.4505
  0
VERTEX
  8
taper
  5
166
 10
40.2245
 20
11.4065
  0
VERTEX
  8
taper
  5
167
 10
40.1517
 20
11.3626
  0
VERTEX
  8
taper
  5
168
 10
40.079
 20
11.3189
  0
VERTEX
  8
taper
  5
169
 10
40.0063
 20
11.2754
  0
VERTEX
  8
taper
  5
16A
 10
39.9335
 20
11.232
  0
VERTEX
  8
taper
  5
16B
 10
39.8608
 20
11.1888
  0
VERTEX
  8
taper
  5
16C
 10
39.7881
 20
11.1458
  0
VERTEX
  8
taper
  5
16D
 10
39.7153
 20
11.1029
  0
VERTEX
  8
taper
  5
16E
 10
39.6426
 20
11.0602
  0
VERTEX
  8
taper
  5
16F
 10
39.5699
 20
11.0177
  0
VERTEX
  8
taper
  5
170
 10
39.4971
 20
10.9753
  0
VERTEX
  8
taper
  5
171
 10
39.4244
 20
10.9331
  0
VERTEX
  8
taper
  5
172
 10
39.3516
 20
10.8911
  0
VERTEX
  8
taper
  5
173
 10
39.2788
 20
10.8491
  0
VERTEX
  8
taper
  5
174
 10
39.2062
 20
10.8074
  0
VERTEX
  8
taper
  5
175
 10
39.1334
 20
10.7659
  0
VERTEX
  8
taper
  5
176
 10
39.0606
 20
10.7244
  0
VERTEX
  8
taper
  5
177
 10
38.988
 20
10.6832
  0
VERTEX
  8
taper
  5
178
 10
38.9152
 20
10.6421
  0
VERTEX
  8
taper
  5
179
 10
38.8424
 20
10.6012
  0
VERTEX
  8
taper
  5
17A
 10
38.7697
 20
10.5604
  0
VERTEX
  8
taper
  5
17B
 10
38.697
 20
10.5198
  0
VERTEX
  8
taper
  5
17C
 10
38.6242
 20
10.4793
  0
VERTEX
  8
taper
  5
17D
 10
38.5515
 20
10.439
  0
VERTEX
  8
taper
  5
17E
 10
38.4788
 20
10.3989
  0
VERTEX
  8
taper
  5
17F
 10
38.406
 20
10.3588
  0
VERTEX
  8
taper
  5
180
 10
38.3333
 20
10.319
  0
VERTEX
  8
taper
  5
181
 10
38.2606
 20
10.2793
  0
VERTEX
  8
taper
  5
182
 10
38.1878
 20
10.2397
  0
VERTEX
  8
taper
  5
183
 10
38.1151
 20
10.2004
  0
VERTEX
  8
taper
  5
184
 10
38.0423
 20
10.1611
  0
VERTEX
  8
taper
  5
185
 10
37.9695
 20
10.122
  0
VERTEX
  8
taper
  5
186
 10
37.8969
 20
10.0831
  0
VERTEX
  8
taper
  5
187
 10
37.8241
 20
10.0443
  0
VERTEX
  8
taper
  5
188
 10
37.7513
 20
10.0056
  0
VERTEX
  8
taper
  5
189
 10
37.6787
 20
9.9671
  0
VERTEX
  8
taper
  5
18A
 10
37.6059
 20
9.92873
  0
VERTEX
  8
taper
  5
18B
 10
37.5331
 20
9.89049
  0
VERTEX
  8
taper
  5
18C
 10
37.4604
 20
9.85245
  0
VERTEX
  8
taper
  5
18D
 10
37.3877
 20
9.81452
  0
VERTEX
  8
taper
  5
18E
 10
37.3149
 20
9.77671
  0
VERTEX
  8
taper
  5
18F
 10
37.2422
 20
9.73911
  0
VERTEX
  8
taper
  5
190
 10
37.1695
 20
9.70162
  0
VERTEX
  8
taper
  5
191
 10
37.0967
 20
9.66424
  0
VERTEX
  8
taper
  5
192
 10
37.024
 20
9.62707
  0
VERTEX
  8
taper
  5
193
 10
36.9513
 20
9.59001
  0
VERTEX
  8
taper
  5
194
 10
36.8785
 20
9.55306
  0
VERTEX
  8
taper
  5
195
 10
36.8058
 20
9.51631
  0
VERTEX
  8
taper
  5
196
 10
36.733
 20
9.47967
  0
VERTEX
  8
taper
  5
197
 10
36.6603
 20
9.44315
  0
VERTEX
  8
taper
  5
198
 10
36.5876
 20
9.40682
  0
VERTEX
  8
taper
  5
199
 10
36.5148
 20
9.37061
  0
VERTEX
  8
taper
  5
19A
 10
36.442
 20
9.3345
  0
VERTEX
  8
taper
  5
19B
 10
36.3694
 20
9.29859
  0
VERTEX
  8
taper
  5
19C
 10
36.2966
 20
9.26279
  0
VERTEX
  8
taper
  5
19D
 10
36.2238
 20
9.2271
  0
VERTEX
  8
taper
  5
19E
 10
36.1511
 20
9.19161
  0
VERTEX
  8
taper
  5
19F
 10
36.0784
 20
9.15622
  0
VERTEX
  8
taper
  5
1A0
 10
36.0056
 20
9.12094
  0
VERTEX
  8
taper
  5
1A1
 10
35.9329
 20
9.08585
  0
VERTEX
  8
taper
  5
1A2
 10
35.8602
 20
9.05087
  0
VERTEX
  8
taper
  5
1A3
 10
35.7874
 20
9.016
  0
VERTEX
  8
taper
  5
1A4
 10
35.7147
 20
8.98132
  0
VERTEX
  8
taper
  5
1A5
 10
35.642
 20
8.94674
  0
VERTEX
  8
taper
  5
1A6
 10
35.5692
 20
8.91227
  0
VERTEX
  8
taper
  5
1A7
 10
35.4965
 20
8.87799
  0
VERTEX
  8
taper
  5
1A8
 10
35.4237
 20
8.84381
  0
VERTEX
  8
taper
  5
1A9
 10
35.351
 20
8.80974
  0
VERTEX
  8
taper
  5
1AA
 10
35.2783
 20
8.77585
  0
VERTEX
  8
taper
  5
1AB
 10
35.2055
 20
8.74207
  0
VERTEX
  8
taper
  5
1AC
 10
35.1327
 20
8.7084
  0
VERTEX
  8
taper
  5
1AD
 10
35.0601
 20
8.6749
  0
VERTEX
  8
taper
  5
1AE
 10
34.9873
 20
8.64151
  0
VERTEX
  8
taper
  5
1AF
 10
34.9145
 20
8.60822
  0
VERTEX
  8
taper
  5
1B0
 10
34.8418
 20
8.57511
  0
VERTEX
  8
taper
  5
1B1
 10
34.7691
 20
8.54211
  0
VERTEX
  8
taper
  5
1B2
 10
34.6963
 20
8.50921
  0
VERTEX
  8
taper
  5
1B3
 10
34.6236
 20
8.47648
  0
VERTEX
  8
taper
  5
1B4
 10
34.5509
 20
8.44386
  0
VERTEX
  8
taper
  5
1B5
 10
34.4781
 20
8.41134
  0
VERTEX
  8
taper
  5
1B6
 10
34.4054
 20
8.37899
  0
VERTEX
  8
taper
  5
1B7
 10
34.3327
 20
8.34674
  0
VERTEX
  8
taper
  5
1B8
 10
34.2599
 20
8.3146
  0
VERTEX
  8
taper
  5
1B9
 10
34.1872
 20
8.28263
  0
VERTEX
  8
taper
  5
1BA
 10
34.1144
 20
8.25076
  0
VERTEX
  8
taper
  5
1BB
 10
34.0417
 20
8.21899
  0
VERTEX
  8
taper
  5
1BC
 10
33.969
 20
8.18738
  0
VERTEX
  8
taper
  5
1BD
 10
33.8962
 20
8.15588
  0
VERTEX
  8
taper
  5
1BE
 10
33.8234
 20
8.12448
  0
VERTEX
  8
taper
  5
1BF
 10
33.7508
 20
8.09324
  0
VERTEX
  8
taper
  5
1C0
 10
33.678
 20
8.0621
  0
VERTEX
  8
taper
  5
1C1
 10
33.6052
 20
8.03107
  0
VERTEX
  8
taper
  5
1C2
 10
33.5325
 20
8.00019
  0
VERTEX
  8
taper
  5
1C3
 10
33.4598
 20
7.96941
  0
VERTEX
  8
taper
  5
1C4
 10
33.387
 20
7.93874
  0
VERTEX
  8
taper
  5
1C5
 10
33.3143
 20
7.90822
  0
VERTEX
  8
taper
  5
1C6
 10
33.2416
 20
7.8778
  0
VERTEX
  8
taper
  5
1C7
 10
33.1688
 20
7.84748
  0
VERTEX
  8
taper
  5
1C8
 10
33.0961
 20
7.81731
  0
VERTEX
  8
taper
  5
1C9
 10
33.0234
 20
7.78724
  0
VERTEX
  8
taper
  5
1CA
 10
32.9506
 20
7.75727
  0
VERTEX
  8
taper
  5
1CB
 10
32.8779
 20
7.72745
  0
VERTEX
  8
taper
  5
1CC
 10
32.8051
 20
7.69773
  0
VERTEX
  8
taper
  5
1CD
 10
32.7324
 20
7.66811
  0
VERTEX
  8
taper
  5
1CE
 10
32.6597
 20
7.63864
  0
VERTEX
  8
taper
  5
1CF
 10
32.5869
 20
7.60926
  0
VERTEX
  8
taper
  5
1D0
 10
32.5142
 20
7.57998
  0
VERTEX
  8
taper
  5
1D1
 10
32.4415
 20
7.55085
  0
VERTEX
  8
taper
  5
1D2
 10
32.3687
 20
7.52181
  0
VERTEX
  8
taper
  5
1D3
 10
32.2959
 20
7.49287
  0
VERTEX
  8
taper
  5
1D4
 10
32.2232
 20
7.46407
  0
VERTEX
  8
taper
  5
1D5
 10
32.1505
 20
7.43537
  0
VERTEX
  8
taper
  5
1D6
 10
32.0777
 20
7.40676
  0
VERTEX
  8
taper
  5
1D7
 10
32.005
 20
7.3783
  0
VERTEX
  8
taper
  5
1D8
 10
31.9323
 20
7.34992
  0
VERTEX
  8
taper
  5
1D9
 10
31.8595
 20
7.32165
  0
VERTEX
  8
taper
  5
1DA
 10
31.7868
 20
7.29351
  0
VERTEX
  8
taper
  5
1DB
 10
31.7141
 20
7.26546
  0
VERTEX
  8
taper
  5
1DC
 10
31.6413
 20
7.23751
  0
VERTEX
  8
taper
  5
1DD
 10
31.5686
 20
7.20969
  0
VERTEX
  8
taper
  5
1DE
 10
31.4958
 20
7.18197
  0
VERTEX
  8
taper
  5
1DF
 10
31.4231
 20
7.15434
  0
VERTEX
  8
taper
  5
1E0
 10
31.3504
 20
7.12684
  0
VERTEX
  8
taper
  5
1E1
 10
31.2776
 20
7.09944
  0
VERTEX
  8
taper
  5
1E2
 10
31.2049
 20
7.07213
  0
VERTEX
  8
taper
  5
1E3
 10
31.1322
 20
7.04494
  0
VERTEX
  8
taper
  5
1E4
 10
31.0594
 20
7.01785
  0
VERTEX
  8
taper
  5
1E5
 10
30.9866
 20
6.99085
  0
VERTEX
  8
taper
  5
1E6
 10
30.9139
 20
6.96398
  0
VERTEX
  8
taper
  5
1E7
 10
30.8412
 20
6.9372
  0
VERTEX
  8
taper
  5
1E8
 10
30.7684
 20
6.9105
  0
VERTEX
  8
taper
  5
1E9
 10
30.6957
 20
6.88394
  0
VERTEX
  8
taper
  5
1EA
 10
30.623
 20
6.85746
  0
VERTEX
  8
taper
  5
1EB
 10
30.5502
 20
6.83107
  0
VERTEX
  8
taper
  5
1EC
 10
30.4775
 20
6.80481
  0
VERTEX
  8
taper
  5
1ED
 10
30.4048
 20
6.77863
  0
VERTEX
  8
taper
  5
1EE
 10
30.332
 20
6.75254
  0
VERTEX
  8
taper
  5
1EF
 10
30.2593
 20
6.72657
  0
VERTEX
  8
taper
  5
1F0
 10
30.1865
 20
6.70069
  0
VERTEX
  8
taper
  5
1F1
 10
30.1138
 20
6.6749
  0
VERTEX
  8
taper
  5
1F2
 10
30.0411
 20
6.64923
  0
VERTEX
  8
taper
  5
1F3
 10
29.9683
 20
6.62364
  0
VERTEX
  8
taper
  5
1F4
 10
29.8956
 20
6.59814
  0
VERTEX
  8
taper
  5
1F5
 10
29.8229
 20
6.57276
  0
VERTEX
  8
taper
  5
1F6
 10
29.7501
 20
6.54746
  0
VERTEX
  8
taper
  5
1F7
 10
29.6773
 20
6.52225
  0
VERTEX
  8
taper
  5
1F8
 10
29.6046
 20
6.49716
  0
VERTEX
  8
taper
  5
1F9
 10
29.5319
 20
6.47215
  0
VERTEX
  8
taper
  5
1FA
 10
29.4591
 20
6.44722
  0
VERTEX
  8
taper
  5
1FB
 10
29.3864
 20
6.42241
  0
VERTEX
  8
taper
  5
1FC
 10
29.3137
 20
6.39769
  0
VERTEX
  8
taper
  5
1FD
 10
29.2409
 20
6.37305
  0
VERTEX
  8
taper
  5
1FE
 10
29.1682
 20
6.34852
  0
VERTEX
  8
taper
  5
1FF
 10
29.0955
 20
6.32408
  0
VERTEX
  8
taper
  5
200
 10
29.0227
 20
6.29972
  0
VERTEX
  8
taper
  5
201
 10
28.95
 20
6.27548
  0
VERTEX
  8
taper
  5
202
 10
28.8772
 20
6.25132
  0
VERTEX
  8
taper
  5
203
 10
28.8045
 20
6.22724
  0
VERTEX
  8
taper
  5
204
 10
28.7318
 20
6.20327
  0
VERTEX
  8
taper
  5
205
 10
28.659
 20
6.17938
  0
VERTEX
  8
taper
  5
206
 10
28.5863
 20
6.15558
  0
VERTEX
  8
taper
  5
207
 10
28.5136
 20
6.13188
  0
VERTEX
  8
taper
  5
208
 10
28.4408
 20
6.10827
  0
VERTEX
  8
taper
  5
209
 10
28.3681
 20
6.08474
  0
VERTEX
  8
taper
  5
20A
 10
28.2953
 20
6.06132
  0
VERTEX
  8
taper
  5
20B
 10
28.2226
 20
6.03798
  0
VERTEX
  8
taper
  5
20C
 10
28.1498
 20
6.01472
  0
VERTEX
  8
taper
  5
20D
 10
28.0771
 20
5.99157
  0
VERTEX
  8
taper
  5
20E
 10
28.0044
 20
5.9685
  0
VERTEX
  8
taper
  5
20F
 10
27.9316
 20
5.9455
  0
VERTEX
  8
taper
  5
210
 10
27.8589
 20
5.92262
  0
VERTEX
  8
taper
  5
211
 10
27.7862
 20
5.89981
  0
VERTEX
  8
taper
  5
212
 10
27.7134
 20
5.87708
  0
VERTEX
  8
taper
  5
213
 10
27.6407
 20
5.85446
  0
VERTEX
  8
taper
  5
214
 10
27.568
 20
5.83192
  0
VERTEX
  8
taper
  5
215
 10
27.4952
 20
5.80945
  0
VERTEX
  8
taper
  5
216
 10
27.4225
 20
5.78709
  0
VERTEX
  8
taper
  5
217
 10
27.3497
 20
5.76481
  0
VERTEX
  8
taper
  5
218
 10
27.277
 20
5.7426
  0
VERTEX
  8
taper
  5
219
 10
27.2043
 20
5.7205
  0
VERTEX
  8
taper
  5
21A
 10
27.1315
 20
5.69847
  0
VERTEX
  8
taper
  5
21B
 10
27.0588
 20
5.67653
  0
VERTEX
  8
taper
  5
21C
 10
26.986
 20
5.65468
  0
VERTEX
  8
taper
  5
21D
 10
26.9133
 20
5.63291
  0
VERTEX
  8
taper
  5
21E
 10
26.8405
 20
5.61121
  0
VERTEX
  8
taper
  5
21F
 10
26.7678
 20
5.58962
  0
VERTEX
  8
taper
  5
220
 10
26.6951
 20
5.5681
  0
VERTEX
  8
taper
  5
221
 10
26.6223
 20
5.54665
  0
VERTEX
  8
taper
  5
222
 10
26.5496
 20
5.52531
  0
VERTEX
  8
taper
  5
223
 10
26.4769
 20
5.50404
  0
VERTEX
  8
taper
  5
224
 10
26.4041
 20
5.48285
  0
VERTEX
  8
taper
  5
225
 10
26.3314
 20
5.46175
  0
VERTEX
  8
taper
  5
226
 10
26.2587
 20
5.44072
  0
VERTEX
  8
taper
  5
227
 10
26.1859
 20
5.41978
  0
VERTEX
  8
taper
  5
228
 10
26.1132
 20
5.39892
  0
VERTEX
  8
taper
  5
229
 10
26.0404
 20
5.37814
  0
VERTEX
  8
taper
  5
22A
 10
25.9677
 20
5.35744
  0
VERTEX
  8
taper
  5
22B
 10
25.895
 20
5.33682
  0
VERTEX
  8
taper
  5
22C
 10
25.8222
 20
5.31629
  0
VERTEX
  8
taper
  5
22D
 10
25.7495
 20
5.29582
  0
VERTEX
  8
taper
  5
22E
 10
25.6767
 20
5.27545
  0
VERTEX
  8
taper
  5
22F
 10
25.604
 20
5.25515
  0
VERTEX
  8
taper
  5
230
 10
25.5312
 20
5.23492
  0
VERTEX
  8
taper
  5
231
 10
25.4585
 20
5.21478
  0
VERTEX
  8
taper
  5
232
 10
25.3858
 20
5.19472
  0
VERTEX
  8
taper
  5
233
 10
25.313
 20
5.17473
  0
VERTEX
  8
taper
  5
234
 10
25.2403
 20
5.15482
  0
VERTEX
  8
taper
  5
235
 10
25.1676
 20
5.13499
  0
VERTEX
  8
taper
  5
236
 10
25.0948
 20
5.11523
  0
VERTEX
  8
taper
  5
237
 10
25.0221
 20
5.09556
  0
VERTEX
  8
taper
  5
238
 10
24.9494
 20
5.07596
  0
VERTEX
  8
taper
  5
239
 10
24.8766
 20
5.05643
  0
VERTEX
  8
taper
  5
23A
 10
24.8039
 20
5.03698
  0
VERTEX
  8
taper
  5
23B
 10
24.7311
 20
5.01761
  0
VERTEX
  8
taper
  5
23C
 10
24.6584
 20
4.99831
  0
VERTEX
  8
taper
  5
23D
 10
24.5857
 20
4.97909
  0
VERTEX
  8
taper
  5
23E
 10
24.5129
 20
4.95994
  0
VERTEX
  8
taper
  5
23F
 10
24.4402
 20
4.94086
  0
VERTEX
  8
taper
  5
240
 10
24.3674
 20
4.92186
  0
VERTEX
  8
taper
  5
241
 10
24.2947
 20
4.90293
  0
VERTEX
  8
taper
  5
242
 10
24.222
 20
4.88408
  0
VERTEX
  8
taper
  5
243
 10
24.1492
 20
4.8653
  0
VERTEX
  8
taper
  5
244
 10
24.0765
 20
4.84659
  0
VERTEX
  8
taper
  5
245
 10
24.0037
 20
4.82795
  0
VERTEX
  8
taper
  5
246
 10
23.931
 20
4.80939
  0
VERTEX
  8
taper
  5
247
 10
23.8583
 20
4.7909
  0
VERTEX
  8
taper
  5
248
 10
23.7855
 20
4.77247
  0
VERTEX
  8
taper
  5
249
 10
23.7128
 20
4.75413
  0
VERTEX
  8
taper
  5
24A
 10
23.6401
 20
4.73585
  0
VERTEX
  8
taper
  5
24B
 10
23.5673
 20
4.71764
  0
VERTEX
  8
taper
  5
24C
 10
23.4946
 20
4.69951
  0
VERTEX
  8
taper
  5
24D
 10
23.4218
 20
4.68144
  0
VERTEX
  8
taper
  5
24E
 10
23.3491
 20
4.66344
  0
VERTEX
  8
taper
  5
24F
 10
23.2764
 20
4.64551
  0
VERTEX
  8
taper
  5
250
 10
23.2036
 20
4.62765
  0
VERTEX
  8
taper
  5
251
 10
23.1309
 20
4.60986
  0
VERTEX
  8
taper
  5
252
 10
23.0581
 20
4.59214
  0
VERTEX
  8
taper
  5
253
 10
22.9854
 20
4.57449
  0
VERTEX
  8
taper
  5
254
 10
22.9127
 20
4.5569
  0
VERTEX
  8
taper
  5
255
 10
22.8399
 20
4.53938
  0
VERTEX
  8
taper
  5
256
 10
22.7672
 20
4.52193
  0
VERTEX
  8
taper
  5
257
 10
22.6944
 20
4.50455
  0
VERTEX
  8
taper
  5
258
 10
22.6217
 20
4.48723
  0
VERTEX
  8
taper
  5
259
 10
22.549
 20
4.46998
  0
VERTEX
  8
taper
  5
25A
 10
22.4762
 20
4.45279
  0
VERTEX
  8
taper
  5
25B
 10
22.4035
 20
4.43568
  0
VERTEX
  8
taper
  5
25C
 10
22.3308
 20
4.41862
  0
VERTEX
  8
taper
  5
25D
 10
22.258
 20
4.40163
  0
VERTEX
  8
taper
  5
25E
 10
22.1853
 20
4.38471
  0
VERTEX
  8
taper
  5
25F
 10
22.1125
 20
4.36785
  0
VERTEX
  8
taper
  5
260
 10
22.0398
 20
4.35105
  0
VERTEX
  8
taper
  5
261
 10
21.9671
 20
4.33433
  0
VERTEX
  8
taper
  5
262
 10
21.8943
 20
4.31766
  0
VERTEX
  8
taper
  5
263
 10
21.8216
 20
4.30105
  0
VERTEX
  8
taper
  5
264
 10
21.7489
 20
4.28451
  0
VERTEX
  8
taper
  5
265
 10
21.6761
 20
4.26804
  0
VERTEX
  8
taper
  5
266
 10
21.6034
 20
4.25162
  0
VERTEX
  8
taper
  5
267
 10
21.5306
 20
4.23527
  0
VERTEX
  8
taper
  5
268
 10
21.4579
 20
4.21897
  0
VERTEX
  8
taper
  5
269
 10
21.3851
 20
4.20274
  0
VERTEX
  8
taper
  5
26A
 10
21.3124
 20
4.18657
  0
VERTEX
  8
taper
  5
26B
 10
21.2397
 20
4.17046
  0
VERTEX
  8
taper
  5
26C
 10
21.1669
 20
4.15441
  0
VERTEX
  8
taper
  5
26D
 10
21.0942
 20
4.13843
  0
VERTEX
  8
taper
  5
26E
 10
21.0215
 20
4.1225
  0
VERTEX
  8
taper
  5
26F
 10
20.9487
 20
4.10663
  0
VERTEX
  8
taper
  5
270
 10
20.876
 20
4.09083
  0
VERTEX
  8
taper
  5
271
 10
20.8032
 20
4.07508
  0
VERTEX
  8
taper
  5
272
 10
20.7305
 20
4.05939
  0
VERTEX
  8
taper
  5
273
 10
20.6578
 20
4.04377
  0
VERTEX
  8
taper
  5
274
 10
20.585
 20
4.0282
  0
VERTEX
  8
taper
  5
275
 10
20.5123
 20
4.01269
  0
VERTEX
  8
taper
  5
276
 10
20.4396
 20
3.99724
  0
VERTEX
  8
taper
  5
277
 10
20.3668
 20
3.98185
  0
VERTEX
  8
taper
  5
278
 10
20.2941
 20
3.96652
  0
VERTEX
  8
taper
  5
279
 10
20.2213
 20
3.95125
  0
VERTEX
  8
taper
  5
27A
 10
20.1486
 20
3.93603
  0
VERTEX
  8
taper
  5
27B
 10
20.0759
 20
3.92087
  0
VERTEX
  8
taper
  5
27C
 10
20.0031
 20
3.90577
  0
VERTEX
  8
taper
  5
27D
 10
19.9304
 20
3.89073
  0
VERTEX
  8
taper
  5
27E
 10
19.8576
 20
3.87575
  0
VERTEX
  8
taper
  5
27F
 10
19.7849
 20
3.86082
  0
VERTEX
  8
taper
  5
280
 10
19.7122
 20
3.84595
  0
VERTEX
  8
taper
  5
281
 10
19.6394
 20
3.83114
  0
VERTEX
  8
taper
  5
282
 10
19.5667
 20
3.81638
  0
VERTEX
  8
taper
  5
283
 10
19.494
 20
3.80168
  0
VERTEX
  8
taper
  5
284
 10
19.4212
 20
3.78704
  0
VERTEX
  8
taper
  5
285
 10
19.3485
 20
3.77245
  0
VERTEX
  8
taper
  5
286
 10
19.2757
 20
3.75792
  0
VERTEX
  8
taper
  5
287
 10
19.203
 20
3.74344
  0
VERTEX
  8
taper
  5
288
 10
19.1303
 20
3.72903
  0
VERTEX
  8
taper
  5
289
 10
19.0575
 20
3.71466
  0
VERTEX
  8
taper
  5
28A
 10
18.9848
 20
3.70035
  0
VERTEX
  8
taper
  5
28B
 10
18.912
 20
3.6861
  0
VERTEX
  8
taper
  5
28C
 10
18.8393
 20
3.6719
  0
VERTEX
  8
taper
  5
28D
 10
18.7666
 20
3.65775
  0
VERTEX
  8
taper
  5
28E
 10
18.6938
 20
3.64367
  0
VERTEX
  8
taper
  5
28F
 10
18.6211
 20
3.62963
  0
VERTEX
  8
taper
  5
290
 10
18.5483
 20
3.61565
  0
VERTEX
  8
taper
  5
291
 10
18.4756
 20
3.60172
  0
VERTEX
  8
taper
  5
292
 10
18.4029
 20
3.58785
  0
VERTEX
  8
taper
  5
293
 10
18.3301
 20
3.57403
  0
VERTEX
  8
taper
  5
294
 10
18.2574
 20
3.56026
  0
VERTEX
  8
taper
  5
295
 10
18.1847
 20
3.54655
  0
VERTEX
  8
taper
  5
296
 10
18.1119
 20
3.53289
  0
VERTEX
  8
taper
  5
297
 10
18.0392
 20
3.51928
  0
VERTEX
  8
taper
  5
298
 10
17.9664
 20
3.50573
  0
VERTEX
  8
taper
  5
299
 10
17.8937
 20
3.49222
  0
VERTEX
  8
taper
  5
29A
 10
17.821
 20
3.47878
  0
VERTEX
  8
taper
  5
29B
 10
17.7482
 20
3.46538
  0
VERTEX
  8
taper
  5
29C
 10
17.6755
 20
3.45203
  0
VERTEX
  8
taper
  5
29D
 10
17.6027
 20
3.43874
  0
VERTEX
  8
taper
  5
29E
 10
17.53
 20
3.4255
  0
VERTEX
  8
taper
  5
29F
 10
17.4573
 20
3.4123
  0
VERTEX
  8
taper
  5
2A0
 10
17.3845
 20
3.39917
  0
VERTEX
  8
taper
  5
2A1
 10
17.3118
 20
3.38608
  0
VERTEX
  8
taper
  5
2A2
 10
17.239
 20
3.37304
  0
VERTEX
  8
taper
  5
2A3
 10
17.1663
 20
3.36005
  0
VERTEX
  8
taper
  5
2A4
 10
17.0936
 20
3.34712
  0
VERTEX
  8
taper
  5
2A5
 10
17.0208
 20
3.33423
  0
VERTEX
  8
taper
  5
2A6
 10
16.9481
 20
3.32139
  0
VERTEX
  8
taper
  5
2A7
 10
16.8754
 20
3.30861
  0
VERTEX
  8
taper
  5
2A8
 10
16.8026
 20
3.29587
  0
VERTEX
  8
taper
  5
2A9
 10
16.7299
 20
3.28318
  0
VERTEX
  8
taper
  5
2AA
 10
16.6571
 20
3.27054
  0
VERTEX
  8
taper
  5
2AB
 10
16.5844
 20
3.25795
  0
VERTEX
  8
taper
  5
2AC
 10
16.5117
 20
3.24542
  0
VERTEX
  8
taper
  5
2AD
 10
16.4389
 20
3.23293
  0
VERTEX
  8
taper
  5
2AE
 10
16.3662
 20
3.22048
  0
VERTEX
  8
taper
  5
2AF
 10
16.2935
 20
3.20809
  0
VERTEX
  8
taper
  5
2B0
 10
16.2207
 20
3.19574
  0
VERTEX
  8
taper
  5
2B1
 10
16.148
 20
3.18344
  0
VERTEX
  8
taper
  5
2B2
 10
16.0752
 20
3.1712
  0
VERTEX
  8
taper
  5
2B3
 10
16.0025
 20
3.15899
  0
VERTEX
  8
taper
  5
2B4
 10
15.9298
 20
3.14684
  0
VERTEX
  8
taper
  5
2B5
 10
15.857
 20
3.13473
  0
VERTEX
  8
taper
  5
2B6
 10
15.7843
 20
3.12267
  0
VERTEX
  8
taper
  5
2B7
 10
15.7115
 20
3.11066
  0
VERTEX
  8
taper
  5
2B8
 10
15.6388
 20
3.09869
  0
VERTEX
  8
taper
  5
2B9
 10
15.5661
 20
3.08677
  0
VERTEX
  8
taper
  5
2BA
 10
15.4933
 20
3.0749
  0
VERTEX
  8
taper
  5
2BB
 10
15.4206
 20
3.06307
  0
VERTEX
  8
taper
  5
2BC
 10
15.3479
 20
3.05129
  0
VERTEX
  8
taper
  5
2BD
 10
15.2751
 20
3.03956
  0
VERTEX
  8
taper
  5
2BE
 10
15.2024
 20
3.02787
  0
VERTEX
  8
taper
  5
2BF
 10
15.1296
 20
3.01622
  0
VERTEX
  8
taper
  5
2C0
 10
15.0569
 20
3.00462
  0
VERTEX
  8
taper
  5
2C1
 10
14.9842
 20
2.99307
  0
VERTEX
  8
taper
  5
2C2
 10
14.9114
 20
2.98156
  0
VERTEX
  8
taper
  5
2C3
 10
14.8387
 20
2.9701
  0
VERTEX
  8
taper
  5
2C4
 10
14.7659
 20
2.95868
  0
VERTEX
  8
taper
  5
2C5
 10
14.6932
 20
2.9473
  0
VERTEX
  8
taper
  5
2C6
 10
14.6205
 20
2.93597
  0
VERTEX
  8
taper
  5
2C7
 10
14.5477
 20
2.92468
  0
VERTEX
  8
taper
  5
2C8
 10
14.475
 20
2.91344
  0
VERTEX
  8
taper
  5
2C9
 10
14.4022
 20
2.90224
  0
VERTEX
  8
taper
  5
2CA
 10
14.3295
 20
2.89108
  0
VERTEX
  8
taper
  5
2CB
 10
14.2568
 20
2.87997
  0
VERTEX
  8
taper
  5
2CC
 10
14.184
 20
2.8689
  0
VERTEX
  8
taper
  5
2CD
 10
14.1113
 20
2.85787
  0
VERTEX
  8
taper
  5
2CE
 10
14.0386
 20
2.84689
  0
VERTEX
  8
taper
  5
2CF
 10
13.9658
 20
2.83595
  0
VERTEX
  8
taper
  5
2D0
 10
13.8931
 20
2.82505
  0
VERTEX
  8
taper
  5
2D1
 10
13.8203
 20
2.81419
  0
VERTEX
  8
taper
  5
2D2
 10
13.7476
 20
2.80338
  0
VERTEX
  8
taper
  5
2D3
 10
13.6749
 20
2.7926
  0
VERTEX
  8
taper
  5
2D4
 10
13.6021
 20
2.78187
  0
VERTEX
  8
taper
  5
2D5
 10
13.5294
 20
2.77118
  0
VERTEX
  8
taper
  5
2D6
 10
13.4566
 20
2.76053
  0
VERTEX
  8
taper
  5
2D7
 10
13.3839
 20
2.74992
  0
VERTEX
  8
taper
  5
2D8
 10
13.3112
 20
2.73935
  0
VERTEX
  8
taper
  5
2D9
 10
13.2384
 20
2.72883
  0
VERTEX
  8
taper
  5
2DA
 10
13.1657
 20
2.71834
  0
VERTEX
  8
taper
  5
2DB
 10
13.0929
 20
2.70789
  0
VERTEX
  8
taper
  5
2DC
 10
13.0202
 20
2.69749
  0
VERTEX
  8
taper
  5
2DD
 10
12.9475
 20
2.68712
  0
VERTEX
  8
taper
  5
2DE
 10
12.8747
 20
2.67679
  0
VERTEX
  8
taper
  5
2DF
 10
12.802
 20
2.66651
  0
VERTEX
  8
taper
  5
2E0
 10
12.7293
 20
2.65626
  0
VERTEX
  8
taper
  5
2E1
 10
12.6565
 20
2.64605
  0
VERTEX
  8
taper
  5
2E2
 10
12.5838
 20
2.63588
  0
VERTEX
  8
taper
  5
2E3
 10
12.511
 20
2.62575
  0
VERTEX
  8
taper
  5
2E4
 10
12.4383
 20
2.61566
  0
VERTEX
  8
taper
  5
2E5
 10
12.3656
 20
2.60561
  0
VERTEX
  8
taper
  5
2E6
 10
12.2928
 20
2.59559
  0
VERTEX
  8
taper
  5
2E7
 10
12.2201
 20
2.58561
  0
VERTEX
  8
taper
  5
2E8
 10
12.1473
 20
2.57567
  0
VERTEX
  8
taper
  5
2E9
 10
12.0746
 20
2.56577
  0
VERTEX
  8
taper
  5
2EA
 10
12.0019
 20
2.55591
  0
VERTEX
  8
taper
  5
2EB
 10
11.9291
 20
2.54608
  0
VERTEX
  8
taper
  5
2EC
 10
11.8564
 20
2.53629
  0
VERTEX
  8
taper
  5
2ED
 10
11.7837
 20
2.52654
  0
VERTEX
  8
taper
  5
2EE
 10
11.7109
 20
2.51682
  0
VERTEX
  8
taper
  5
2EF
 10
11.6382
 20
2.50714
  0
VERTEX
  8
taper
  5
2F0
 10
11.5654
 20
2.4975
  0
VERTEX
  8
taper
  5
2F1
 10
11.4927
 20
2.48789
  0
VERTEX
  8
taper
  5
2F2
 10
11.42
 20
2.47832
  0
VERTEX
  8
taper
  5
2F3
 10
11.3472
 20
2.46879
  0
VERTEX
  8
taper
  5
2F4
 10
11.2745
 20
2.45929
  0
VERTEX
  8
taper
  5
2F5
 10
11.2017
 20
2.44982
  0
VERTEX
  8
taper
  5
2F6
 10
11.129
 20
2.4404
  0
VERTEX
  8
taper
  5
2F7
 10
11.0563
 20
2.431
  0
VERTEX
  8
taper
  5
2F8
 10
10.9835
 20
2.42165
  0
VERTEX
  8
taper
  5
2F9
 10
10.9108
 20
2.41232
  0
VERTEX
  8
taper
  5
2FA
 10
10.8381
 20
2.40304
  0
VERTEX
  8
taper
  5
2FB
 10
10.7653
 20
2.39379
  0
VERTEX
  8
taper
  5
2FC
 10
10.6926
 20
2.38457
  0
VERTEX
  8
taper
  5
2FD
 10
10.6198
 20
2.37539
  0
VERTEX
  8
taper
  5
2FE
 10
10.5471
 20
2.36624
  0
VERTEX
  8
taper
  5
2FF
 10
10.4744
 20
2.35713
  0
VERTEX
  8
taper
  5
300
 10
10.4016
 20
2.34805
  0
VERTEX
  8
taper
  5
301
 10
10.3289
 20
2.33901
  0
VERTEX
  8
taper
  5
302
 10
10.2561
 20
2.33
  0
VERTEX
  8
taper
  5
303
 10
10.1834
 20
2.32102
  0
VERTEX
  8
taper
  5
304
 10
10.1107
 20
2.31208
  0
VERTEX
  8
taper
  5
305
 10
10.0379
 20
2.30318
  0
VERTEX
  8
taper
  5
306
 10
9.96519
 20
2.2943
  0
VERTEX
  8
taper
  5
307
 10
9.89245
 20
2.28546
  0
VERTEX
  8
taper
  5
308
 10
9.81971
 20
2.27666
  0
VERTEX
  8
taper
  5
309
 10
9.74698
 20
2.26789
  0
VERTEX
  8
taper
  5
30A
 10
9.67424
 20
2.25915
  0
VERTEX
  8
taper
  5
30B
 10
9.60149
 20
2.25044
  0
VERTEX
  8
taper
  5
30C
 10
9.52876
 20
2.24177
  0
VERTEX
  8
taper
  5
30D
 10
9.45602
 20
2.23313
  0
VERTEX
  8
taper
  5
30E
 10
9.38328
 20
2.22453
  0
VERTEX
  8
taper
  5
30F
 10
9.31054
 20
2.21596
  0
VERTEX
  8
taper
  5
310
 10
9.2378
 20
2.20742
  0
VERTEX
  8
taper
  5
311
 10
9.16506
 20
2.19891
  0
VERTEX
  8
taper
  5
312
 10
9.09233
 20
2.19044
  0
VERTEX
  8
taper
  5
313
 10
9.01959
 20
2.18199
  0
VERTEX
  8
taper
  5
314
 10
8.94685
 20
2.17358
  0
VERTEX
  8
taper
  5
315
 10
8.87411
 20
2.16521
  0
VERTEX
  8
taper
  5
316
 10
8.80137
 20
2.15686
  0
VERTEX
  8
taper
  5
317
 10
8.72863
 20
2.14855
  0
VERTEX
  8
taper
  5
318
 10
8.6559
 20
2.14027
  0
VERTEX
  8
taper
  5
319
 10
8.58316
 20
2.13202
  0
VERTEX
  8
taper
  5
31A
 10
8.51042
 20
2.1238
  0
VERTEX
  8
taper
  5
31B
 10
8.43768
 20
2.11562
  0
VERTEX
  8
taper
  5
31C
 10
8.36494
 20
2.10747
  0
VERTEX
  8
taper
  5
31D
 10
8.2922
 20
2.09934
  0
VERTEX
  8
taper
  5
31E
 10
8.21946
 20
2.09125
  0
VERTEX
  8
taper
  5
31F
 10
8.14673
 20
2.08319
  0
VERTEX
  8
taper
  5
320
 10
8.07398
 20
2.07517
  0
VERTEX
  8
taper
  5
321
 10
8.00125
 20
2.06717
  0
VERTEX
  8
taper
  5
322
 10
7.92851
 20
2.0592
  0
VERTEX
  8
taper
  5
323
 10
7.85577
 20
2.05127
  0
VERTEX
  8
taper
  5
324
 10
7.78303
 20
2.04336
  0
VERTEX
  8
taper
  5
325
 10
7.71029
 20
2.03549
  0
VERTEX
  8
taper
  5
326
 10
7.63755
 20
2.02764
  0
VERTEX
  8
taper
  5
327
 10
7.56482
 20
2.01983
  0
VERTEX
  8
taper
  5
328
 10
7.49208
 20
2.01205
  0
VERTEX
  8
taper
  5
329
 10
7.41934
 20
2.0043
  0
VERTEX
  8
taper
  5
32A
 10
7.3466
 20
1.99657
  0
VERTEX
  8
taper
  5
32B
 10
7.27386
 20
1.98888
  0
VERTEX
  8
taper
  5
32C
 10
7.20112
 20
1.98122
  0
VERTEX
  8
taper
  5
32D
 10
7.12839
 20
1.97358
  0
VERTEX
  8
taper
  5
32E
 10
7.05565
 20
1.96598
  0
VERTEX
  8
taper
  5
32F
 10
6.9829
 20
1.95841
  0
VERTEX
  8
taper
  5
330
 10
6.91017
 20
1.95086
  0
VERTEX
  8
taper
  5
331
 10
6.83743
 20
1.94335
  0
VERTEX
  8
taper
  5
332
 10
6.76469
 20
1.93586
  0
VERTEX
  8
taper
  5
333
 10
6.69195
 20
1.92841
  0
VERTEX
  8
taper
  5
334
 10
6.61921
 20
1.92098
  0
VERTEX
  8
taper
  5
335
 10
6.54647
 20
1.91358
  0
VERTEX
  8
taper
  5
336
 10
6.47374
 20
1.90621
  0
VERTEX
  8
taper
  5
337
 10
6.401
 20
1.89887
  0
VERTEX
  8
taper
  5
338
 10
6.32826
 20
1.89156
  0
VERTEX
  8
taper
  5
339
 10
6.25552
 20
1.88428
  0
VERTEX
  8
taper
  5
33A
 10
6.18278
 20
1.87702
  0
VERTEX
  8
taper
  5
33B
 10
6.11004
 20
1.86979
  0
VERTEX
  8
taper
  5
33C
 10
6.03731
 20
1.8626
  0
VERTEX
  8
taper
  5
33D
 10
5.96457
 20
1.85542
  0
VERTEX
  8
taper
  5
33E
 10
5.89183
 20
1.84828
  0
VERTEX
  8
taper
  5
33F
 10
5.81909
 20
1.84117
  0
VERTEX
  8
taper
  5
340
 10
5.74635
 20
1.83408
  0
VERTEX
  8
taper
  5
341
 10
5.67361
 20
1.82702
  0
VERTEX
  8
taper
  5
342
 10
5.60087
 20
1.81999
  0
VERTEX
  8
taper
  5
343
 10
5.52814
 20
1.81299
  0
VERTEX
  8
taper
  5
344
 10
5.45539
 20
1.80601
  0
VERTEX
  8
taper
  5
345
 10
5.38266
 20
1.79906
  0
VERTEX
  8
taper
  5
346
 10
5.30992
 20
1.79214
  0
VERTEX
  8
taper
  5
347
 10
5.23718
 20
1.78524
  0
VERTEX
  8
taper
  5
348
 10
5.16444
 20
1.77837
  0
VERTEX
  8
taper
  5
349
 10
5.0917
 20
1.77153
  0
VERTEX
  8
taper
  5
34A
 10
5.01896
 20
1.76472
  0
VERTEX
  8
taper
  5
34B
 10
4.94623
 20
1.75793
  0
VERTEX
  8
taper
  5
34C
 10
4.87349
 20
1.75117
  0
VERTEX
  8
taper
  5
34D
 10
4.80075
 20
1.74443
  0
VERTEX
  8
taper
  5
34E
 10
4.72801
 20
1.73772
  0
VERTEX
  8
taper
  5
34F
 10
4.65527
 20
1.73104
  0
VERTEX
  8
taper
  5
350
 10
4.58253
 20
1.72438
  0
VERTEX
  8
taper
  5
351
 10
4.5098
 20
1.71775
  0
VERTEX
  8
taper
  5
352
 10
4.43706
 20
1.71115
  0
VERTEX
  8
taper
  5
353
 10
4.36432
 20
1.70457
  0
VERTEX
  8
taper
  5
354
 10
4.29158
 20
1.69801
  0
VERTEX
  8
taper
  5
355
 10
4.21884
 20
1.69149
  0
VERTEX
  8
taper
  5
356
 10
4.1461
 20
1.68498
  0
VERTEX
  8
taper
  5
357
 10
4.07336
 20
1.67851
  0
VERTEX
  8
taper
  5
358
 10
4.00062
 20
1.67205
  0
VERTEX
  8
taper
  5
359
 10
3.92788
 20
1.66563
  0
VERTEX
  8
taper
  5
35A
 10
3.85515
 20
1.65923
  0
VERTEX
  8
taper
  5
35B
 10
3.78241
 20
1.65285
  0
VERTEX
  8
taper
  5
35C
 10
3.70967
 20
1.6465
  0
VERTEX
  8
taper
  5
35D
 10
3.63693
 20
1.64017
  0
VERTEX
  8
taper
  5
35E
 10
3.56419
 20
1.63387
  0
VERTEX
  8
taper
  5
35F
 10
3.49145
 20
1.62759
  0
VERTEX
  8
taper
  5
360
 10
3.41872
 20
1.62134
  0
VERTEX
  8
taper
  5
361
 10
3.34598
 20
1.61511
  0
VERTEX
  8
taper
  5
362
 10
3.27324
 20
1.6089
  0
VERTEX
  8
taper
  5
363
 10
3.2005
 20
1.60272
  0
VERTEX
  8
taper
  5
364
 10
3.12776
 20
1.59656
  0
VERTEX
  8
taper
  5
365
 10
3.05502
 20
1.59043
  0
VERTEX
  8
taper
  5
366
 10
2.98228
 20
1.58432
  0
VERTEX
  8
taper
  5
367
 10
2.90955
 20
1.57824
  0
VERTEX
  8
taper
  5
368
 10
2.83681
 20
1.57217
  0
VERTEX
  8
taper
  5
369
 10
2.76407
 20
1.56614
  0
VERTEX
  8
taper
  5
36A
 10
2.69133
 20
1.56012
  0
VERTEX
  8
taper
  5
36B
 10
2.61859
 20
1.55413
  0
VERTEX
  8
taper
  5
36C
 10
2.54585
 20
1.54816
  0
VERTEX
  8
taper
  5
36D
 10
2.47311
 20
1.54221
  0
VERTEX
  8
taper
  5
36E
 10
2.40037
 20
1.53629
  0
VERTEX
  8
taper
  5
36F
 10
2.32764
 20
1.53039
  0
VERTEX
  8
taper
  5
370
 10
2.2549
 20
1.52451
  0
VERTEX
  8
taper
  5
371
 10
2.18216
 20
1.51866
  0
VERTEX
  8
taper
  5
372
 10
2.10942
 20
1.51282
  0
VERTEX
  8
taper
  5
373
 10
2.03668
 20
1.50701
  0
VERTEX
  8
taper
  5
374
 10
1.96394
 20
1.50123
  0
VERTEX
  8
taper
  5
375
 10
1.89121
 20
1.49546
  0
VERTEX
  8
taper
  5
376
 10
1.81847
 20
1.48972
  0
VERTEX
  8
taper
  5
377
 10
1.74573
 20
1.484
  0
VERTEX
  8
taper
  5
378
 10
1.67299
 20
1.4783
  0
VERTEX
  8
taper
  5
379
 10
1.60025
 20
1.47262
  0
VERTEX
  8
taper
  5
37A
 10
1.52751
 20
1.46696
  0
VERTEX
  8
taper
  5
37B
 10
1.45477
 20
1.46133
  0
VERTEX
  8
taper
  5
37C
 10
1.38203
 20
1.45572
  0
VERTEX
  8
taper
  5
37D
 10
1.30929
 20
1.45012
  0
VERTEX
  8
taper
  5
37E
 10
1.23656
 20
1.44455
  0
VERTEX
  8
taper
  5
37F
 10
1.16382
 20
1.439
  0
VERTEX
  8
taper
  5
380
 10
1.09108
 20
1.43347
  0
VERTEX
  8
taper
  5
381
 10
1.01834
 20
1.42797
  0
VERTEX
  8
taper
  5
382
 10
0.945603
 20
1.42248
  0
VERTEX
  8
taper
  5
383
 10
0.872863
 20
1.41701
  0
VERTEX
  8
taper
  5
384
 10
0.800126
 20
1.41157
  0
VERTEX
  8
taper
  5
385
 10
0.727387
 20
1.40614
  0
VERTEX
  8
taper
  5
386
 10
0.654647
 20
1.40074
  0
VERTEX
  8
taper
  5
387
 10
0.58191
 20
1.39536
  0
VERTEX
  8
taper
  5
388
 10
0.509172
 20
1.38999
  0
VERTEX
  8
taper
  5
389
 10
0.436432
 20
1.38465
  0
VERTEX
  8
taper
  5
38A
 10
0.363694
 20
1.37932
  0
VERTEX
  8
taper
  5
38B
 10
0.290956
 20
1.37402
  0
VERTEX
  8
taper
  5
38C
 10
0.218216
 20
1.36874
  0
VERTEX
  8
taper
  5
38D
 10
0.145479
 20
1.36347
  0
VERTEX
  8
taper
  5
38E
 10
0.07274
 20
1.35823
  0
VERTEX
  8
taper
  5
38F
 10
0.0
 20
1.353
  0
VERTEX
  8
taper
  5
390
 10
-49.239
 20
1.353
  0
VERTEX
  8
taper
  5
391
 10
-49.239
 20
-1.353
  0
VERTEX
  8
taper
  5
392
 10
0.0
 20
-1.353
  0
VERTEX
  8
taper
  5
393
 10
0.07274
 20
-1.35823
  0
VERTEX
  8
taper
  5
394
 10
0.145479
 20
-1.36347
  0
VERTEX
  8
taper
  5
395
 10
0.218216
 20
-1.36874
  0
VERTEX
  8
taper
  5
396
 10
0.290956
 20
-1.37402
  0
VERTEX
  8
taper
  5
397
 10
0.363694
 20
-1.37932
  0
VERTEX
  8
taper
  5
398
 10
0.436432
 20
-1.38465
  0
VERTEX
  8
taper
  5
399
 10
0.509172
 20
-1.38999
  0
VERTEX
  8
taper
  5
39A
 10
0.58191
 20
-1.39536
  0
VERTEX
  8
taper
  5
39B
 10
0.654647
 20
-1.40074
  0
VERTEX
  8
taper
  5
39C
 10
0.727387
 20
-1.40614
  0
VERTEX
  8
taper
  5
39D
 10
0.800126
 20
-1.41157
  0
VERTEX
  8
taper
  5
39E
 10
0.872863
 20
-1.41701
  0
VERTEX
  8
taper
  5
39F
 10
0.945603
 20
-1.42248
  0
VERTEX
  8
taper
  5
3A0
 10
1.01834
 20
-1.42797
  0
VERTEX
  8
taper
  5
3A1
 10
1.09108
 20
-1.43347
  0
VERTEX
  8
taper
  5
3A2
 10
1.16382
 20
-1.439
  0
VERTEX
  8
taper
  5
3A3
 10
1.23656
 20
-1.44455
  0
VERTEX
  8
taper
  5
3A4
 10
1.30929
 20
-1.45012
  0
VERTEX
  8
taper
  5
3A5
 10
1.38203
 20
-1.45572
  0
VERTEX
  8
taper
  5
3A6
 10
1.45477
 20
-1.46133
  0
VERTEX
  8
taper
  5
3A7
 10
1.52751
 20
-1.46696
  0
VERTEX
  8
taper
  5
3A8
 10
1.60025
 20
-1.47262
  0
VERTEX
  8
taper
  5
3A9
 10
1.67299
 20
-1.4783
  0
VERTEX
  8
taper
  5
3AA
 10
1.74573
 20
-1.484
  0
VERTEX
  8
taper
  5
3AB
 10
1.81847
 20
-1.48972
  0
VERTEX
  8
taper
  5
3AC
 10
1.89121
 20
-1.49546
  0
VERTEX
  8
taper
  5
3AD
 10
1.96394
 20
-1.50123
  0
VERTEX
  8
taper
  5
3AE
 10
2.03668
 20
-1.50701
  0
VERTEX
  8
taper
  5
3AF
 10
2.10942
 20
-1.51282
  0
VERTEX
  8
taper
  5
3B0
 10
2.18216
 20
-1.51866
  0
VERTEX
  8
taper
  5
3B1
 10
2.2549
 20
-1.52451
  0
VERTEX
  8
taper
  5
3B2
 10
2.32764
 20
-1.53039
  0
VERTEX
  8
taper
  5
3B3
 10
2.40037
 20
-1.53629
  0
VERTEX
  8
taper
  5
3B4
 10
2.47311
 20
-1.54221
  0
VERTEX
  8
taper
  5
3B5
 10
2.54585
 20
-1.54816
  0
VERTEX
  8
taper
  5
3B6
 10
2.61859
 20
-1.55413
  0
VERTEX
  8
taper
  5
3B7
 10
2.69133
 20
-1.56012
  0
VERTEX
  8
taper
  5
3B8
 10
2.76407
 20
-1.56614
  0
VERTEX
  8
taper
  5
3B9
 10
2.83681
 20
-1.57217
  0
VERTEX
  8
taper
  5
3BA
 10
2.90955
 20
-1.57824
  0
VERTEX
  8
taper
  5
3BB
 10
2.98228
 20
-1.58432
  0
VERTEX
  8
taper
  5
3BC
 10
3.05502
 20
-1.59043
  0
VERTEX
  8
taper
  5
3BD
 10
3.12776
 20
-1.59656
  0
VERTEX
  8
taper
  5
3BE
 10
3.2005
 20
-1.60272
  0
VERTEX
  8
taper
  5
3BF
 10
3.27324
 20
-1.6089
  0
VERTEX
  8
taper
  5
3C0
 10
3.34598
 20
-1.61511
  0
VERTEX
  8
taper
  5
3C1
 10
3.41872
 20
-1.62134
  0
VERTEX
  8
taper
  5
3C2
 10
3.49145
 20
-1.62759
  0
VERTEX
  8
taper
  5
3C3
 10
3.56419
 20
-1.63387
  0
VERTEX
  8
taper
  5
3C4
 10
3.63693
 20
-1.64017
  0
VERTEX
  8
taper
  5
3C5
 10
3.70967
 20
-1.6465
  0
VERTEX
  8
taper
  5
3C6
 10
3.78241
 20
-1.65285
  0
VERTEX
  8
taper
  5
3C7
 10
3.85515
 20
-1.65923
  0
VERTEX
  8
taper
  5
3C8
 10
3.92788
 20
-1.66563
  0
VERTEX
  8
taper
  5
3C9
 10
4.00062
 20
-1.67205
  0
VERTEX
  8
taper
  5
3CA
 10
4.07336
 20
-1.67851
  0
VERTEX
  8
taper
  5
3CB
 10
4.1461
 20
-1.68498
  0
VERTEX
  8
taper
  5
3CC
 10
4.21884
 20
-1.69149
  0
VERTEX
  8
taper
  5
3CD
 10
4.29158
 20
-1.69801
  0
VERTEX
  8
taper
  5
3CE
 10
4.36432
 20
-1.70457
  0
VERTEX
  8
taper
  5
3CF
 10
4.43706
 20
-1.71115
  0
VERTEX
  8
taper
  5
3D0
 10
4.5098
 20
-1.71775
  0
VERTEX
  8
taper
  5
3D1
 10
4.58253
 20
-1.72438
  0
VERTEX
  8
taper
  5
3D2
 10
4.65527
 20
-1.73104
  0
VERTEX
  8
taper
  5
3D3
 10
4.72801
 20
-1.73772
  0
VERTEX
  8
taper
  5
3D4
 10
4.80075
 20
-1.74443
  0
VERTEX
  8
taper
  5
3D5
 10
4.87349
 20
-1.75117
  0
VERTEX
  8
taper
  5
3D6
 10
4.94623
 20
-1.75793
  0
VERTEX
  8
taper
  5
3D7
 10
5.01896
 20
-1.76472
  0
VERTEX
  8
taper
  5
3D8
 10
5.0917
 20
-1.77153
  0
VERTEX
  8
taper
  5
3D9
 10
5.16444
 20
-1.77837
  0
VERTEX
  8
taper
  5
3DA
 10
5.23718
 20
-1.78524
  0
VERTEX
  8
taper
  5
3DB
 10
5.30992
 20
-1.79214
  0
VERTEX
  8
taper
  5
3DC
 10
5.38266
 20
-1.79906
  0
VERTEX
  8
taper
  5
3DD
 10
5.45539
 20
-1.80601
  0
VERTEX
  8
taper
  5
3DE
 10
5.52814
 20
-1.81299
  0
VERTEX
  8
taper
  5
3DF
 10
5.60087
 20
-1.81999
  0
VERTEX
  8
taper
  5
3E0
 10
5.67361
 20
-1.82702
  0
VERTEX
  8
taper
  5
3E1
 10
5.74635
 20
-1.83408
  0
VERTEX
  8
taper
  5
3E2
 10
5.81909
 20
-1.84117
  0
VERTEX
  8
taper
  5
3E3
 10
5.89183
 20
-1.84828
  0
VERTEX
  8
taper
  5
3E4
 10
5.96457
 20
-1.85542
  0
VERTEX
  8
taper
  5
3E5
 10
6.03731
 20
-1.8626
  0
VERTEX
  8
taper
  5
3E6
 10
6.11004
 20
-1.86979
  0
VERTEX
  8
taper
  5
3E7
 10
6.18278
 20
-1.87702
  0
VERTEX
  8
taper
  5
3E8
 10
6.25552
 20
-1.88428
  0
VERTEX
  8
taper
  5
3E9
 10
6.32826
 20
-1.89156
  0
VERTEX
  8
taper
  5
3EA
 10
6.401
 20
-1.89887
  0
VERTEX
  8
taper
  5
3EB
 10
6.47374
 20
-1.90621
  0
VERTEX
  8
taper
  5
3EC
 10
6.54647
 20
-1.91358
  0
VERTEX
  8
taper
  5
3ED
 10
6.61921
 20
-1.92098
  0
VERTEX
  8
taper
  5
3EE
 10
6.69195
 20
-1.92841
  0
VERTEX
  8
taper
  5
3EF
 10
6.76469
 20
-1.93586
  0
VERTEX
  8
taper
  5
3F0
 10
6.83743
 20
-1.94335
  0
VERTEX
  8
taper
  5
3F1
 10
6.91017
 20
-1.95086
  0
VERTEX
  8
taper
  5
3F2
 10
6.9829
 20
-1.95841
  0
VERTEX
  8
taper
  5
3F3
 10
7.05565
 20
-1.96598
  0
VERTEX
  8
taper
  5
3F4
 10
7.12839
 20
-1.97358
  0
VERTEX
  8
taper
  5
3F5
 10
7.20112
 20
-1.98122
  0
VERTEX
  8
taper
  5
3F6
 10
7.27386
 20
-1.98888
  0
VERTEX
  8
taper
  5
3F7
 10
7.3466
 20
-1.99657
  0
VERTEX
  8
taper
  5
3F8
 10
7.41934
 20
-2.0043
  0
VERTEX
  8
taper
  5
3F9
 10
7.49208
 20
-2.01205
  0
VERTEX
  8
taper
  5
3FA
 10
7.56482
 20
-2.01983
  0
VERTEX
  8
taper
  5
3FB
 10
7.63755
 20
-2.02764
  0
VERTEX
  8
taper
  5
3FC
 10
7.71029
 20
-2.03549
  0
VERTEX
  8
taper
  5
3FD
 10
7.78303
 20
-2.04336
  0
VERTEX
  8
taper
  5
3FE
 10
7.85577
 20
-2.05127
  0
VERTEX
  8
taper
  5
3FF
 10
7.92851
 20
-2.0592
  0
VERTEX
  8
taper
  5
400
 10
8.00125
 20
-2.06717
  0
VERTEX
  8
taper
  5
401
 10
8.07398
 20
-2.07517
  0
VERTEX
  8
taper
  5
402
 10
8.14673
 20
-2.08319
  0
VERTEX
  8
taper
  5
403
 10
8.21946
 20
-2.09125
  0
VERTEX
  8
taper
  5
404
 10
8.2922
 20
-2.09934
  0
VERTEX
  8
taper
  5
405
 10
8.36494
 20
-2.10747
  0
VERTEX
  8
taper
  5
406
 10
8.43768
 20
-2.11562
  0
VERTEX
  8
taper
  5
407
 10
8.51042
 20
-2.1238
  0
VERTEX
  8
taper
  5
408
 10
8.58316
 20
-2.13202
  0
VERTEX
  8
taper
  5
409
 10
8.6559
 20
-2.14027
  0
VERTEX
  8
taper
  5
40A
 10
8.72863
 20
-2.14855
  0
VERTEX
  8
taper
  5
40B
 10
8.80137
 20
-2.15686
  0
VERTEX
  8
taper
  5
40C
 10
8.87411
 20
-2.16521
  0
VERTEX
  8
taper
  5
40D
 10
8.94685
 20
-2.17358
  0
VERTEX
  8
taper
  5
40E
 10
9.01959
 20
-2.18199
  0
VERTEX
  8
taper
  5
40F
 10
9.09233
 20
-2.19044
  0
VERTEX
  8
taper
  5
410
 10
9.16506
 20
-2.19891
  0
VERTEX
  8
taper
  5
411
 10
9.2378
 20
-2.20742
  0
VERTEX
  8
taper
  5
412
 10
9.31054
 20
-2.21596
  0
VERTEX
  8
taper
  5
413
 10
9.38328
 20
-2.22453
  0
VERTEX
  8
taper
  5
414
 10
9.45602
 20
-2.23313
  0
VERTEX
  8
taper
  5
415
 10
9.52876
 20
-2.24177
  0
VERTEX
  8
taper
  5
416
 10
9.60149
 20
-2.25044
  0
VERTEX
  8
taper
  5
417
 10
9.67424
 20
-2.25915
  0
VERTEX
  8
taper
  5
418
 10
9.74698
 20
-2.26789
  0
VERTEX
  8
taper
  5
419
 10
9.81971
 20
-2.27666
  0
VERTEX
  8
taper
  5
41A
 10
9.89245
 20
-2.28546
  0
VERTEX
  8
taper
  5
41B
 10
9.96519
 20
-2.2943
  0
VERTEX
  8
taper
  5
41C
 10
10.0379
 20
-2.30318
  0
VERTEX
  8
taper
  5
41D
 10
10.1107
 20
-2.31208
  0
VERTEX
  8
taper
  5
41E
 10
10.1834
 20
-2.32102
  0
VERTEX
  8
taper
  5
41F
 10
10.2561
 20
-2.33
  0
VERTEX
  8
taper
  5
420
 10
10.3289
 20
-2.33901
  0
VERTEX
  8
taper
  5
421
 10
10.4016
 20
-2.34805
  0
VERTEX
  8
taper
  5
422
 10
10.4744
 20
-2.35713
  0
VERTEX
  8
taper
  5
423
 10
10.5471
 20
-2.36624
  0
VERTEX
  8
taper
  5
424
 10
10.6198
 20
-2.37539
  0
VERTEX
  8
taper
  5
425
 10
10.6926
 20
-2.38457
  0
VERTEX
  8
taper
  5
426
 10
10.7653
 20
-2.39379
  0
VERTEX
  8
taper
  5
427
 10
10.8381
 20
-2.40304
  0
VERTEX
  8
taper
  5
428
 10
10.9108
 20
-2.41232
  0
VERTEX
  8
taper
  5
429
 10
10.9835
 20
-2.42165
  0
VERTEX
  8
taper
  5
42A
 10
11.0563
 20
-2.431
  0
VERTEX
  8
taper
  5
42B
 10
11.129
 20
-2.4404
  0
VERTEX
  8
taper
  5
42C
 10
11.2017
 20
-2.44982
  0
VERTEX
  8
taper
  5
42D
 10
11.2745
 20
-2.45929
  0
VERTEX
  8
taper
  5
42E
 10
11.3472
 20
-2.46879
  0
VERTEX
  8
taper
  5
42F
 10
11.42
 20
-2.47832
  0
VERTEX
  8
taper
  5
430
 10
11.4927
 20
-2.48789
  0
VERTEX
  8
taper
  5
431
 10
11.5654
 20
-2.4975
  0
VERTEX
  8
taper
  5
432
 10
11.6382
 20
-2.50714
  0
VERTEX
  8
taper
  5
433
 10
11.7109
 20
-2.51682
  0
VERTEX
  8
taper
  5
434
 10
11.7837
 20
-2.52654
  0
VERTEX
  8
taper
  5
435
 10
11.8564
 20
-2.53629
  0
VERTEX
  8
taper
  5
436
 10
11.9291
 20
-2.54608
  0
VERTEX
  8
taper
  5
437
 10
12.0019
 20
-2.55591
  0
VERTEX
  8
taper
  5
438
 10
12.0746
 20
-2.56577
  0
VERTEX
  8
taper
  5
439
 10
12.1473
 20
-2.57567
  0
VERTEX
  8
taper
  5
43A
 10
12.2201
 20
-2.58561
  0
VERTEX
  8
taper
  5
43B
 10
12.2928
 20
-2.59559
  0
VERTEX
  8
taper
  5
43C
 10
12.3656
 20
-2.60561
  0
VERTEX
  8
taper
  5
43D
 10
12.4383
 20
-2.61566
  0
VERTEX
  8
taper
  5
43E
 10
12.511
 20
-2.62575
  0
VERTEX
  8
taper
  5
43F
 10
12.5838
 20
-2.63588
  0
VERTEX
  8
taper
  5
440
 10
12.6565
 20
-2.64605
  0
VERTEX
  8
taper
  5
441
 10
12.7293
 20
-2.65626
  0
VERTEX
  8
taper
  5
442
 10
12.802
 20
-2.66651
  0
VERTEX
  8
taper
  5
443
 10
12.8747
 20
-2.67679
  0
VERTEX
  8
taper
  5
444
 10
12.9475
 20
-2.68712
  0
VERTEX
  8
taper
  5
445
 10
13.0202
 20
-2.69749
  0
VERTEX
  8
taper
  5
446
 10
13.0929
 20
-2.70789
  0
VERTEX
  8
taper
  5
447
 10
13.1657
 20
-2.71834
  0
VERTEX
  8
taper
  5
448
 10
13.2384
 20
-2.72883
  0
VERTEX
  8
taper
  5
449
 10
13.3112
 20
-2.73935
  0
VERTEX
  8
taper
  5
44A
 10
13.3839
 20
-2.74992
  0
VERTEX
  8
taper
  5
44B
 10
13.4566
 20
-2.76053
  0
VERTEX
  8
taper
  5
44C
 10
13.5294
 20
-2.77118
  0
VERTEX
  8
taper
  5
44D
 10
13.6021
 20
-2.78187
  0
VERTEX
  8
taper
  5
44E
 10
13.6749
 20
-2.7926
  0
VERTEX
  8
taper
  5
44F
 10
13.7476
 20
-2.80338
  0
VERTEX
  8
taper
  5
450
 10
13.8203
 20
-2.81419
  0
VERTEX
  8
taper
  5
451
 10
13.8931
 20
-2.82505
  0
VERTEX
  8
taper
  5
452
 10
13.9658
 20
-2.83595
  0
VERTEX
  8
taper
  5
453
 10
14.0386
 20
-2.84689
  0
VERTEX
  8
taper
  5
454
 10
14.1113
 20
-2.85787
  0
VERTEX
  8
taper
  5
455
 10
14.184
 20
-2.8689
  0
VERTEX
  8
taper
  5
456
 10
14.2568
 20
-2.87997
  0
VERTEX
  8
taper
  5
457
 10
14.3295
 20
-2.89108
  0
VERTEX
  8
taper
  5
458
 10
14.4022
 20
-2.90224
  0
VERTEX
  8
taper
  5
459
 10
14.475
 20
-2.91344
  0
VERTEX
  8
taper
  5
45A
 10
14.5477
 20
-2.92468
  0
VERTEX
  8
taper
  5
45B
 10
14.6205
 20
-2.93597
  0
VERTEX
  8
taper
  5
45C
 10
14.6932
 20
-2.9473
  0
VERTEX
  8
taper
  5
45D
 10
14.7659
 20
-2.95868
  0
VERTEX
  8
taper
  5
45E
 10
14.8387
 20
-2.9701
  0
VERTEX
  8
taper
  5
45F
 10
14.9114
 20
-2.98156
  0
VERTEX
  8
taper
  5
460
 10
14.9842
 20
-2.99307
  0
VERTEX
  8
taper
  5
461
 10
15.0569
 20
-3.00462
  0
VERTEX
  8
taper
  5
462
 10
15.1296
 20
-3.01622
  0
VERTEX
  8
taper
  5
463
 10
15.2024
 20
-3.02787
  0
VERTEX
  8
taper
  5
464
 10
15.2751
 20
-3.03956
  0
VERTEX
  8
taper
  5
465
 10
15.3479
 20
-3.05129
  0
VERTEX
  8
taper
  5
466
 10
15.4206
 20
-3.06307
  0
VERTEX
  8
taper
  5
467
 10
15.4933
 20
-3.0749
  0
VERTEX
  8
taper
  5
468
 10
15.5661
 20
-3.08677
  0
VERTEX
  8
taper
  5
469
 10
15.6388
 20
-3.09869
  0
VERTEX
  8
taper
  5
46A
 10
15.7115
 20
-3.11066
  0
VERTEX
  8
taper
  5
46B
 10
15.7843
 20
-3.12267
  0
VERTEX
  8
taper
  5
46C
 10
15.857
 20
-3.13473
  0
VERTEX
  8
taper
  5
46D
 10
15.9298
 20
-3.14684
  0
VERTEX
  8
taper
  5
46E
 10
16.0025
 20
-3.15899
  0
VERTEX
  8
taper
  5
46F
 10
16.0752
 20
-3.1712
  0
VERTEX
  8
taper
  5
470
 10
16.148
 20
-3.18344
  0
VERTEX
  8
taper
  5
471
 10
16.2207
 20
-3.19574
  0
VERTEX
  8
taper
  5
472
 10
16.2935
 20
-3.20809
  0
VERTEX
  8
taper
  5
473
 10
16.3662
 20
-3.22048
  0
VERTEX
  8
taper
  5
474
 10
16.4389
 20
-3.23293
  0
VERTEX
  8
taper
  5
475
 10
16.5117
 20
-3.24542
  0
VERTEX
  8
taper
  5
476
 10
16.5844
 20
-3.25795
  0
VERTEX
  8
taper
  5
477
 10
16.6571
 20
-3.27054
  0
VERTEX
  8
taper
  5
478
 10
16.7299
 20
-3.28318
  0
VERTEX
  8
taper
  5
479
 10
16.8026
 20
-3.29587
  0
VERTEX
  8
taper
  5
47A
 10
16.8754
 20
-3.30861
  0
VERTEX
  8
taper
  5
47B
 10
16.9481
 20
-3.32139
  0
VERTEX
  8
taper
  5
47C
 10
17.0208
 20
-3.33423
  0
VERTEX
  8
taper
  5
47D
 10
17.0936
 20
-3.34712
  0
VERTEX
  8
taper
  5
47E
 10
17.1663
 20
-3.36005
  0
VERTEX
  8
taper
  5
47F
 10
17.239
 20
-3.37304
  0
VERTEX
  8
taper
  5
480
 10
17.3118
 20
-3.38608
  0
VERTEX
  8
taper
  5
481
 10
17.3845
 20
-3.39917
  0
VERTEX
  8
taper
  5
482
 10
17.4573
 20
-3.4123
  0
VERTEX
  8
taper
  5
483
 10
17.53
 20
-3.4255
  0
VERTEX
  8
taper
  5
484
 10
17.6027
 20
-3.43874
  0
VERTEX
  8
taper
  5
485
 10
17.6755
 20
-3.45203
  0
VERTEX
  8
taper
  5
486
 10
17.7482
 20
-3.46538
  0
VERTEX
  8
taper
  5
487
 10
17.821
 20
-3.47878
  0
VERTEX
  8
taper
  5
488
 10
17.8937
 20
-3.49222
  0
VERTEX
  8
taper
  5
489
 10
17.9664
 20
-3.50573
  0
VERTEX
  8
taper
  5
48A
 10
18.0392
 20
-3.51928
  0
VERTEX
  8
taper
  5
48B
 10
18.1119
 20
-3.53289
  0
VERTEX
  8
taper
  5
48C
 10
18.1847
 20
-3.54655
  0
VERTEX
  8
taper
  5
48D
 10
18.2574
 20
-3.56026
  0
VERTEX
  8
taper
  5
48E
 10
18.3301
 20
-3.57403
  0
VERTEX
  8
taper
  5
48F
 10
18.4029
 20
-3.58785
  0
VERTEX
  8
taper
  5
490
 10
18.4756
 20
-3.60172
  0
VERTEX
  8
taper
  5
491
 10
18.5483
 20
-3.61565
  0
VERTEX
  8
taper
  5
492
 10
18.6211
 20
-3.62963
  0
VERTEX
  8
taper
  5
493
 10
18.6938
 20
-3.64367
  0
VERTEX
  8
taper
  5
494
 10
18.7666
 20
-3.65775
  0
VERTEX
  8
taper
  5
495
 10
18.8393
 20
-3.6719
  0
VERTEX
  8
taper
  5
496
 10
18.912
 20
-3.6861
  0
VERTEX
  8
taper
  5
497
 10
18.9848
 20
-3.70035
  0
VERTEX
  8
taper
  5
498
 10
19.0575
 20
-3.71466
  0
VERTEX
  8
taper
  5
499
 10
19.1303
 20
-3.72903
  0
VERTEX
  8
taper
  5
49A
 10
19.203
 20
-3.74344
  0
VERTEX
  8
taper
  5
49B
 10
19.2757
 20
-3.75792
  0
VERTEX
  8
taper
  5
49C
 10
19.3485
 20
-3.77245
  0
VERTEX
  8
taper
  5
49D
 10
19.4212
 20
-3.78704
  0
VERTEX
  8
taper
  5
49E
 10
19.494
 20
-3.80168
  0
VERTEX
  8
taper
  5
49F
 10
19.5667
 20
-3.81638
  0
VERTEX
  8
taper
  5
4A0
 10
19.6394
 20
-3.83114
  0
VERTEX
  8
taper
  5
4A1
 10
19.7122
 20
-3.84595
  0
VERTEX
  8
taper
  5
4A2
 10
19.7849
 20
-3.86082
  0
VERTEX
  8
taper
  5
4A3
 10
19.8576
 20
-3.87575
  0
VERTEX
  8
taper
  5
4A4
 10
19.9304
 20
-3.89073
  0
VERTEX
  8
taper
  5
4A5
 10
20.0031
 20
-3.90577
  0
VERTEX
  8
taper
  5
4A6
 10
20.0759
 20
-3.92087
  0
VERTEX
  8
taper
  5
4A7
 10
20.1486
 20
-3.93603
  0
VERTEX
  8
taper
  5
4A8
 10
20.2213
 20
-3.95125
  0
VERTEX
  8
taper
  5
4A9
 10
20.2941
 20
-3.96652
  0
VERTEX
  8
taper
  5
4AA
 10
20.3668
 20
-3.98185
  0
VERTEX
  8
taper
  5
4AB
 10
20.4396
 20
-3.99724
  0
VERTEX
  8
taper
  5
4AC
 10
20.5123
 20
-4.01269
  0
VERTEX
  8
taper
  5
4AD
 10
20.585
 20
-4.0282
  0
VERTEX
  8
taper
  5
4AE
 10
20.6578
 20
-4.04377
  0
VERTEX
  8
taper
  5
4AF
 10
20.7305
 20
-4.05939
  0
VERTEX
  8
taper
  5
4B0
 10
20.8032
 20
-4.07508
  0
VERTEX
  8
taper
  5
4B1
 10
20.876
 20
-4.09083
  0
VERTEX
  8
taper
  5
4B2
 10
20.9487
 20
-4.10663
  0
VERTEX
  8
taper
  5
4B3
 10
21.0215
 20
-4.1225
  0
VERTEX
  8
taper
  5
4B4
 10
21.0942
 20
-4.13843
  0
VERTEX
  8
taper
  5
4B5
 10
21.1669
 20
-4.15441
  0
VERTEX
  8
taper
  5
4B6
 10
21.2397
 20
-4.17046
  0
VERTEX
  8
taper
  5
4B7
 10
21.3124
 20
-4.18657
  0
VERTEX
  8
taper
  5
4B8
 10
21.3851
 20
-4.20274
  0
VERTEX
  8
taper
  5
4B9
 10
21.4579
 20
-4.21897
  0
VERTEX
  8
taper
  5
4BA
 10
21.5306
 20
-4.23527
  0
VERTEX
  8
taper
  5
4BB
 10
21.6034
 20
-4.25162
  0
VERTEX
  8
taper
  5
4BC
 10
21.6761
 20
-4.26804
  0
VERTEX
  8
taper
  5
4BD
 10
21.7489
 20
-4.28451
  0
VERTEX
  8
taper
  5
4BE
 10
21.8216
 20
-4.30105
  0
VERTEX
  8
taper
  5
4BF
 10
21.8943
 20
-4.31766
  0
VERTEX
  8
taper
  5
4C0
 10
21.9671
 20
-4.33433
  0
VERTEX
  8
taper
  5
4C1
 10
22.0398
 20
-4.35105
  0
VERTEX
  8
taper
  5
4C2
 10
22.1125
 20
-4.36785
  0
VERTEX
  8
taper
  5
4C3
 10
22.1853
 20
-4.38471
  0
VERTEX
  8
taper
  5
4C4
 10
22.258
 20
-4.40163
  0
VERTEX
  8
taper
  5
4C5
 10
22.3308
 20
-4.41862
  0
VERTEX
  8
taper
  5
4C6
 10
22.4035
 20
-4.43568
  0
VERTEX
  8
taper
  5
4C7
 10
22.4762
 20
-4.45279
  0
VERTEX
  8
taper
  5
4C8
 10
22.549
 20
-4.46998
  0
VERTEX
  8
taper
  5
4C9
 10
22.6217
 20
-4.48723
  0
VERTEX
  8
taper
  5
4CA
 10
22.6944
 20
-4.50455
  0
VERTEX
  8
taper
  5
4CB
 10
22.7672
 20
-4.52193
  0
VERTEX
  8
taper
  5
4CC
 10
22.8399
 20
-4.53938
  0
VERTEX
  8
taper
  5
4CD
 10
22.9127
 20
-4.5569
  0
VERTEX
  8
taper
  5
4CE
 10
22.9854
 20
-4.57449
  0
VERTEX
  8
taper
  5
4CF
 10
23.0581
 20
-4.59214
  0
VERTEX
  8
taper
  5
4D0
 10
23.1309
 20
-4.60986
  0
VERTEX
  8
taper
  5
4D1
 10
23.2036
 20
-4.62765
  0
VERTEX
  8
taper
  5
4D2
 10
23.2764
 20
-4.64551
  0
VERTEX
  8
taper
  5
4D3
 10
23.3491
 20
-4.66344
  0
VERTEX
  8
taper
  5
4D4
 10
23.4218
 20
-4.68144
  0
VERTEX
  8
taper
  5
4D5
 10
23.4946
 20
-4.69951
  0
VERTEX
  8
taper
  5
4D6
 10
23.5673
 20
-4.71764
  0
VERTEX
  8
taper
  5
4D7
 10
23.6401
 20
-4.73585
  0
VERTEX
  8
taper
  5
4D8
 10
23.7128
 20
-4.75413
  0
VERTEX
  8
taper
  5
4D9
 10
23.7855
 20
-4.77247
  0
VERTEX
  8
taper
  5
4DA
 10
23.8583
 20
-4.7909
  0
VERTEX
  8
taper
  5
4DB
 10
23.931
 20
-4.80939
  0
VERTEX
  8
taper
  5
4DC
 10
24.0037
 20
-4.82795
  0
VERTEX
  8
taper
  5
4DD
 10
24.0765
 20
-4.84659
  0
VERTEX
  8
taper
  5
4DE
 10
24.1492
 20
-4.8653
  0
VERTEX
  8
taper
  5
4DF
 10
24.222
 20
-4.88408
  0
VERTEX
  8
taper
  5
4E0
 10
24.2947
 20
-4.90293
  0
VERTEX
  8
taper
  5
4E1
 10
24.3674
 20
-4.92186
  0
VERTEX
  8
taper
  5
4E2
 10
24.4402
 20
-4.94086
  0
VERTEX
  8
taper
  5
4E3
 10
24.5129
 20
-4.95994
  0
VERTEX
  8
taper
  5
4E4
 10
24.5857
 20
-4.97909
  0
VERTEX
  8
taper
  5
4E5
 10
24.6584
 20
-4.99831
  0
VERTEX
  8
taper
  5
4E6
 10
24.7311
 20
-5.01761
  0
VERTEX
  8
taper
  5
4E7
 10
24.8039
 20
-5.03698
  0
VERTEX
  8
taper
  5
4E8
 10
24.8766
 20
-5.05643
  0
VERTEX
  8
taper
  5
4E9
 10
24.9494
 20
-5.07596
  0
VERTEX
  8
taper
  5
4EA
 10
25.0221
 20
-5.09556
  0
VERTEX
  8
taper
  5
4EB
 10
25.0948
 20
-5.11523
  0
VERTEX
  8
taper
  5
4EC
 10
25.1676
 20
-5.13499
  0
VERTEX
  8
taper
  5
4ED
 10
25.2403
 20
-5.15482
  0
VERTEX
  8
taper
  5
4EE
 10
25.313
 20
-5.17473
  0
VERTEX
  8
taper
  5
4EF
 10
25.3858
 20
-5.19472
  0
VERTEX
  8
taper
  5
4F0
 10
25.4585
 20
-5.21478
  0
VERTEX
  8
taper
  5
4F1
 10
25.5312
 20
-5.23492
  0
VERTEX
  8
taper
  5
4F2
 10
25.604
 20
-5.25515
  0
VERTEX
  8
taper
  5
4F3
 10
25.6767
 20
-5.27545
  0
VERTEX
  8
taper
  5
4F4
 10
25.7495
 20
-5.29582
  0
VERTEX
  8
taper
  5
4F5
 10
25.8222
 20
-5.31629
  0
VERTEX
  8
taper
  5
4F6
 10
25.895
 20
-5.33682
  0
VERTEX
  8
taper
  5
4F7
 10
25.9677
 20
-5.35744
  0
VERTEX
  8
taper
  5
4F8
 10
26.0404
 20
-5.37814
  0
VERTEX
  8
taper
  5
4F9
 10
26.1132
 20
-5.39892
  0
VERTEX
  8
taper
  5
4FA
 10
26.1859
 20
-5.41978
  0
VERTEX
  8
taper
  5
4FB
 10
26.2587
 20
-5.44072
  0
VERTEX
  8
taper
  5
4FC
 10
26.3314
 20
-5.46175
  0
VERTEX
  8
taper
  5
4FD
 10
26.4041
 20
-5.48285
  0
VERTEX
  8
taper
  5
4FE
 10
26.4769
 20
-5.50404
  0
VERTEX
  8
taper
  5
4FF
 10
26.5496
 20
-5.52531
  0
VERTEX
  8
taper
  5
500
 10
26.6223
 20
-5.54665
  0
VERTEX
  8
taper
  5
501
 10
26.6951
 20
-5.5681
  0
VERTEX
  8
taper
  5
502
 10
26.7678
 20
-5.58962
  0
VERTEX
  8
taper
  5
503
 10
26.8405
 20
-5.61121
  0
VERTEX
  8
taper
  5
504
 10
26.9133
 20
-5.63291
  0
VERTEX
  8
taper
  5
505
 10
26.986
 20
-5.65468
  0
VERTEX
  8
taper
  5
506
 10
27.0588
 20
-5.67653
  0
VERTEX
  8
taper
  5
507
 10
27.1315
 20
-5.69847
  0
VERTEX
  8
taper
  5
508
 10
27.2043
 20
-5.7205
  0
VERTEX
  8
taper
  5
509
 10
27.277
 20
-5.7426
  0
VERTEX
  8
taper
  5
50A
 10
27.3497
 20
-5.76481
  0
VERTEX
  8
taper
  5
50B
 10
27.4225
 20
-5.78709
  0
VERTEX
  8
taper
  5
50C
 10
27.4952
 20
-5.80945
  0
VERTEX
  8
taper
  5
50D
 10
27.568
 20
-5.83192
  0
VERTEX
  8
taper
  5
50E
 10
27.6407
 20
-5.85446
  0
VERTEX
  8
taper
  5
50F
 10
27.7134
 20
-5.87708
  0
VERTEX
  8
taper
  5
510
 10
27.7862
 20
-5.89981
  0
VERTEX
  8
taper
  5
511
 10
27.8589
 20
-5.92262
  0
VERTEX
  8
taper
  5
512
 10
27.9316
 20
-5.9455
  0
VERTEX
  8
taper
  5
513
 10
28.0044
 20
-5.9685
  0
VERTEX
  8
taper
  5
514
 10
28.0771
 20
-5.99157
  0
VERTEX
  8
taper
  5
515
 10
28.1498
 20
-6.01472
  0
VERTEX
  8
taper
  5
516
 10
28.2226
 20
-6.03798
  0
VERTEX
  8
taper
  5
517
 10
28.2953
 20
-6.06132
  0
VERTEX
  8
taper
  5
518
 10
28.3681
 20
-6.08474
  0
VERTEX
  8
taper
  5
519
 10
28.4408
 20
-6.10827
  0
VERTEX
  8
taper
  5
51A
 10
28.5136
 20
-6.13188
  0
VERTEX
  8
taper
  5
51B
 10
28.5863
 20
-6.15558
  0
VERTEX
  8
taper
  5
51C
 10
28.659
 20
-6.17938
  0
VERTEX
  8
taper
  5
51D
 10
28.7318
 20
-6.20327
  0
VERTEX
  8
taper
  5
51E
 10
28.8045
 20
-6.22724
  0
VERTEX
  8
taper
  5
51F
 10
28.8772
 20
-6.25132
  0
VERTEX
  8
taper
  5
520
 10
28.95
 20
-6.27548
  0
VERTEX
  8
taper
  5
521
 10
29.0227
 20
-6.29972
  0
VERTEX
  8
taper
  5
522
 10
29.0955
 20
-6.32408
  0
VERTEX
  8
taper
  5
523
 10
29.1682
 20
-6.34852
  0
VERTEX
  8
taper
  5
524
 10
29.2409
 20
-6.37305
  0
VERTEX
  8
taper
  5
525
 10
29.3137
 20
-6.39769
  0
VERTEX
  8
taper
  5
526
 10
29.3864
 20
-6.42241
  0
VERTEX
  8
taper
  5
527
 10
29.4591
 20
-6.44722
  0
VERTEX
  8
taper
  5
528
 10
29.5319
 20
-6.47215
  0
VERTEX
  8
taper
  5
529
 10
29.6046
 20
-6.49716
  0
VERTEX
  8
taper
  5
52A
 10
29.6773
 20
-6.52225
  0
VERTEX
  8
taper
  5
52B
 10
29.7501
 20
-6.54746
  0
VERTEX
  8
taper
  5
52C
 10
29.8229
 20
-6.57276
  0
VERTEX
  8
taper
  5
52D
 10
29.8956
 20
-6.59814
  0
VERTEX
  8
taper
  5
52E
 10
29.9683
 20
-6.62364
  0
VERTEX
  8
taper
  5
52F
 10
30.0411
 20
-6.64923
  0
VERTEX
  8
taper
  5
530
 10
30.1138
 20
-6.6749
  0
VERTEX
  8
taper
  5
531
 10
30.1865
 20
-6.70069
  0
VERTEX
  8
taper
  5
532
 10
30.2593
 20
-6.72657
  0
VERTEX
  8
taper
  5
533
 10
30.332
 20
-6.75254
  0
VERTEX
  8
taper
  5
534
 10
30.4048
 20
-6.77863
  0
VERTEX
  8
taper
  5
535
 10
30.4775
 20
-6.80481
  0
VERTEX
  8
taper
  5
536
 10
30.5502
 20
-6.83107
  0
VERTEX
  8
taper
  5
537
 10
30.623
 20
-6.85746
  0
VERTEX
  8
taper
  5
538
 10
30.6957
 20
-6.88394
  0
VERTEX
  8
taper
  5
539
 10
30.7684
 20
-6.9105
  0
VERTEX
  8
taper
  5
53A
 10
30.8412
 20
-6.9372
  0
VERTEX
  8
taper
  5
53B
 10
30.9139
 20
-6.96398
  0
VERTEX
  8
taper
  5
53C
 10
30.9866
 20
-6.99085
  0
VERTEX
  8
taper
  5
53D
 10
31.0594
 20
-7.01785
  0
VERTEX
  8
taper
  5
53E
 10
31.1322
 20
-7.04494
  0
VERTEX
  8
taper
  5
53F
 10
31.2049
 20
-7.07213
  0
VERTEX
  8
taper
  5
540
 10
31.2776
 20
-7.09944
  0
VERTEX
  8
taper
  5
541
 10
31.3504
 20
-7.12684
  0
VERTEX
  8
taper
  5
542
 10
31.4231
 20
-7.15434
  0
VERTEX
  8
taper
  5
543
 10
31.4958
 20
-7.18197
  0
VERTEX
  8
taper
  5
544
 10
31.5686
 20
-7.20969
  0
VERTEX
  8
taper
  5
545
 10
31.6413
 20
-7.23751
  0
VERTEX
  8
taper
  5
546
 10
31.7141
 20
-7.26546
  0
VERTEX
  8
taper
  5
547
 10
31.7868
 20
-7.29351
  0
VERTEX
  8
taper
  5
548
 10
31.8595
 20
-7.32165
  0
VERTEX
  8
taper
  5
549
 10
31.9323
 20
-7.34992
  0
VERTEX
  8
taper
  5
54A
 10
32.005
 20
-7.3783
  0
VERTEX
  8
taper
  5
54B
 10
32.0777
 20
-7.40676
  0
VERTEX
  8
taper
  5
54C
 10
32.1505
 20
-7.43537
  0
VERTEX
  8
taper
  5
54D
 10
32.2232
 20
-7.46407
  0
VERTEX
  8
taper
  5
54E
 10
32.2959
 20
-7.49287
  0
VERTEX
  8
taper
  5
54F
 10
32.3687
 20
-7.52181
  0
VERTEX
  8
taper
  5
550
 10
32.4415
 20
-7.55085
  0
VERTEX
  8
taper
  5
551
 10
32.5142
 20
-7.57998
  0
VERTEX
  8
taper
  5
552
 10
32.5869
 20
-7.60926
  0
VERTEX
  8
taper
  5
553
 10
32.6597
 20
-7.63864
  0
VERTEX
  8
taper
  5
554
 10
32.7324
 20
-7.66811
  0
VERTEX
  8
taper
  5
555
 10
32.8051
 20
-7.69773
  0
VERTEX
  8
taper
  5
556
 10
32.8779
 20
-7.72745
  0
VERTEX
  8
taper
  5
557
 10
32.9506
 20
-7.75727
  0
VERTEX
  8
taper
  5
558
 10
33.0234
 20
-7.78724
  0
VERTEX
  8
taper
  5
559
 10
33.0961
 20
-7.81731
  0
VERTEX
  8
taper
  5
55A
 10
33.1688
 20
-7.84748
  0
VERTEX
  8
taper
  5
55B
 10
33.2416
 20
-7.8778
  0
VERTEX
  8
taper
  5
55C
 10
33.3143
 20
-7.90822
  0
VERTEX
  8
taper
  5
55D
 10
33.387
 20
-7.93874
  0
VERTEX
  8
taper
  5
55E
 10
33.4598
 20
-7.96941
  0
VERTEX
  8
taper
  5
55F
 10
33.5325
 20
-8.00019
  0
VERTEX
  8
taper
  5
560
 10
33.6052
 20
-8.03107
  0
VERTEX
  8
taper
  5
561
 10
33.678
 20
-8.0621
  0
VERTEX
  8
taper
  5
562
 10
33.7508
 20
-8.09324
  0
VERTEX
  8
taper
  5
563
 10
33.8234
 20
-8.12448
  0
VERTEX
  8
taper
  5
564
 10
33.8962
 20
-8.15588
  0
VERTEX
  8
taper
  5
565
 10
33.969
 20
-8.18738
  0
VERTEX
  8
taper
  5
566
 10
34.0417
 20
-8.21899
  0
VERTEX
  8
taper
  5
567
 10
34.1144
 20
-8.25076
  0
VERTEX
  8
taper
  5
568
 10
34.1872
 20
-8.28263
  0
VERTEX
  8
taper
  5
569
 10
34.2599
 20
-8.3146
  0
VERTEX
  8
taper
  5
56A
 10
34.3327
 20
-8.34674
  0
VERTEX
  8
taper
  5
56B
 10
34.4054
 20
-8.37899
  0
VERTEX
  8
taper
  5
56C
 10
34.4781
 20
-8.41134
  0
VERTEX
  8
taper
  5
56D
 10
34.5509
 20
-8.44386
  0
VERTEX
  8
taper
  5
56E
 10
34.6236
 20
-8.47648
  0
VERTEX
  8
taper
  5
56F
 10
34.6963
 20
-8.50921
  0
VERTEX
  8
taper
  5
570
 10
34.7691
 20
-8.54211
  0
VERTEX
  8
taper
  5
571
 10
34.8418
 20
-8.57511
  0
VERTEX
  8
taper
  5
572
 10
34.9145
 20
-8.60822
  0
VERTEX
  8
taper
  5
573
 10
34.9873
 20
-8.64151
  0
VERTEX
  8
taper
  5
574
 10
35.0601
 20
-8.6749
  0
VERTEX
  8
taper
  5
575
 10
35.1327
 20
-8.7084
  0
VERTEX
  8
taper
  5
576
 10
35.2055
 20
-8.74207
  0
VERTEX
  8
taper
  5
577
 10
35.2783
 20
-8.77585
  0
VERTEX
  8
taper
  5
578
 10
35.351
 20
-8.80974
  0
VERTEX
  8
taper
  5
579
 10
35.4237
 20
-8.84381
  0
VERTEX
  8
taper
  5
57A
 10
35.4965
 20
-8.87799
  0
VERTEX
  8
taper
  5
57B
 10
35.5692
 20
-8.91227
  0
VERTEX
  8
taper
  5
57C
 10
35.642
 20
-8.94674
  0
VERTEX
  8
taper
  5
57D
 10
35.7147
 20
-8.98132
  0
VERTEX
  8
taper
  5
57E
 10
35.7874
 20
-9.016
  0
VERTEX
  8
taper
  5
57F
 10
35.8602
 20
-9.05087
  0
VERTEX
  8
taper
  5
580
 10
35.9329
 20
-9.08585
  0
VERTEX
  8
taper
  5
581
 10
36.0056
 20
-9.12094
  0
VERTEX
  8
taper
  5
582
 10
36.0784
 20
-9.15622
  0
VERTEX
  8
taper
  5
583
 10
36.1511
 20
-9.19161
  0
VERTEX
  8
taper
  5
584
 10
36.2238
 20
-9.2271
  0
VERTEX
  8
taper
  5
585
 10
36.2966
 20
-9.26279
  0
VERTEX
  8
taper
  5
586
 10
36.3694
 20
-9.29859
  0
VERTEX
  8
taper
  5
587
 10
36.442
 20
-9.3345
  0
VERTEX
  8
taper
  5
588
 10
36.5148
 20
-9.37061
  0
VERTEX
  8
taper
  5
589
 10
36.5876
 20
-9.40682
  0
VERTEX
  8
taper
  5
58A
 10
36.6603
 20
-9.44315
  0
VERTEX
  8
taper
  5
58B
 10
36.733
 20
-9.47967
  0
VERTEX
  8
taper
  5
58C
 10
36.8058
 20
-9.51631
  0
VERTEX
  8
taper
  5
58D
 10
36.8785
 20
-9.55306
  0
VERTEX
  8
taper
  5
58E
 10
36.9513
 20
-9.59001
  0
VERTEX
  8
taper
  5
58F
 10
37.024
 20
-9.62707
  0
VERTEX
  8
taper
  5
590
 10
37.0967
 20
-9.66424
  0
VERTEX
  8
taper
  5
591
 10
37.1695
 20
-9.70162
  0
VERTEX
  8
taper
  5
592
 10
37.2422
 20
-9.73911
  0
VERTEX
  8
taper
  5
593
 10
37.3149
 20
-9.77671
  0
VERTEX
  8
taper
  5
594
 10
37.3877
 20
-9.81452
  0
VERTEX
  8
taper
  5
595
 10
37.4604
 20
-9.85245
  0
VERTEX
  8
taper
  5
596
 10
37.5331
 20
-9.89049
  0
VERTEX
  8
taper
  5
597
 10
37.6059
 20
-9.92873
  0
VERTEX
  8
taper
  5
598
 10
37.6787
 20
-9.9671
  0
VERTEX
  8
taper
  5
599
 10
37.7513
 20
-10.0056
  0
VERTEX
  8
taper
  5
59A
 10
37.8241
 20
-10.0443
  0
VERTEX
  8
taper
  5
59B
 10
37.8969
 20
-10.0831
  0
VERTEX
  8
taper
  5
59C
 10
37.9695
 20
-10.122
  0
VERTEX
  8
taper
  5
59D
 10
38.0423
 20
-10.1611
  0
VERTEX
  8
taper
  5
59E
 10
38.1151
 20
-10.2004
  0
VERTEX
  8
taper
  5
59F
 10
38.1878
 20
-10.2397
  0
VERTEX
  8
taper
  5
5A0
 10
38.2606
 20
-10.2793
  0
VERTEX
  8
taper
  5
5A1
 10
38.3333
 20
-10.319
  0
VERTEX
  8
taper
  5
5A2
 10
38.406
 20
-10.3588
  0
VERTEX
  8
taper
  5
5A3
 10
38.4788
 20
-10.3989
  0
VERTEX
  8
taper
  5
5A4
 10
38.5515
 20
-10.439
  0
VERTEX
  8
taper
  5
5A5
 10
38.6242
 20
-10.4793
  0
VERTEX
  8
taper
  5
5A6
 10
38.697
 20
-10.5198
  0
VERTEX
  8
taper
  5
5A7
 10
38.7697
 20
-10.5604
  0
VERTEX
  8
taper
  5
5A8
 10
38.8424
 20
-10.6012
  0
VERTEX
  8
taper
  5
5A9
 10
38.9152
 20
-10.6421
  0
VERTEX
  8
taper
  5
5AA
 10
38.988
 20
-10.6832
  0
VERTEX
  8
taper
  5
5AB
 10
39.0606
 20
-10.7244
  0
VERTEX
  8
taper
  5
5AC
 10
39.1334
 20
-10.7659
  0
VERTEX
  8
taper
  5
5AD
 10
39.2062
 20
-10.8074
  0
VERTEX
  8
taper
  5
5AE
 10
39.2788
 20
-10.8491
  0
VERTEX
  8
taper
  5
5AF
 10
39.3516
 20
-10.8911
  0
VERTEX
  8
taper
  5
5B0
 10
39.4244
 20
-10.9331
  0
VERTEX
  8
taper
  5
5B1
 10
39.4971
 20
-10.9753
  0
VERTEX
  8
taper
  5
5B2
 10
39.5699
 20
-11.0177
  0
VERTEX
  8
taper
  5
5B3
 10
39.6426
 20
-11.0602
  0
VERTEX
  8
taper
  5
5B4
 10
39.7153
 20
-11.1029
  0
VERTEX
  8
taper
  5
5B5
 10
39.7881
 20
-11.1458
  0
VERTEX
  8
taper
  5
5B6
 10
39.8608
 20
-11.1888
  0
VERTEX
  8
taper
  5
5B7
 10
39.9335
 20
-11.232
  0
VERTEX
  8
taper
  5
5B8
 10
40.0063
 20
-11.2754
  0
VERTEX
  8
taper
  5
5B9
 10
40.079
 20
-11.3189
  0
VERTEX
  8
taper
  5
5BA
 10
40.1517
 20
-11.3626
  0
VERTEX
  8
taper
  5
5BB
 10
40.2245
 20
-11.4065
  0
VERTEX
  8
taper
  5
5BC
 10
40.2973
 20
-11.4505
  0
VERTEX
  8
taper
  5
5BD
 10
40.3699
 20
-11.4947
  0
VERTEX
  8
taper
  5
5BE
 10
40.4427
 20
-11.5391
  0
VERTEX
  8
taper
  5
5BF
 10
40.5155
 20
-11.5837
  0
VERTEX
  8
taper
  5
5C0
 10
40.5881
 20
-11.6284
  0
VERTEX
  8
taper
  5
5C1
 10
40.661
 20
-11.6733
  0
VERTEX
  8
taper
  5
5C2
 10
40.7337
 20
-11.7184
  0
VERTEX
  8
taper
  5
5C3
 10
40.8063
 20
-11.7636
  0
VERTEX
  8
taper
  5
5C4
 10
40.8792
 20
-11.8091
  0
VERTEX
  8
taper
  5
5C5
 10
40.9519
 20
-11.8547
  0
VERTEX
  8
taper
  5
5C6
 10
41.0246
 20
-11.9004
  0
VERTEX
  8
taper
  5
5C7
 10
41.0974
 20
-11.9464
  0
VERTEX
  8
taper
  5
5C8
 10
41.1701
 20
-11.9925
  0
VERTEX
  8
taper
  5
5C9
 10
41.2428
 20
-12.0388
  0
VERTEX
  8
taper
  5
5CA
 10
41.3156
 20
-12.0853
  0
VERTEX
  8
taper
  5
5CB
 10
41.3883
 20
-12.132
  0
VERTEX
  8
taper
  5
5CC
 10
41.461
 20
-12.1788
  0
VERTEX
  8
taper
  5
5CD
 10
41.5338
 20
-12.2259
  0
VERTEX
  8
taper
  5
5CE
 10
41.6066
 20
-12.2731
  0
VERTEX
  8
taper
  5
5CF
 10
41.6792
 20
-12.3205
  0
VERTEX
  8
taper
  5
5D0
 10
41.752
 20
-12.3681
  0
VERTEX
  8
taper
  5
5D1
 10
41.8248
 20
-12.4159
  0
VERTEX
  8
taper
  5
5D2
 10
41.8974
 20
-12.4638
  0
VERTEX
  8
taper
  5
5D3
 10
41.9703
 20
-12.512
  0
VERTEX
  8
taper
  5
5D4
 10
42.043
 20
-12.5604
  0
VERTEX
  8
taper
  5
5D5
 10
42.1156
 20
-12.6088
  0
VERTEX
  8
taper
  5
5D6
 10
42.1885
 20
-12.6576
  0
VERTEX
  8
taper
  5
5D7
 10
42.2612
 20
-12.7065
  0
VERTEX
  8
taper
  5
5D8
 10
42.3339
 20
-12.7555
  0
VERTEX
  8
taper
  5
5D9
 10
42.4067
 20
-12.8049
  0
VERTEX
  8
taper
  5
5DA
 10
42.4794
 20
-12.8543
  0
VERTEX
  8
taper
  5
5DB
 10
42.5521
 20
-12.9039
  0
VERTEX
  8
taper
  5
5DC
 10
42.6249
 20
-12.9539
  0
VERTEX
  8
taper
  5
5DD
 10
42.6976
 20
-13.0039
  0
VERTEX
  8
taper
  5
5DE
 10
42.7703
 20
-13.0541
  0
VERTEX
  8
taper
  5
5DF
 10
42.8431
 20
-13.1046
  0
VERTEX
  8
taper
  5
5E0
 10
42.9159
 20
-13.1552
  0
VERTEX
  8
taper
  5
5E1
 10
42.9885
 20
-13.206
  0
VERTEX
  8
taper
  5
5E2
 10
43.0613
 20
-13.2571
  0
VERTEX
  8
taper
  5
5E3
 10
43.1341
 20
-13.3083
  0
VERTEX
  8
taper
  5
5E4
 10
43.2067
 20
-13.3597
  0
VERTEX
  8
taper
  5
5E5
 10
43.2796
 20
-13.4114
  0
VERTEX
  8
taper
  5
5E6
 10
43.3523
 20
-13.4632
  0
VERTEX
  8
taper
  5
5E7
 10
43.4249
 20
-13.5151
  0
VERTEX
  8
taper
  5
5E8
 10
43.4978
 20
-13.5674
  0
VERTEX
  8
taper
  5
5E9
 10
43.5705
 20
-13.6199
  0
VERTEX
  8
taper
  5
5EA
 10
43.6432
 20
-13.6724
  0
VERTEX
  8
taper
  5
5EB
 10
43.716
 20
-13.7253
  0
VERTEX
  8
taper
  5
5EC
 10
43.7887
 20
-13.7784
  0
VERTEX
  8
taper
  5
5ED
 10
43.8614
 20
-13.8315
  0
VERTEX
  8
taper
  5
5EE
 10
43.9342
 20
-13.8851
  0
VERTEX
  8
taper
  5
5EF
 10
44.0069
 20
-13.9387
  0
VERTEX
  8
taper
  5
5F0
 10
44.0796
 20
-13.9925
  0
VERTEX
  8
taper
  5
5F1
 10
44.1524
 20
-14.0467
  0
VERTEX
  8
taper
  5
5F2
 10
44.2252
 20
-14.1009
  0
VERTEX
  8
taper
  5
5F3
 10
44.2978
 20
-14.1554
  0
VERTEX
  8
taper
  5
5F4
 10
44.3706
 20
-14.2101
  0
VERTEX
  8
taper
  5
5F5
 10
44.4434
 20
-14.265
  0
VERTEX
  8
taper
  5
5F6
 10
44.516
 20
-14.3201
  0
VERTEX
  8
taper
  5
5F7
 10
44.5889
 20
-14.3755
  0
VERTEX
  8
taper
  5
5F8
 10
44.6616
 20
-14.431
  0
VERTEX
  8
taper
  5
5F9
 10
44.7342
 20
-14.4867
  0
VERTEX
  8
taper
  5
5FA
 10
44.8071
 20
-14.5428
  0
VERTEX
  8
taper
  5
5FB
 10
44.8798
 20
-14.599
  0
VERTEX
  8
taper
  5
5FC
 10
44.9524
 20
-14.6553
  0
VERTEX
  8
taper
  5
5FD
 10
45.0253
 20
-14.712
  0
VERTEX
  8
taper
  5
5FE
 10
45.098
 20
-14.7688
  0
VERTEX
  8
taper
  5
5FF
 10
45.1707
 20
-14.8258
  0
VERTEX
  8
taper
  5
600
 10
45.2435
 20
-14.8832
  0
VERTEX
  8
taper
  5
601
 10
45.3162
 20
-14.9406
  0
VERTEX
  8
taper
  5
602
 10
45.3889
 20
-14.9983
  0
VERTEX
  8
taper
  5
603
 10
45.4617
 20
-15.0563
  0
VERTEX
  8
taper
  5
604
 10
45.5345
 20
-15.1144
  0
VERTEX
  8
taper
  5
605
 10
45.6071
 20
-15.1727
  0
VERTEX
  8
taper
  5
606
 10
45.6799
 20
-15.2314
  0
VERTEX
  8
taper
  5
607
 10
45.7527
 20
-15.2902
  0
VERTEX
  8
taper
  5
608
 10
45.8253
 20
-15.3492
  0
VERTEX
  8
taper
  5
609
 10
45.8982
 20
-15.4086
  0
VERTEX
  8
taper
  5
60A
 10
45.9709
 20
-15.4681
  0
VERTEX
  8
taper
  5
60B
 10
46.0435
 20
-15.5277
  0
VERTEX
  8
taper
  5
60C
 10
46.1164
 20
-15.5878
  0
VERTEX
  8
taper
  5
60D
 10
46.1891
 20
-15.648
  0
VERTEX
  8
taper
  5
60E
 10
46.2617
 20
-15.7083
  0
VERTEX
  8
taper
  5
60F
 10
46.3346
 20
-15.769
  0
VERTEX
  8
taper
  5
610
 10
46.4073
 20
-15.8299
  0
VERTEX
  8
taper
  5
611
 10
46.48
 20
-15.891
  0
VERTEX
  8
taper
  5
612
 10
46.5528
 20
-15.9524
  0
VERTEX
  8
taper
  5
613
 10
46.6256
 20
-16.014
  0
VERTEX
  8
taper
  5
614
 10
46.6982
 20
-16.0757
  0
VERTEX
  8
taper
  5
615
 10
46.771
 20
-16.1379
  0
VERTEX
  8
taper
  5
616
 10
46.8438
 20
-16.2002
  0
VERTEX
  8
taper
  5
617
 10
46.9164
 20
-16.2627
  0
VERTEX
  8
taper
  5
618
 10
46.9893
 20
-16.3256
  0
VERTEX
  8
taper
  5
619
 10
47.062
 20
-16.3886
  0
VERTEX
  8
taper
  5
61A
 10
47.1346
 20
-16.4518
  0
VERTEX
  8
taper
  5
61B
 10
47.2075
 20
-16.5154
  0
VERTEX
  8
taper
  5
61C
 10
47.2802
 20
-16.5792
  0
VERTEX
  8
taper
  5
61D
 10
47.3528
 20
-16.6431
  0
VERTEX
  8
taper
  5
61E
 10
47.4257
 20
-16.7075
  0
VERTEX
  8
taper
  5
61F
 10
47.4984
 20
-16.772
  0
VERTEX
  8
taper
  5
620
 10
47.571
 20
-16.8366
  0
VERTEX
  8
taper
  5
621
 10
47.6439
 20
-16.9018
  0
VERTEX
  8
taper
  5
622
 10
47.7166
 20
-16.967
  0
VERTEX
  8
taper
  5
623
 10
47.7893
 20
-17.0324
  0
VERTEX
  8
taper
  5
624
 10
47.8621
 20
-17.0983
  0
VERTEX
  8
taper
  5
625
 10
47.9349
 20
-17.1643
  0
VERTEX
  8
taper
  5
626
 10
48.0075
 20
-17.2305
  0
VERTEX
  8
taper
  5
627
 10
48.0803
 20
-17.2972
  0
VERTEX
  8
taper
  5
628
 10
48.1531
 20
-17.364
  0
VERTEX
  8
taper
  5
629
 10
48.2257
 20
-17.4309
  0
VERTEX
  8
taper
  5
62A
 10
48.2986
 20
-17.4984
  0
VERTEX
  8
taper
  5
62B
 10
48.3713
 20
-17.5659
  0
VERTEX
  8
taper
  5
62C
 10
48.4439
 20
-17.6337
  0
VERTEX
  8
taper
  5
62D
 10
48.5168
 20
-17.7019
  0
VERTEX
  8
taper
  5
62E
 10
48.5895
 20
-17.7703
  0
VERTEX
  8
taper
  5
62F
 10
48.6621
 20
-17.8388
  0
VERTEX
  8
taper
  5
630
 10
48.735
 20
-17.9078
  0
VERTEX
  8
taper
  5
631
 10
48.8077
 20
-17.977
  0
VERTEX
  8
taper
  5
632
 10
48.8803
 20
-18.0463
  0
VERTEX
  8
taper
  5
633
 10
48.9532
 20
-18.1161
  0
VERTEX
  8
taper
  5
634
 10
49.0259
 20
-18.1861
  0
VERTEX
  8
taper
  5
635
 10
49.0985
 20
-18.2562
  0
VERTEX
  8
taper
  5
636
 10
49.1714
 20
-18.3269
  0
VERTEX
  8
taper
  5
637
 10
49.2442
 20
-18.3977
  0
VERTEX
  8
taper
  5
638
 10
49.3168
 20
-18.4686
  0
VERTEX
  8
taper
  5
639
 10
49.3896
 20
-18.5401
  0
VERTEX
  8
taper
  5
63A
 10
49.4624
 20
-18.6117
  0
VERTEX
  8
taper
  5
63B
 10
49.535
 20
-18.6835
  0
VERTEX
  8
taper
  5
63C
 10
49.6079
 20
-18.7558
  0
VERTEX
  8
taper
  5
63D
 10
49.6806
 20
-18.8283
  0
VERTEX
  8
taper
  5
63E
 10
49.7532
 20
-18.9009
  0
VERTEX
  8
taper
  5
63F
 10
49.8261
 20
-18.9741
  0
VERTEX
  8
taper
  5
640
 10
49.8988
 20
-19.0474
  0
VERTEX
  8
taper
  5
641
 10
49.9714
 20
-19.1208
  0
VERTEX
  8
taper
  5
642
 10
50.0443
 20
-19.1948
  0
VERTEX
  8
taper
  5
643
 10
50.117
 20
-19.269
  0
VERTEX
  8
taper
  5
644
 10
50.1896
 20
-19.3433
  0
VERTEX
  8
taper
  5
645
 10
50.2625
 20
-19.4182
  0
VERTEX
  8
taper
  5
646
 10
50.3353
 20
-19.4932
  0
VERTEX
  8
taper
  5
647
 10
50.4078
 20
-19.5684
  0
VERTEX
  8
taper
  5
648
 10
50.4807
 20
-19.6442
  0
VERTEX
  8
taper
  5
649
 10
50.5535
 20
-19.7201
  0
VERTEX
  8
taper
  5
64A
 10
50.6261
 20
-19.7961
  0
VERTEX
  8
taper
  5
64B
 10
50.6989
 20
-19.8728
  0
VERTEX
  8
taper
  5
64C
 10
50.7717
 20
-19.9496
  0
VERTEX
  8
taper
  5
64D
 10
50.8443
 20
-20.0265
  0
VERTEX
  8
taper
  5
64E
 10
50.9172
 20
-20.104
  0
VERTEX
  8
taper
  5
64F
 10
50.9899
 20
-20.1817
  0
VERTEX
  8
taper
  5
650
 10
51.0625
 20
-20.2595
  0
VERTEX
  8
taper
  5
651
 10
51.1354
 20
-20.338
  0
VERTEX
  8
taper
  5
652
 10
51.2081
 20
-20.4165
  0
VERTEX
  8
taper
  5
653
 10
51.2807
 20
-20.4953
  0
VERTEX
  8
taper
  5
654
 10
51.3536
 20
-20.5746
  0
VERTEX
  8
taper
  5
655
 10
51.4263
 20
-20.6541
  0
VERTEX
  8
taper
  5
656
 10
51.4989
 20
-20.7337
  0
VERTEX
  8
taper
  5
657
 10
51.5718
 20
-20.814
  0
VERTEX
  8
taper
  5
658
 10
51.6446
 20
-20.8944
  0
VERTEX
  8
taper
  5
659
 10
51.7171
 20
-20.975
  0
VERTEX
  8
taper
  5
65A
 10
51.79
 20
-21.0562
  0
VERTEX
  8
taper
  5
65B
 10
51.8628
 20
-21.1375
  0
VERTEX
  8
taper
  5
65C
 10
51.9354
 20
-21.219
  0
VERTEX
  8
taper
  5
65D
 10
52.0082
 20
-21.3012
  0
VERTEX
  8
taper
  5
65E
 10
52.081
 20
-21.3834
  0
VERTEX
  8
taper
  5
65F
 10
52.1536
 20
-21.4659
  0
VERTEX
  8
taper
  5
660
 10
52.2265
 20
-21.5489
  0
VERTEX
  8
taper
  5
661
 10
52.2992
 20
-21.6322
  0
VERTEX
  8
taper
  5
662
 10
52.3718
 20
-21.7155
  0
VERTEX
  8
taper
  5
663
 10
52.4447
 20
-21.7996
  0
VERTEX
  8
taper
  5
664
 10
52.5174
 20
-21.8838
  0
VERTEX
  8
taper
  5
665
 10
52.59
 20
-21.9681
  0
VERTEX
  8
taper
  5
666
 10
52.6629
 20
-22.0531
  0
VERTEX
  8
taper
  5
667
 10
52.7356
 20
-22.1383
  0
VERTEX
  8
taper
  5
668
 10
52.8082
 20
-22.2236
  0
VERTEX
  8
taper
  5
669
 10
52.8811
 20
-22.3096
  0
VERTEX
  8
taper
  5
66A
 10
52.9539
 20
-22.3958
  0
VERTEX
  8
taper
  5
66B
 10
53.0264
 20
-22.4821
  0
VERTEX
  8
taper
  5
66C
 10
53.0993
 20
-22.5691
  0
VERTEX
  8
taper
  5
66D
 10
53.1721
 20
-22.6562
  0
VERTEX
  8
taper
  5
66E
 10
53.2446
 20
-22.7435
  0
VERTEX
  8
taper
  5
66F
 10
53.3176
 20
-22.8315
  0
VERTEX
  8
taper
  5
670
 10
53.3903
 20
-22.9197
  0
VERTEX
  8
taper
  5
671
 10
53.4629
 20
-23.008
  0
VERTEX
  8
taper
  5
672
 10
53.5358
 20
-23.097
  0
VERTEX
  8
taper
  5
673
 10
53.6085
 20
-23.1862
  0
VERTEX
  8
taper
  5
674
 10
53.6811
 20
-23.2756
  0
VERTEX
  8
taper
  5
675
 10
53.754
 20
-23.3657
  0
VERTEX
  8
taper
  5
676
 10
53.8267
 20
-23.4559
  0
VERTEX
  8
taper
  5
677
 10
53.8993
 20
-23.5462
  0
VERTEX
  8
taper
  5
678
 10
53.9722
 20
-23.6374
  0
VERTEX
  8
taper
  5
679
 10
54.0449
 20
-23.7287
  0
VERTEX
  8
taper
  5
67A
 10
54.1175
 20
-23.8201
  0
VERTEX
  8
taper
  5
67B
 10
54.1904
 20
-23.9123
  0
VERTEX
  8
taper
  5
67C
 10
54.2632
 20
-24.0046
  0
VERTEX
  8
taper
  5
67D
 10
54.3357
 20
-24.0971
  0
VERTEX
  8
taper
  5
67E
 10
54.4086
 20
-24.1904
  0
VERTEX
  8
taper
  5
67F
 10
54.4814
 20
-24.2838
  0
VERTEX
  8
taper
  5
680
 10
54.5539
 20
-24.3774
  0
VERTEX
  8
taper
  5
681
 10
54.6269
 20
-24.4717
  0
VERTEX
  8
taper
  5
682
 10
54.6996
 20
-24.5663
  0
VERTEX
  8
taper
  5
683
 10
54.7722
 20
-24.6609
  0
VERTEX
  8
taper
  5
684
 10
54.8451
 20
-24.7564
  0
VERTEX
  8
taper
  5
685
 10
54.9178
 20
-24.852
  0
VERTEX
  8
taper
  5
686
 10
54.9904
 20
-24.9477
  0
VERTEX
  8
taper
  5
687
 10
55.0633
 20
-25.0443
  0
VERTEX
  8
taper
  5
688
 10
55.136
 20
-25.1411
  0
VERTEX
  8
taper
  5
689
 10
55.2086
 20
-25.2379
  0
VERTEX
  8
taper
  5
68A
 10
55.2815
 20
-25.3357
  0
VERTEX
  8
taper
  5
68B
 10
55.3542
 20
-25.4335
  0
VERTEX
  8
taper
  5
68C
 10
55.4268
 20
-25.5315
  0
VERTEX
  8
taper
  5
68D
 10
55.4997
 20
-25.6304
  0
VERTEX
  8
taper
  5
68E
 10
55.5725
 20
-25.7294
  0
VERTEX
  8
taper
  5
68F
 10
55.645
 20
-25.8286
  0
VERTEX
  8
taper
  5
690
 10
55.7179
 20
-25.9286
  0
VERTEX
  8
taper
  5
691
 10
55.7907
 20
-26.0288
  0
VERTEX
  8
taper
  5
692
 10
55.8632
 20
-26.1291
  0
VERTEX
  8
taper
  5
693
 10
55.9362
 20
-26.2303
  0
VERTEX
  8
taper
  5
694
 10
56.0089
 20
-26.3316
  0
VERTEX
  8
taper
  5
695
 10
56.0815
 20
-26.4331
  0
VERTEX
  8
taper
  5
696
 10
56.1544
 20
-26.5354
  0
VERTEX
  8
taper
  5
697
 10
56.2271
 20
-26.638
  0
VERTEX
  8
taper
  5
698
 10
56.2997
 20
-26.7406
  0
VERTEX
  8
taper
  5
699
 10
56.3726
 20
-26.8442
  0
VERTEX
  8
taper
  5
69A
 10
56.4453
 20
-26.9479
  0
VERTEX
  8
taper
  5
69B
 10
56.5179
 20
-27.0517
  0
VERTEX
  8
taper
  5
69C
 10
56.5908
 20
-27.1565
  0
VERTEX
  8
taper
  5
69D
 10
56.6636
 20
-27.2615
  0
VERTEX
  8
taper
  5
69E
 10
56.7361
 20
-27.3665
  0
VERTEX
  8
taper
  5
69F
 10
56.809
 20
-27.4725
  0
VERTEX
  8
taper
  5
6A0
 10
56.8818
 20
-27.5787
  0
VERTEX
  8
taper
  5
6A1
 10
56.9543
 20
-27.6849
  0
VERTEX
  8
taper
  5
6A2
 10
57.0272
 20
-27.7922
  0
VERTEX
  8
taper
  5
6A3
 10
57.1
 20
-27.8996
  0
VERTEX
  8
taper
  5
6A4
 10
57.1725
 20
-28.0071
  0
VERTEX
  8
taper
  5
6A5
 10
57.2455
 20
-28.1156
  0
VERTEX
  8
taper
  5
6A6
 10
57.3182
 20
-28.2242
  0
VERTEX
  8
taper
  5
6A7
 10
57.3907
 20
-28.333
  0
VERTEX
  8
taper
  5
6A8
 10
57.4637
 20
-28.4427
  0
VERTEX
  8
taper
  5
6A9
 10
57.5364
 20
-28.5526
  0
VERTEX
  8
taper
  5
6AA
 10
57.609
 20
-28.6626
  0
VERTEX
  8
taper
  5
6AB
 10
57.6819
 20
-28.7737
  0
VERTEX
  8
taper
  5
6AC
 10
57.7546
 20
-28.8848
  0
VERTEX
  8
taper
  5
6AD
 10
57.8272
 20
-28.9961
  0
VERTEX
  8
taper
  5
6AE
 10
57.9001
 20
-29.1084
  0
VERTEX
  8
taper
  5
6AF
 10
57.9729
 20
-29.2209
  0
VERTEX
  8
taper
  5
6B0
 10
58.0454
 20
-29.3335
  0
VERTEX
  8
taper
  5
6B1
 10
58.1183
 20
-29.4471
  0
VERTEX
  8
taper
  5
6B2
 10
58.1911
 20
-29.5608
  0
VERTEX
  8
taper
  5
6B3
 10
58.2636
 20
-29.6747
  0
VERTEX
  8
taper
  5
6B4
 10
58.3365
 20
-29.7897
  0
VERTEX
  8
taper
  5
6B5
 10
58.4093
 20
-29.9047
  0
VERTEX
  8
taper
  5
6B6
 10
58.4818
 20
-30.0199
  0
VERTEX
  8
taper
  5
6B7
 10
58.5548
 20
-30.1362
  0
VERTEX
  8
taper
  5
6B8
 10
58.6275
 20
-30.2526
  0
VERTEX
  8
taper
  5
6B9
 10
58.7
 20
-30.3691
  0
VERTEX
  8
taper
  5
6BA
 10
58.773
 20
-30.4867
  0
VERTEX
  8
taper
  5
6BB
 10
58.8457
 20
-30.6045
  0
VERTEX
  8
taper
  5
6BC
 10
58.9183
 20
-30.7223
  0
VERTEX
  8
taper
  5
6BD
 10
58.9912
 20
-30.8413
  0
VERTEX
  8
taper
  5
6BE
 10
59.0639
 20
-30.9604
  0
VERTEX
  8
taper
  5
6BF
 10
59.1365
 20
-31.0796
  0
VERTEX
  8
taper
  5
6C0
 10
59.2094
 20
-31.2
  0
VERTEX
  8
taper
  5
6C1
 10
59.2822
 20
-31.3205
  0
VERTEX
  8
taper
  5
6C2
 10
59.3547
 20
-31.4411
  0
VERTEX
  8
taper
  5
6C3
 10
59.4276
 20
-31.5628
  0
VERTEX
  8
taper
  5
6C4
 10
59.5004
 20
-31.6847
  0
VERTEX
  8
taper
  5
6C5
 10
59.5729
 20
-31.8067
  0
VERTEX
  8
taper
  5
6C6
 10
59.6459
 20
-31.9299
  0
VERTEX
  8
taper
  5
6C7
 10
59.7186
 20
-32.0532
  0
VERTEX
  8
taper
  5
6C8
 10
59.7911
 20
-32.1766
  0
VERTEX
  8
taper
  5
6C9
 10
59.8641
 20
-32.3013
  0
VERTEX
  8
taper
  5
6CA
 10
59.9368
 20
-32.426
  0
VERTEX
  8
taper
  5
6CB
 10
60.0093
 20
-32.5509
  0
VERTEX
  8
taper
  5
6CC
 10
60.0823
 20
-32.6769
  0
VERTEX
  8
taper
  5
6CD
 10
60.155
 20
-32.8031
  0
VERTEX
  8
taper
  5
6CE
 10
60.2276
 20
-32.9294
  0
VERTEX
  8
taper
  5
6CF
 10
60.3005
 20
-33.057
  0
VERTEX
  8
taper
  5
6D0
 10
60.3732
 20
-33.1846
  0
VERTEX
  8
taper
  5
6D1
 10
60.4458
 20
-33.3124
  0
VERTEX
  8
taper
  5
6D2
 10
60.5187
 20
-33.4414
  0
VERTEX
  8
taper
  5
6D3
 10
60.5915
 20
-33.5706
  0
VERTEX
  8
taper
  5
6D4
 10
60.664
 20
-33.6999
  0
VERTEX
  8
taper
  5
6D5
 10
60.7369
 20
-33.8304
  0
VERTEX
  8
taper
  5
6D6
 10
60.8097
 20
-33.9611
  0
VERTEX
  8
taper
  5
6D7
 10
60.8822
 20
-34.0919
  0
VERTEX
  8
taper
  5
6D8
 10
60.9552
 20
-34.2239
  0
VERTEX
  8
taper
  5
6D9
 10
61.0279
 20
-34.3561
  0
VERTEX
  8
taper
  5
6DA
 10
61.1004
 20
-34.4884
  0
VERTEX
  8
taper
  5
6DB
 10
61.1734
 20
-34.622
  0
VERTEX
  8
taper
  5
6DC
 10
61.2461
 20
-34.7558
  0
VERTEX
  8
taper
  5
6DD
 10
61.3186
 20
-34.8896
  0
VERTEX
  8
taper
  5
6DE
 10
61.3916
 20
-35.0248
  0
VERTEX
  8
taper
  5
6DF
 10
61.4643
 20
-35.1601
  0
VERTEX
  8
taper
  5
6E0
 10
61.5368
 20
-35.2955
  0
VERTEX
  8
taper
  5
6E1
 10
61.6098
 20
-35.4322
  0
VERTEX
  8
taper
  5
6E2
 10
61.6825
 20
-35.5691
  0
VERTEX
  8
taper
  5
6E3
 10
61.7551
 20
-35.7061
  0
VERTEX
  8
taper
  5
6E4
 10
61.828
 20
-35.8444
  0
VERTEX
  8
taper
  5
6E5
 10
61.9008
 20
-35.9829
  0
VERTEX
  8
taper
  5
6E6
 10
61.9733
 20
-36.1215
  0
VERTEX
  8
taper
  5
6E7
 10
62.0462
 20
-36.2615
  0
VERTEX
  8
taper
  5
6E8
 10
62.119
 20
-36.4015
  0
VERTEX
  8
taper
  5
6E9
 10
62.1915
 20
-36.5417
  0
VERTEX
  8
taper
  5
6EA
 10
62.2645
 20
-36.6834
  0
VERTEX
  8
taper
  5
6EB
 10
62.3372
 20
-36.8251
  0
VERTEX
  8
taper
  5
6EC
 10
62.4097
 20
-36.9669
  0
VERTEX
  8
taper
  5
6ED
 10
62.4827
 20
-37.1102
  0
VERTEX
  8
taper
  5
6EE
 10
62.5554
 20
-37.2535
  0
VERTEX
  8
taper
  5
6EF
 10
62.6279
 20
-37.397
  0
VERTEX
  8
taper
  5
6F0
 10
62.7009
 20
-37.5419
  0
VERTEX
  8
taper
  5
6F1
 10
62.7736
 20
-37.687
  0
VERTEX
  8
taper
  5
6F2
 10
62.8461
 20
-37.8321
  0
VERTEX
  8
taper
  5
6F3
 10
62.9191
 20
-37.9788
  0
VERTEX
  8
taper
  5
6F4
 10
62.9918
 20
-38.1255
  0
VERTEX
  8
taper
  5
6F5
 10
63.0644
 20
-38.2723
  0
VERTEX
  8
taper
  5
6F6
 10
63.1373
 20
-38.4206
  0
VERTEX
  8
taper
  5
6F7
 10
63.2101
 20
-38.5691
  0
VERTEX
  8
taper
  5
6F8
 10
63.2826
 20
-38.7176
  0
VERTEX
  8
taper
  5
6F9
 10
63.3555
 20
-38.8677
  0
VERTEX
  8
taper
  5
6FA
 10
63.4283
 20
-39.0178
  0
VERTEX
  8
taper
  5
6FB
 10
63.5008
 20
-39.1681
  0
VERTEX
  8
taper
  5
6FC
 10
63.5738
 20
-39.3199
  0
VERTEX
  8
taper
  5
6FD
 10
63.6465
 20
-39.4718
  0
VERTEX
  8
taper
  5
6FE
 10
63.719
 20
-39.6238
  0
VERTEX
  8
taper
  5
6FF
 10
63.792
 20
-39.7773
  0
VERTEX
  8
taper
  5
700
 10
63.8647
 20
-39.931
  0
VERTEX
  8
taper
  5
701
 10
63.9372
 20
-40.0848
  0
VERTEX
  8
taper
  5
702
 10
64.0102
 20
-40.2401
  0
VERTEX
  8
taper
  5
703
 10
64.0829
 20
-40.3955
  0
VERTEX
  8
taper
  5
704
 10
64.1554
 20
-40.5511
  0
VERTEX
  8
taper
  5
705
 10
64.2284
 20
-40.7082
  0
VERTEX
  8
taper
  5
706
 10
64.3011
 20
-40.8654
  0
VERTEX
  8
taper
  5
707
 10
64.3737
 20
-41.0228
  0
VERTEX
  8
taper
  5
708
 10
64.4466
 20
-41.1817
  0
VERTEX
  8
taper
  5
709
 10
64.5194
 20
-41.3408
  0
VERTEX
  8
taper
  5
70A
 10
64.5919
 20
-41.5
  0
VERTEX
  8
taper
  5
70B
 10
-50.239
 20
-41.5
  0
VERTEX
  8
taper
  5
70C
 10
-50.239
 20
41.5
  0
SEQEND
  8
taper
  5
70D
  0
POLYLINE
  8
taper
  5
70E
 66
1
 10
0.0
 20
0.0
 30
0.0
 70
1
  0
VERTEX
  8
taper
  5
70F
 10
83.0
 20
41.5
  0
VERTEX
  8
taper
  5
710
 10
83.0
 20
-41.5
  0
VERTEX
  8
taper
  5
711
 10
-50.239
 20
-41.5
  0
VERTEX
  8
taper
  5
712
 10
-50.239
 20
41.5
  0
SEQEND
  8
taper
  5
713
  0
POLYLINE
  8
taper
  5
714
 66
1
 10
0.0
 20
0.0
 30
0.0
 70
1
  0
VERTEX
  8
taper
  5
715
 10
183.0
 20
-141.5
  0
VERTEX
  8
taper
  5
716
 10
-150.239
 20
-141.5
  0
VERTEX
  8
taper
  5
717
 10
-150.239
 20
141.5
  0
VERTEX
  8
taper
  5
718
 10
183.0
 20
141.5
  0
SEQEND
  8
taper
  5
719
  0
ENDSEC
  0
EOF
