  0
SECTION
  2
ENTITIES
  0
POLYLINE
  8
detector-simmetrical-2rstub
  5
1
 66
1
 10
0.0
 20
0.0
 30
0.0
 70
1
  0
VERTEX
  8
detector-simmetrical-2rstub
  5
2
 10
19.5083
 20
27.5626
  0
VERTEX
  8
detector-simmetrical-2rstub
  5
3
 10
19.5152
 20
27.6143
  0
VERTEX
  8
detector-simmetrical-2rstub
  5
4
 10
19.5351
 20
27.6626
  0
VERTEX
  8
detector-simmetrical-2rstub
  5
5
 10
19.5669
 20
27.704
  0
VERTEX
  8
detector-simmetrical-2rstub
  5
6
 10
19.6083
 20
27.7358
  0
VERTEX
  8
detector-simmetrical-2rstub
  5
7
 10
19.6566
 20
27.7558
  0
VERTEX
  8
detector-simmetrical-2rstub
  5
8
 10
19.7083
 20
27.7626
  0
VERTEX
  8
detector-simmetrical-2rstub
  5
9
 10
19.7601
 20
27.7558
  0
VERTEX
  8
detector-simmetrical-2rstub
  5
A
 10
19.8083
 20
27.7358
  0
VERTEX
  8
detector-simmetrical-2rstub
  5
B
 10
19.8498
 20
27.704
  0
VERTEX
  8
detector-simmetrical-2rstub
  5
C
 10
19.8816
 20
27.6626
  0
VERTEX
  8
detector-simmetrical-2rstub
  5
D
 10
19.9015
 20
27.6143
  0
VERTEX
  8
detector-simmetrical-2rstub
  5
E
 10
19.9083
 20
27.5626
  0
VERTEX
  8
detector-simmetrical-2rstub
  5
F
 10
19.9015
 20
27.5108
  0
VERTEX
  8
detector-simmetrical-2rstub
  5
10
 10
19.8816
 20
27.4626
  0
VERTEX
  8
detector-simmetrical-2rstub
  5
11
 10
19.8498
 20
27.4212
  0
VERTEX
  8
detector-simmetrical-2rstub
  5
12
 10
19.8083
 20
27.3894
  0
VERTEX
  8
detector-simmetrical-2rstub
  5
13
 10
19.7601
 20
27.3694
  0
VERTEX
  8
detector-simmetrical-2rstub
  5
14
 10
19.7083
 20
27.3626
  0
VERTEX
  8
detector-simmetrical-2rstub
  5
15
 10
19.6566
 20
27.3694
  0
VERTEX
  8
detector-simmetrical-2rstub
  5
16
 10
19.6083
 20
27.3894
  0
VERTEX
  8
detector-simmetrical-2rstub
  5
17
 10
19.5669
 20
27.4212
  0
VERTEX
  8
detector-simmetrical-2rstub
  5
18
 10
19.5351
 20
27.4626
  0
VERTEX
  8
detector-simmetrical-2rstub
  5
19
 10
19.5152
 20
27.5108
  0
SEQEND
  8
detector-simmetrical-2rstub
  5
1A
  0
POLYLINE
  8
detector-simmetrical-2rstub
  5
1B
 66
1
 10
0.0
 20
0.0
 30
0.0
 70
1
  0
VERTEX
  8
detector-simmetrical-2rstub
  5
1C
 10
19.5083
 20
27.5626
  0
VERTEX
  8
detector-simmetrical-2rstub
  5
1D
 10
19.5152
 20
27.6143
  0
VERTEX
  8
detector-simmetrical-2rstub
  5
1E
 10
19.5351
 20
27.6626
  0
VERTEX
  8
detector-simmetrical-2rstub
  5
1F
 10
19.5669
 20
27.704
  0
VERTEX
  8
detector-simmetrical-2rstub
  5
20
 10
19.6083
 20
27.7358
  0
VERTEX
  8
detector-simmetrical-2rstub
  5
21
 10
19.6566
 20
27.7558
  0
VERTEX
  8
detector-simmetrical-2rstub
  5
22
 10
19.7083
 20
27.7626
  0
VERTEX
  8
detector-simmetrical-2rstub
  5
23
 10
19.7601
 20
27.7558
  0
VERTEX
  8
detector-simmetrical-2rstub
  5
24
 10
19.8083
 20
27.7358
  0
VERTEX
  8
detector-simmetrical-2rstub
  5
25
 10
19.8498
 20
27.704
  0
VERTEX
  8
detector-simmetrical-2rstub
  5
26
 10
19.8816
 20
27.6626
  0
VERTEX
  8
detector-simmetrical-2rstub
  5
27
 10
19.9015
 20
27.6143
  0
VERTEX
  8
detector-simmetrical-2rstub
  5
28
 10
19.9083
 20
27.5626
  0
VERTEX
  8
detector-simmetrical-2rstub
  5
29
 10
19.9015
 20
27.5108
  0
VERTEX
  8
detector-simmetrical-2rstub
  5
2A
 10
19.8816
 20
27.4626
  0
VERTEX
  8
detector-simmetrical-2rstub
  5
2B
 10
19.8498
 20
27.4212
  0
VERTEX
  8
detector-simmetrical-2rstub
  5
2C
 10
19.8083
 20
27.3894
  0
VERTEX
  8
detector-simmetrical-2rstub
  5
2D
 10
19.7601
 20
27.3694
  0
VERTEX
  8
detector-simmetrical-2rstub
  5
2E
 10
19.7083
 20
27.3626
  0
VERTEX
  8
detector-simmetrical-2rstub
  5
2F
 10
19.6566
 20
27.3694
  0
VERTEX
  8
detector-simmetrical-2rstub
  5
30
 10
19.6083
 20
27.3894
  0
VERTEX
  8
detector-simmetrical-2rstub
  5
31
 10
19.5669
 20
27.4212
  0
VERTEX
  8
detector-simmetrical-2rstub
  5
32
 10
19.5351
 20
27.4626
  0
VERTEX
  8
detector-simmetrical-2rstub
  5
33
 10
19.5152
 20
27.5108
  0
SEQEND
  8
detector-simmetrical-2rstub
  5
34
  0
POLYLINE
  8
detector-simmetrical-2rstub
  5
35
 66
1
 10
0.0
 20
0.0
 30
0.0
 70
1
  0
VERTEX
  8
detector-simmetrical-2rstub
  5
36
 10
0.0701331
 20
42.5105
  0
VERTEX
  8
detector-simmetrical-2rstub
  5
37
 10
0.0735405
 20
42.5364
  0
VERTEX
  8
detector-simmetrical-2rstub
  5
38
 10
0.0835305
 20
42.5605
  0
VERTEX
  8
detector-simmetrical-2rstub
  5
39
 10
0.0994224
 20
42.5812
  0
VERTEX
  8
detector-simmetrical-2rstub
  5
3A
 10
0.120133
 20
42.5971
  0
VERTEX
  8
detector-simmetrical-2rstub
  5
3B
 10
0.144251
 20
42.6071
  0
VERTEX
  8
detector-simmetrical-2rstub
  5
3C
 10
0.170133
 20
42.6105
  0
VERTEX
  8
detector-simmetrical-2rstub
  5
3D
 10
0.196015
 20
42.6071
  0
VERTEX
  8
detector-simmetrical-2rstub
  5
3E
 10
0.220133
 20
42.5971
  0
VERTEX
  8
detector-simmetrical-2rstub
  5
3F
 10
0.240844
 20
42.5812
  0
VERTEX
  8
detector-simmetrical-2rstub
  5
40
 10
0.256736
 20
42.5605
  0
VERTEX
  8
detector-simmetrical-2rstub
  5
41
 10
0.266726
 20
42.5364
  0
VERTEX
  8
detector-simmetrical-2rstub
  5
42
 10
0.270133
 20
42.5105
  0
VERTEX
  8
detector-simmetrical-2rstub
  5
43
 10
0.266726
 20
42.4846
  0
VERTEX
  8
detector-simmetrical-2rstub
  5
44
 10
0.256736
 20
42.4605
  0
VERTEX
  8
detector-simmetrical-2rstub
  5
45
 10
0.240844
 20
42.4398
  0
VERTEX
  8
detector-simmetrical-2rstub
  5
46
 10
0.220133
 20
42.4239
  0
VERTEX
  8
detector-simmetrical-2rstub
  5
47
 10
0.196015
 20
42.4139
  0
VERTEX
  8
detector-simmetrical-2rstub
  5
48
 10
0.170133
 20
42.4105
  0
VERTEX
  8
detector-simmetrical-2rstub
  5
49
 10
0.144251
 20
42.4139
  0
VERTEX
  8
detector-simmetrical-2rstub
  5
4A
 10
0.120133
 20
42.4239
  0
VERTEX
  8
detector-simmetrical-2rstub
  5
4B
 10
0.0994224
 20
42.4398
  0
VERTEX
  8
detector-simmetrical-2rstub
  5
4C
 10
0.0835305
 20
42.4605
  0
VERTEX
  8
detector-simmetrical-2rstub
  5
4D
 10
0.0735405
 20
42.4846
  0
SEQEND
  8
detector-simmetrical-2rstub
  5
4E
  0
POLYLINE
  8
detector-simmetrical-2rstub
  5
4F
 66
1
 10
0.0
 20
0.0
 30
0.0
 70
1
  0
VERTEX
  8
detector-simmetrical-2rstub
  5
50
 10
0.270133
 20
42.5105
  0
VERTEX
  8
detector-simmetrical-2rstub
  5
51
 10
0.266726
 20
42.4846
  0
VERTEX
  8
detector-simmetrical-2rstub
  5
52
 10
0.256736
 20
42.4605
  0
VERTEX
  8
detector-simmetrical-2rstub
  5
53
 10
0.240844
 20
42.4398
  0
VERTEX
  8
detector-simmetrical-2rstub
  5
54
 10
0.220133
 20
42.4239
  0
VERTEX
  8
detector-simmetrical-2rstub
  5
55
 10
0.196015
 20
42.4139
  0
VERTEX
  8
detector-simmetrical-2rstub
  5
56
 10
0.170133
 20
42.4105
  0
VERTEX
  8
detector-simmetrical-2rstub
  5
57
 10
0.144251
 20
42.4139
  0
VERTEX
  8
detector-simmetrical-2rstub
  5
58
 10
0.120133
 20
42.4239
  0
VERTEX
  8
detector-simmetrical-2rstub
  5
59
 10
0.0994224
 20
42.4398
  0
VERTEX
  8
detector-simmetrical-2rstub
  5
5A
 10
0.0835305
 20
42.4605
  0
VERTEX
  8
detector-simmetrical-2rstub
  5
5B
 10
0.0735405
 20
42.4846
  0
VERTEX
  8
detector-simmetrical-2rstub
  5
5C
 10
0.0701331
 20
42.5105
  0
VERTEX
  8
detector-simmetrical-2rstub
  5
5D
 10
0.0735405
 20
42.5364
  0
VERTEX
  8
detector-simmetrical-2rstub
  5
5E
 10
0.0835305
 20
42.5605
  0
VERTEX
  8
detector-simmetrical-2rstub
  5
5F
 10
0.0994224
 20
42.5812
  0
VERTEX
  8
detector-simmetrical-2rstub
  5
60
 10
0.120133
 20
42.5971
  0
VERTEX
  8
detector-simmetrical-2rstub
  5
61
 10
0.144251
 20
42.6071
  0
VERTEX
  8
detector-simmetrical-2rstub
  5
62
 10
0.170133
 20
42.6105
  0
VERTEX
  8
detector-simmetrical-2rstub
  5
63
 10
0.196015
 20
42.6071
  0
VERTEX
  8
detector-simmetrical-2rstub
  5
64
 10
0.220133
 20
42.5971
  0
VERTEX
  8
detector-simmetrical-2rstub
  5
65
 10
0.240844
 20
42.5812
  0
VERTEX
  8
detector-simmetrical-2rstub
  5
66
 10
0.256736
 20
42.5605
  0
VERTEX
  8
detector-simmetrical-2rstub
  5
67
 10
0.266726
 20
42.5364
  0
SEQEND
  8
detector-simmetrical-2rstub
  5
68
  0
POLYLINE
  8
detector-simmetrical-2rstub
  5
69
 66
1
 10
0.0
 20
0.0
 30
0.0
 70
1
  0
VERTEX
  8
detector-simmetrical-2rstub
  5
6A
 10
0.420133
 20
41.7605
  0
VERTEX
  8
detector-simmetrical-2rstub
  5
6B
 10
-0.0798669
 20
41.7605
  0
VERTEX
  8
detector-simmetrical-2rstub
  5
6C
 10
-0.0798669
 20
43.2605
  0
VERTEX
  8
detector-simmetrical-2rstub
  5
6D
 10
0.420133
 20
43.2605
  0
SEQEND
  8
detector-simmetrical-2rstub
  5
6E
  0
POLYLINE
  8
detector-simmetrical-2rstub
  5
6F
 66
1
 10
0.0
 20
0.0
 30
0.0
 70
1
  0
VERTEX
  8
detector-simmetrical-2rstub
  5
70
 10
-0.0798669
 20
42.7605
  0
VERTEX
  8
detector-simmetrical-2rstub
  5
71
 10
-0.579867
 20
42.7605
  0
VERTEX
  8
detector-simmetrical-2rstub
  5
72
 10
-0.579867
 20
43.2605
  0
VERTEX
  8
detector-simmetrical-2rstub
  5
73
 10
-0.0798669
 20
43.2605
  0
SEQEND
  8
detector-simmetrical-2rstub
  5
74
  0
POLYLINE
  8
detector-simmetrical-2rstub
  5
75
 66
1
 10
0.0
 20
0.0
 30
0.0
 70
1
  0
VERTEX
  8
detector-simmetrical-2rstub
  5
76
 10
-0.0798669
 20
41.7605
  0
VERTEX
  8
detector-simmetrical-2rstub
  5
77
 10
-0.579867
 20
41.7605
  0
VERTEX
  8
detector-simmetrical-2rstub
  5
78
 10
-0.579867
 20
42.2605
  0
VERTEX
  8
detector-simmetrical-2rstub
  5
79
 10
-0.0798669
 20
42.2605
  0
SEQEND
  8
detector-simmetrical-2rstub
  5
7A
  0
POLYLINE
  8
detector-simmetrical-2rstub
  5
7B
 66
1
 10
0.0
 20
0.0
 30
0.0
 70
1
  0
VERTEX
  8
detector-simmetrical-2rstub
  5
7C
 10
-0.829867
 20
38.6605
  0
VERTEX
  8
detector-simmetrical-2rstub
  5
7D
 10
-1.32987
 20
38.6605
  0
VERTEX
  8
detector-simmetrical-2rstub
  5
7E
 10
-1.32987
 20
38.7605
  0
VERTEX
  8
detector-simmetrical-2rstub
  5
7F
 10
-0.829867
 20
38.7605
  0
SEQEND
  8
detector-simmetrical-2rstub
  5
80
  0
POLYLINE
  8
detector-simmetrical-2rstub
  5
81
 66
1
 10
0.0
 20
0.0
 30
0.0
 70
1
  0
VERTEX
  8
detector-simmetrical-2rstub
  5
82
 10
-0.829867
 20
38.5605
  0
VERTEX
  8
detector-simmetrical-2rstub
  5
83
 10
-1.32987
 20
38.5605
  0
VERTEX
  8
detector-simmetrical-2rstub
  5
84
 10
-1.32987
 20
38.6605
  0
VERTEX
  8
detector-simmetrical-2rstub
  5
85
 10
-0.829867
 20
38.6605
  0
SEQEND
  8
detector-simmetrical-2rstub
  5
86
  0
POLYLINE
  8
detector-simmetrical-2rstub
  5
87
 66
1
 10
0.0
 20
0.0
 30
0.0
 70
1
  0
VERTEX
  8
detector-simmetrical-2rstub
  5
88
 10
-1.57987
 20
42.7605
  0
VERTEX
  8
detector-simmetrical-2rstub
  5
89
 10
-2.07987
 20
42.7605
  0
VERTEX
  8
detector-simmetrical-2rstub
  5
8A
 10
-2.07987
 20
43.2605
  0
VERTEX
  8
detector-simmetrical-2rstub
  5
8B
 10
-1.57987
 20
43.2605
  0
SEQEND
  8
detector-simmetrical-2rstub
  5
8C
  0
POLYLINE
  8
detector-simmetrical-2rstub
  5
8D
 66
1
 10
0.0
 20
0.0
 30
0.0
 70
1
  0
VERTEX
  8
detector-simmetrical-2rstub
  5
8E
 10
-1.57987
 20
41.7605
  0
VERTEX
  8
detector-simmetrical-2rstub
  5
8F
 10
-2.07987
 20
41.7605
  0
VERTEX
  8
detector-simmetrical-2rstub
  5
90
 10
-2.07987
 20
42.2605
  0
VERTEX
  8
detector-simmetrical-2rstub
  5
91
 10
-1.57987
 20
42.2605
  0
SEQEND
  8
detector-simmetrical-2rstub
  5
92
  0
POLYLINE
  8
detector-simmetrical-2rstub
  5
93
 66
1
 10
0.0
 20
0.0
 30
0.0
 70
1
  0
VERTEX
  8
detector-simmetrical-2rstub
  5
94
 10
-2.42987
 20
42.5105
  0
VERTEX
  8
detector-simmetrical-2rstub
  5
95
 10
-2.42646
 20
42.5364
  0
VERTEX
  8
detector-simmetrical-2rstub
  5
96
 10
-2.41647
 20
42.5605
  0
VERTEX
  8
detector-simmetrical-2rstub
  5
97
 10
-2.40058
 20
42.5812
  0
VERTEX
  8
detector-simmetrical-2rstub
  5
98
 10
-2.37987
 20
42.5971
  0
VERTEX
  8
detector-simmetrical-2rstub
  5
99
 10
-2.35575
 20
42.6071
  0
VERTEX
  8
detector-simmetrical-2rstub
  5
9A
 10
-2.32987
 20
42.6105
  0
VERTEX
  8
detector-simmetrical-2rstub
  5
9B
 10
-2.30399
 20
42.6071
  0
VERTEX
  8
detector-simmetrical-2rstub
  5
9C
 10
-2.27987
 20
42.5971
  0
VERTEX
  8
detector-simmetrical-2rstub
  5
9D
 10
-2.25916
 20
42.5812
  0
VERTEX
  8
detector-simmetrical-2rstub
  5
9E
 10
-2.24326
 20
42.5605
  0
VERTEX
  8
detector-simmetrical-2rstub
  5
9F
 10
-2.23327
 20
42.5364
  0
VERTEX
  8
detector-simmetrical-2rstub
  5
A0
 10
-2.22987
 20
42.5105
  0
VERTEX
  8
detector-simmetrical-2rstub
  5
A1
 10
-2.23327
 20
42.4846
  0
VERTEX
  8
detector-simmetrical-2rstub
  5
A2
 10
-2.24326
 20
42.4605
  0
VERTEX
  8
detector-simmetrical-2rstub
  5
A3
 10
-2.25916
 20
42.4398
  0
VERTEX
  8
detector-simmetrical-2rstub
  5
A4
 10
-2.27987
 20
42.4239
  0
VERTEX
  8
detector-simmetrical-2rstub
  5
A5
 10
-2.30399
 20
42.4139
  0
VERTEX
  8
detector-simmetrical-2rstub
  5
A6
 10
-2.32987
 20
42.4105
  0
VERTEX
  8
detector-simmetrical-2rstub
  5
A7
 10
-2.35575
 20
42.4139
  0
VERTEX
  8
detector-simmetrical-2rstub
  5
A8
 10
-2.37987
 20
42.4239
  0
VERTEX
  8
detector-simmetrical-2rstub
  5
A9
 10
-2.40058
 20
42.4398
  0
VERTEX
  8
detector-simmetrical-2rstub
  5
AA
 10
-2.41647
 20
42.4605
  0
VERTEX
  8
detector-simmetrical-2rstub
  5
AB
 10
-2.42646
 20
42.4846
  0
SEQEND
  8
detector-simmetrical-2rstub
  5
AC
  0
POLYLINE
  8
detector-simmetrical-2rstub
  5
AD
 66
1
 10
0.0
 20
0.0
 30
0.0
 70
1
  0
VERTEX
  8
detector-simmetrical-2rstub
  5
AE
 10
-2.22987
 20
42.5105
  0
VERTEX
  8
detector-simmetrical-2rstub
  5
AF
 10
-2.23327
 20
42.4846
  0
VERTEX
  8
detector-simmetrical-2rstub
  5
B0
 10
-2.24326
 20
42.4605
  0
VERTEX
  8
detector-simmetrical-2rstub
  5
B1
 10
-2.25916
 20
42.4398
  0
VERTEX
  8
detector-simmetrical-2rstub
  5
B2
 10
-2.27987
 20
42.4239
  0
VERTEX
  8
detector-simmetrical-2rstub
  5
B3
 10
-2.30399
 20
42.4139
  0
VERTEX
  8
detector-simmetrical-2rstub
  5
B4
 10
-2.32987
 20
42.4105
  0
VERTEX
  8
detector-simmetrical-2rstub
  5
B5
 10
-2.35575
 20
42.4139
  0
VERTEX
  8
detector-simmetrical-2rstub
  5
B6
 10
-2.37987
 20
42.4239
  0
VERTEX
  8
detector-simmetrical-2rstub
  5
B7
 10
-2.40058
 20
42.4398
  0
VERTEX
  8
detector-simmetrical-2rstub
  5
B8
 10
-2.41647
 20
42.4605
  0
VERTEX
  8
detector-simmetrical-2rstub
  5
B9
 10
-2.42646
 20
42.4846
  0
VERTEX
  8
detector-simmetrical-2rstub
  5
BA
 10
-2.42987
 20
42.5105
  0
VERTEX
  8
detector-simmetrical-2rstub
  5
BB
 10
-2.42646
 20
42.5364
  0
VERTEX
  8
detector-simmetrical-2rstub
  5
BC
 10
-2.41647
 20
42.5605
  0
VERTEX
  8
detector-simmetrical-2rstub
  5
BD
 10
-2.40058
 20
42.5812
  0
VERTEX
  8
detector-simmetrical-2rstub
  5
BE
 10
-2.37987
 20
42.5971
  0
VERTEX
  8
detector-simmetrical-2rstub
  5
BF
 10
-2.35575
 20
42.6071
  0
VERTEX
  8
detector-simmetrical-2rstub
  5
C0
 10
-2.32987
 20
42.6105
  0
VERTEX
  8
detector-simmetrical-2rstub
  5
C1
 10
-2.30399
 20
42.6071
  0
VERTEX
  8
detector-simmetrical-2rstub
  5
C2
 10
-2.27987
 20
42.5971
  0
VERTEX
  8
detector-simmetrical-2rstub
  5
C3
 10
-2.25916
 20
42.5812
  0
VERTEX
  8
detector-simmetrical-2rstub
  5
C4
 10
-2.24326
 20
42.5605
  0
VERTEX
  8
detector-simmetrical-2rstub
  5
C5
 10
-2.23327
 20
42.5364
  0
SEQEND
  8
detector-simmetrical-2rstub
  5
C6
  0
POLYLINE
  8
detector-simmetrical-2rstub
  5
C7
 66
1
 10
0.0
 20
0.0
 30
0.0
 70
1
  0
VERTEX
  8
detector-simmetrical-2rstub
  5
C8
 10
-2.07987
 20
41.7605
  0
VERTEX
  8
detector-simmetrical-2rstub
  5
C9
 10
-2.57987
 20
41.7605
  0
VERTEX
  8
detector-simmetrical-2rstub
  5
CA
 10
-2.57987
 20
43.2605
  0
VERTEX
  8
detector-simmetrical-2rstub
  5
CB
 10
-2.07987
 20
43.2605
  0
SEQEND
  8
detector-simmetrical-2rstub
  5
CC
  0
POLYLINE
  8
detector-simmetrical-2rstub
  5
CD
 66
1
 10
0.0
 20
0.0
 30
0.0
 70
1
  0
VERTEX
  8
detector-simmetrical-2rstub
  5
CE
 10
-3.52755
 20
-1.52357e-016
  0
VERTEX
  8
detector-simmetrical-2rstub
  5
CF
 10
-1.99755
 20
0.0
  0
SEQEND
  8
detector-simmetrical-2rstub
  5
D0
  0
POLYLINE
  8
detector-simmetrical-2rstub
  5
D1
 66
1
 10
0.0
 20
0.0
 30
0.0
 70
1
  0
VERTEX
  8
detector-simmetrical-2rstub
  5
D2
 10
19.7083
 20
29.768
  0
VERTEX
  8
detector-simmetrical-2rstub
  5
D3
 10
19.7083
 20
27.9626
  0
VERTEX
  8
detector-simmetrical-2rstub
  5
D4
 10
19.8119
 20
27.9489
  0
VERTEX
  8
detector-simmetrical-2rstub
  5
D5
 10
19.9083
 20
27.909
  0
VERTEX
  8
detector-simmetrical-2rstub
  5
D6
 10
19.9912
 20
27.8454
  0
VERTEX
  8
detector-simmetrical-2rstub
  5
D7
 10
20.0548
 20
27.7626
  0
VERTEX
  8
detector-simmetrical-2rstub
  5
D8
 10
20.0947
 20
27.6661
  0
VERTEX
  8
detector-simmetrical-2rstub
  5
D9
 10
20.1083
 20
27.5626
  0
VERTEX
  8
detector-simmetrical-2rstub
  5
DA
 10
20.0947
 20
27.4591
  0
VERTEX
  8
detector-simmetrical-2rstub
  5
DB
 10
20.0548
 20
27.3626
  0
VERTEX
  8
detector-simmetrical-2rstub
  5
DC
 10
19.9912
 20
27.2797
  0
VERTEX
  8
detector-simmetrical-2rstub
  5
DD
 10
19.9083
 20
27.2162
  0
VERTEX
  8
detector-simmetrical-2rstub
  5
DE
 10
19.8119
 20
27.1762
  0
VERTEX
  8
detector-simmetrical-2rstub
  5
DF
 10
19.7083
 20
27.1626
  0
VERTEX
  8
detector-simmetrical-2rstub
  5
E0
 10
19.7083
 20
25.3572
  0
VERTEX
  8
detector-simmetrical-2rstub
  5
E1
 10
0.0
 20
25.3572
  0
VERTEX
  8
detector-simmetrical-2rstub
  5
E2
 10
0.0
 20
10.0
  0
VERTEX
  8
detector-simmetrical-2rstub
  5
E3
 10
-1.99755
 20
10.0
  0
VERTEX
  8
detector-simmetrical-2rstub
  5
E4
 10
-1.99755
 20
0.0
  0
VERTEX
  8
detector-simmetrical-2rstub
  5
E5
 10
-3.52755
 20
0.0
  0
VERTEX
  8
detector-simmetrical-2rstub
  5
E6
 10
-3.52755
 20
10.0
  0
VERTEX
  8
detector-simmetrical-2rstub
  5
E7
 10
-5.5251
 20
10.0
  0
VERTEX
  8
detector-simmetrical-2rstub
  5
E8
 10
-5.5251
 20
27.5626
  0
VERTEX
  8
detector-simmetrical-2rstub
  5
E9
 10
-2.15973
 20
27.5626
  0
VERTEX
  8
detector-simmetrical-2rstub
  5
EA
 10
-2.15973
 20
37.1806
  0
VERTEX
  8
detector-simmetrical-2rstub
  5
EB
 10
-2.12135
 20
37.466
  0
VERTEX
  8
detector-simmetrical-2rstub
  5
EC
 10
-2.00892
 20
37.7311
  0
VERTEX
  8
detector-simmetrical-2rstub
  5
ED
 10
-1.83043
 20
37.957
  0
VERTEX
  8
detector-simmetrical-2rstub
  5
EE
 10
-1.59859
 20
38.1278
  0
VERTEX
  8
detector-simmetrical-2rstub
  5
EF
 10
-1.32987
 20
38.2312
  0
VERTEX
  8
detector-simmetrical-2rstub
  5
F0
 10
-1.32987
 20
38.5605
  0
VERTEX
  8
detector-simmetrical-2rstub
  5
F1
 10
-0.829867
 20
38.5605
  0
VERTEX
  8
detector-simmetrical-2rstub
  5
F2
 10
-0.829867
 20
38.2312
  0
VERTEX
  8
detector-simmetrical-2rstub
  5
F3
 10
-0.561144
 20
38.1278
  0
VERTEX
  8
detector-simmetrical-2rstub
  5
F4
 10
-0.3293
 20
37.957
  0
VERTEX
  8
detector-simmetrical-2rstub
  5
F5
 10
-0.150818
 20
37.7311
  0
VERTEX
  8
detector-simmetrical-2rstub
  5
F6
 10
-0.0383868
 20
37.466
  0
VERTEX
  8
detector-simmetrical-2rstub
  5
F7
 10
0.0
 20
37.1806
  0
VERTEX
  8
detector-simmetrical-2rstub
  5
F8
 10
0.0
 20
29.768
  0
SEQEND
  8
detector-simmetrical-2rstub
  5
F9
  0
POLYLINE
  8
detector-simmetrical-2rstub
  5
FA
 66
1
 10
0.0
 20
0.0
 30
0.0
 70
1
  0
VERTEX
  8
detector-simmetrical-2rstub
  5
FB
 10
-0.829867
 20
39.2205
  0
VERTEX
  8
detector-simmetrical-2rstub
  5
FC
 10
-0.829867
 20
38.7605
  0
VERTEX
  8
detector-simmetrical-2rstub
  5
FD
 10
-1.32987
 20
38.7605
  0
VERTEX
  8
detector-simmetrical-2rstub
  5
FE
 10
-1.32987
 20
39.2205
  0
VERTEX
  8
detector-simmetrical-2rstub
  5
FF
 10
-6.13144
 20
34.4189
  0
VERTEX
  8
detector-simmetrical-2rstub
  5
100
 10
-7.26675
 20
35.8985
  0
VERTEX
  8
detector-simmetrical-2rstub
  5
101
 10
-7.98044
 20
37.6215
  0
VERTEX
  8
detector-simmetrical-2rstub
  5
102
 10
-8.22387
 20
39.4705
  0
VERTEX
  8
detector-simmetrical-2rstub
  5
103
 10
-7.98044
 20
41.3195
  0
VERTEX
  8
detector-simmetrical-2rstub
  5
104
 10
-7.26675
 20
43.0425
  0
VERTEX
  8
detector-simmetrical-2rstub
  5
105
 10
-6.13144
 20
44.5221
  0
VERTEX
  8
detector-simmetrical-2rstub
  5
106
 10
-1.32987
 20
39.7205
  0
VERTEX
  8
detector-simmetrical-2rstub
  5
107
 10
-1.32987
 20
41.7605
  0
VERTEX
  8
detector-simmetrical-2rstub
  5
108
 10
-1.57987
 20
41.7605
  0
VERTEX
  8
detector-simmetrical-2rstub
  5
109
 10
-1.57987
 20
42.2605
  0
VERTEX
  8
detector-simmetrical-2rstub
  5
10A
 10
-1.32987
 20
42.2605
  0
VERTEX
  8
detector-simmetrical-2rstub
  5
10B
 10
-1.32987
 20
42.7605
  0
VERTEX
  8
detector-simmetrical-2rstub
  5
10C
 10
-1.57987
 20
42.7605
  0
VERTEX
  8
detector-simmetrical-2rstub
  5
10D
 10
-1.57987
 20
43.2605
  0
VERTEX
  8
detector-simmetrical-2rstub
  5
10E
 10
-1.32987
 20
43.2605
  0
VERTEX
  8
detector-simmetrical-2rstub
  5
10F
 10
-1.32987
 20
49.2605
  0
VERTEX
  8
detector-simmetrical-2rstub
  5
110
 10
-0.829867
 20
49.2605
  0
VERTEX
  8
detector-simmetrical-2rstub
  5
111
 10
-0.829867
 20
43.2605
  0
VERTEX
  8
detector-simmetrical-2rstub
  5
112
 10
-0.579867
 20
43.2605
  0
VERTEX
  8
detector-simmetrical-2rstub
  5
113
 10
-0.579867
 20
42.7605
  0
VERTEX
  8
detector-simmetrical-2rstub
  5
114
 10
-0.829867
 20
42.7605
  0
VERTEX
  8
detector-simmetrical-2rstub
  5
115
 10
-0.829867
 20
42.2605
  0
VERTEX
  8
detector-simmetrical-2rstub
  5
116
 10
-0.579867
 20
42.2605
  0
VERTEX
  8
detector-simmetrical-2rstub
  5
117
 10
-0.579867
 20
41.7605
  0
VERTEX
  8
detector-simmetrical-2rstub
  5
118
 10
-0.829867
 20
41.7605
  0
VERTEX
  8
detector-simmetrical-2rstub
  5
119
 10
-0.829867
 20
39.7205
  0
VERTEX
  8
detector-simmetrical-2rstub
  5
11A
 10
4.01832
 20
44.5687
  0
VERTEX
  8
detector-simmetrical-2rstub
  5
11B
 10
5.16411
 20
43.0755
  0
VERTEX
  8
detector-simmetrical-2rstub
  5
11C
 10
5.88439
 20
41.3366
  0
VERTEX
  8
detector-simmetrical-2rstub
  5
11D
 10
6.13006
 20
39.4705
  0
VERTEX
  8
detector-simmetrical-2rstub
  5
11E
 10
5.88439
 20
37.6044
  0
VERTEX
  8
detector-simmetrical-2rstub
  5
11F
 10
5.16411
 20
35.8655
  0
VERTEX
  8
detector-simmetrical-2rstub
  5
120
 10
4.01832
 20
34.3723
  0
SEQEND
  8
detector-simmetrical-2rstub
  5
121
  0
POLYLINE
  8
detector-simmetrical-2rstub
  5
122
 66
1
 10
0.0
 20
0.0
 30
0.0
 70
1
  0
VERTEX
  8
detector-simmetrical-2rstub
  5
123
 10
-20.0
 20
55.0
  0
VERTEX
  8
detector-simmetrical-2rstub
  5
124
 10
30.0
 20
55.0
  0
VERTEX
  8
detector-simmetrical-2rstub
  5
125
 10
30.0
 20
1.77636e-015
  0
VERTEX
  8
detector-simmetrical-2rstub
  5
126
 10
5.0
 20
-2.36085e-015
  0
VERTEX
  8
detector-simmetrical-2rstub
  5
127
 10
30.0
 20
1.77636e-015
  0
VERTEX
  8
detector-simmetrical-2rstub
  5
128
 10
30.0
 20
55.0
  0
VERTEX
  8
detector-simmetrical-2rstub
  5
129
 10
-20.0
 20
55.0
  0
VERTEX
  8
detector-simmetrical-2rstub
  5
12A
 10
-20.0
 20
-1.77636e-016
  0
VERTEX
  8
detector-simmetrical-2rstub
  5
12B
 10
-9.0
 20
1.22403e-015
  0
VERTEX
  8
detector-simmetrical-2rstub
  5
12C
 10
-20.0
 20
-1.77636e-016
  0
SEQEND
  8
detector-simmetrical-2rstub
  5
12D
  0
POLYLINE
  8
detector-simmetrical-2rstub
  5
12E
 66
1
 10
0.0
 20
0.0
 30
0.0
 70
1
  0
VERTEX
  8
detector-simmetrical-2rstub
  5
12F
 10
30.0
 20
0.0
  0
VERTEX
  8
detector-simmetrical-2rstub
  5
130
 10
-20.0
 20
0.0
  0
VERTEX
  8
detector-simmetrical-2rstub
  5
131
 10
-20.0
 20
55.0
  0
VERTEX
  8
detector-simmetrical-2rstub
  5
132
 10
30.0
 20
55.0
  0
SEQEND
  8
detector-simmetrical-2rstub
  5
133
  0
POLYLINE
  8
detector-simmetrical-2rstub
  5
134
 66
1
 10
0.0
 20
0.0
 30
0.0
 70
1
  0
VERTEX
  8
detector-simmetrical-2rstub
  5
135
 10
55.0
 20
-27.5
  0
VERTEX
  8
detector-simmetrical-2rstub
  5
136
 10
-45.0
 20
-27.5
  0
VERTEX
  8
detector-simmetrical-2rstub
  5
137
 10
-45.0
 20
77.5
  0
VERTEX
  8
detector-simmetrical-2rstub
  5
138
 10
55.0
 20
77.5
  0
SEQEND
  8
detector-simmetrical-2rstub
  5
139
  0
ENDSEC
  0
EOF
