  0
SECTION
  2
ENTITIES
  0
POLYLINE
  8
detector-simmetrical-2rstub
  5
1
 66
1
 10
0.0
 20
0.0
 30
0.0
 70
1
  0
VERTEX
  8
detector-simmetrical-2rstub
  5
2
 10
3.1042
 20
1.19501
  0
VERTEX
  8
detector-simmetrical-2rstub
  5
3
 10
3.08349
 20
1.17912
  0
VERTEX
  8
detector-simmetrical-2rstub
  5
4
 10
3.05937
 20
1.16913
  0
VERTEX
  8
detector-simmetrical-2rstub
  5
5
 10
3.03349
 20
1.16572
  0
VERTEX
  8
detector-simmetrical-2rstub
  5
6
 10
3.00761
 20
1.16913
  0
VERTEX
  8
detector-simmetrical-2rstub
  5
7
 10
2.98349
 20
1.17912
  0
VERTEX
  8
detector-simmetrical-2rstub
  5
8
 10
2.96278
 20
1.19501
  0
VERTEX
  8
detector-simmetrical-2rstub
  5
9
 10
2.94689
 20
1.21572
  0
VERTEX
  8
detector-simmetrical-2rstub
  5
A
 10
2.9369
 20
1.23984
  0
VERTEX
  8
detector-simmetrical-2rstub
  5
B
 10
2.93349
 20
1.26572
  0
VERTEX
  8
detector-simmetrical-2rstub
  5
C
 10
2.9369
 20
1.2916
  0
VERTEX
  8
detector-simmetrical-2rstub
  5
D
 10
2.94689
 20
1.31572
  0
VERTEX
  8
detector-simmetrical-2rstub
  5
E
 10
2.96278
 20
1.33643
  0
VERTEX
  8
detector-simmetrical-2rstub
  5
F
 10
2.98349
 20
1.35232
  0
VERTEX
  8
detector-simmetrical-2rstub
  5
10
 10
3.00761
 20
1.36231
  0
VERTEX
  8
detector-simmetrical-2rstub
  5
11
 10
3.03349
 20
1.36572
  0
VERTEX
  8
detector-simmetrical-2rstub
  5
12
 10
3.05937
 20
1.36231
  0
VERTEX
  8
detector-simmetrical-2rstub
  5
13
 10
3.08349
 20
1.35232
  0
VERTEX
  8
detector-simmetrical-2rstub
  5
14
 10
3.1042
 20
1.33643
  0
VERTEX
  8
detector-simmetrical-2rstub
  5
15
 10
3.12009
 20
1.31572
  0
VERTEX
  8
detector-simmetrical-2rstub
  5
16
 10
3.13008
 20
1.2916
  0
VERTEX
  8
detector-simmetrical-2rstub
  5
17
 10
3.13349
 20
1.26572
  0
VERTEX
  8
detector-simmetrical-2rstub
  5
18
 10
3.13008
 20
1.23984
  0
VERTEX
  8
detector-simmetrical-2rstub
  5
19
 10
3.12009
 20
1.21572
  0
SEQEND
  8
detector-simmetrical-2rstub
  5
1A
  0
POLYLINE
  8
detector-simmetrical-2rstub
  5
1B
 66
1
 10
0.0
 20
0.0
 30
0.0
 70
1
  0
VERTEX
  8
detector-simmetrical-2rstub
  5
1C
 10
2.96278
 20
1.33643
  0
VERTEX
  8
detector-simmetrical-2rstub
  5
1D
 10
2.98349
 20
1.35232
  0
VERTEX
  8
detector-simmetrical-2rstub
  5
1E
 10
3.00761
 20
1.36231
  0
VERTEX
  8
detector-simmetrical-2rstub
  5
1F
 10
3.03349
 20
1.36572
  0
VERTEX
  8
detector-simmetrical-2rstub
  5
20
 10
3.05937
 20
1.36231
  0
VERTEX
  8
detector-simmetrical-2rstub
  5
21
 10
3.08349
 20
1.35232
  0
VERTEX
  8
detector-simmetrical-2rstub
  5
22
 10
3.1042
 20
1.33643
  0
VERTEX
  8
detector-simmetrical-2rstub
  5
23
 10
3.12009
 20
1.31572
  0
VERTEX
  8
detector-simmetrical-2rstub
  5
24
 10
3.13008
 20
1.2916
  0
VERTEX
  8
detector-simmetrical-2rstub
  5
25
 10
3.13349
 20
1.26572
  0
VERTEX
  8
detector-simmetrical-2rstub
  5
26
 10
3.13008
 20
1.23984
  0
VERTEX
  8
detector-simmetrical-2rstub
  5
27
 10
3.12009
 20
1.21572
  0
VERTEX
  8
detector-simmetrical-2rstub
  5
28
 10
3.1042
 20
1.19501
  0
VERTEX
  8
detector-simmetrical-2rstub
  5
29
 10
3.08349
 20
1.17912
  0
VERTEX
  8
detector-simmetrical-2rstub
  5
2A
 10
3.05937
 20
1.16913
  0
VERTEX
  8
detector-simmetrical-2rstub
  5
2B
 10
3.03349
 20
1.16572
  0
VERTEX
  8
detector-simmetrical-2rstub
  5
2C
 10
3.00761
 20
1.16913
  0
VERTEX
  8
detector-simmetrical-2rstub
  5
2D
 10
2.98349
 20
1.17912
  0
VERTEX
  8
detector-simmetrical-2rstub
  5
2E
 10
2.96278
 20
1.19501
  0
VERTEX
  8
detector-simmetrical-2rstub
  5
2F
 10
2.94689
 20
1.21572
  0
VERTEX
  8
detector-simmetrical-2rstub
  5
30
 10
2.9369
 20
1.23984
  0
VERTEX
  8
detector-simmetrical-2rstub
  5
31
 10
2.93349
 20
1.26572
  0
VERTEX
  8
detector-simmetrical-2rstub
  5
32
 10
2.9369
 20
1.2916
  0
VERTEX
  8
detector-simmetrical-2rstub
  5
33
 10
2.94689
 20
1.31572
  0
SEQEND
  8
detector-simmetrical-2rstub
  5
34
  0
POLYLINE
  8
detector-simmetrical-2rstub
  5
35
 66
1
 10
0.0
 20
0.0
 30
0.0
 70
1
  0
VERTEX
  8
detector-simmetrical-2rstub
  5
36
 10
3.03349
 20
1.61927
  0
VERTEX
  8
detector-simmetrical-2rstub
  5
37
 10
2.67993
 20
1.97283
  0
VERTEX
  8
detector-simmetrical-2rstub
  5
38
 10
3.03349
 20
2.32638
  0
VERTEX
  8
detector-simmetrical-2rstub
  5
39
 10
3.38704
 20
1.97283
  0
SEQEND
  8
detector-simmetrical-2rstub
  5
3A
  0
POLYLINE
  8
detector-simmetrical-2rstub
  5
3B
 66
1
 10
0.0
 20
0.0
 30
0.0
 70
1
  0
VERTEX
  8
detector-simmetrical-2rstub
  5
3C
 10
2.67993
 20
0.558614
  0
VERTEX
  8
detector-simmetrical-2rstub
  5
3D
 10
2.32638
 20
0.912168
  0
VERTEX
  8
detector-simmetrical-2rstub
  5
3E
 10
3.38704
 20
1.97283
  0
VERTEX
  8
detector-simmetrical-2rstub
  5
3F
 10
3.74059
 20
1.61927
  0
SEQEND
  8
detector-simmetrical-2rstub
  5
40
  0
POLYLINE
  8
detector-simmetrical-2rstub
  5
41
 66
1
 10
0.0
 20
0.0
 30
0.0
 70
1
  0
VERTEX
  8
detector-simmetrical-2rstub
  5
42
 10
2.32638
 20
0.912168
  0
VERTEX
  8
detector-simmetrical-2rstub
  5
43
 10
1.97283
 20
1.26572
  0
VERTEX
  8
detector-simmetrical-2rstub
  5
44
 10
2.32638
 20
1.61927
  0
VERTEX
  8
detector-simmetrical-2rstub
  5
45
 10
2.67993
 20
1.26572
  0
SEQEND
  8
detector-simmetrical-2rstub
  5
46
  0
POLYLINE
  8
detector-simmetrical-2rstub
  5
47
 66
1
 10
0.0
 20
0.0
 30
0.0
 70
1
  0
VERTEX
  8
detector-simmetrical-2rstub
  5
48
 10
1.97283
 20
2.67993
  0
VERTEX
  8
detector-simmetrical-2rstub
  5
49
 10
1.61927
 20
3.03349
  0
VERTEX
  8
detector-simmetrical-2rstub
  5
4A
 10
1.97283
 20
3.38704
  0
VERTEX
  8
detector-simmetrical-2rstub
  5
4B
 10
2.32638
 20
3.03349
  0
SEQEND
  8
detector-simmetrical-2rstub
  5
4C
  0
POLYLINE
  8
detector-simmetrical-2rstub
  5
4D
 66
1
 10
0.0
 20
0.0
 30
0.0
 70
1
  0
VERTEX
  8
detector-simmetrical-2rstub
  5
4E
 10
1.33643
 20
2.96278
  0
VERTEX
  8
detector-simmetrical-2rstub
  5
4F
 10
1.31572
 20
2.94689
  0
VERTEX
  8
detector-simmetrical-2rstub
  5
50
 10
1.2916
 20
2.9369
  0
VERTEX
  8
detector-simmetrical-2rstub
  5
51
 10
1.26572
 20
2.93349
  0
VERTEX
  8
detector-simmetrical-2rstub
  5
52
 10
1.23984
 20
2.9369
  0
VERTEX
  8
detector-simmetrical-2rstub
  5
53
 10
1.21572
 20
2.94689
  0
VERTEX
  8
detector-simmetrical-2rstub
  5
54
 10
1.19501
 20
2.96278
  0
VERTEX
  8
detector-simmetrical-2rstub
  5
55
 10
1.17912
 20
2.98349
  0
VERTEX
  8
detector-simmetrical-2rstub
  5
56
 10
1.16913
 20
3.00761
  0
VERTEX
  8
detector-simmetrical-2rstub
  5
57
 10
1.16572
 20
3.03349
  0
VERTEX
  8
detector-simmetrical-2rstub
  5
58
 10
1.16913
 20
3.05937
  0
VERTEX
  8
detector-simmetrical-2rstub
  5
59
 10
1.17912
 20
3.08349
  0
VERTEX
  8
detector-simmetrical-2rstub
  5
5A
 10
1.19501
 20
3.1042
  0
VERTEX
  8
detector-simmetrical-2rstub
  5
5B
 10
1.21572
 20
3.12009
  0
VERTEX
  8
detector-simmetrical-2rstub
  5
5C
 10
1.23984
 20
3.13008
  0
VERTEX
  8
detector-simmetrical-2rstub
  5
5D
 10
1.26572
 20
3.13349
  0
VERTEX
  8
detector-simmetrical-2rstub
  5
5E
 10
1.2916
 20
3.13008
  0
VERTEX
  8
detector-simmetrical-2rstub
  5
5F
 10
1.31572
 20
3.12009
  0
VERTEX
  8
detector-simmetrical-2rstub
  5
60
 10
1.33643
 20
3.1042
  0
VERTEX
  8
detector-simmetrical-2rstub
  5
61
 10
1.35232
 20
3.08349
  0
VERTEX
  8
detector-simmetrical-2rstub
  5
62
 10
1.36231
 20
3.05937
  0
VERTEX
  8
detector-simmetrical-2rstub
  5
63
 10
1.36572
 20
3.03349
  0
VERTEX
  8
detector-simmetrical-2rstub
  5
64
 10
1.36231
 20
3.00761
  0
VERTEX
  8
detector-simmetrical-2rstub
  5
65
 10
1.35232
 20
2.98349
  0
SEQEND
  8
detector-simmetrical-2rstub
  5
66
  0
POLYLINE
  8
detector-simmetrical-2rstub
  5
67
 66
1
 10
0.0
 20
0.0
 30
0.0
 70
1
  0
VERTEX
  8
detector-simmetrical-2rstub
  5
68
 10
1.19501
 20
3.1042
  0
VERTEX
  8
detector-simmetrical-2rstub
  5
69
 10
1.21572
 20
3.12009
  0
VERTEX
  8
detector-simmetrical-2rstub
  5
6A
 10
1.23984
 20
3.13008
  0
VERTEX
  8
detector-simmetrical-2rstub
  5
6B
 10
1.26572
 20
3.13349
  0
VERTEX
  8
detector-simmetrical-2rstub
  5
6C
 10
1.2916
 20
3.13008
  0
VERTEX
  8
detector-simmetrical-2rstub
  5
6D
 10
1.31572
 20
3.12009
  0
VERTEX
  8
detector-simmetrical-2rstub
  5
6E
 10
1.33643
 20
3.1042
  0
VERTEX
  8
detector-simmetrical-2rstub
  5
6F
 10
1.35232
 20
3.08349
  0
VERTEX
  8
detector-simmetrical-2rstub
  5
70
 10
1.36231
 20
3.05937
  0
VERTEX
  8
detector-simmetrical-2rstub
  5
71
 10
1.36572
 20
3.03349
  0
VERTEX
  8
detector-simmetrical-2rstub
  5
72
 10
1.36231
 20
3.00761
  0
VERTEX
  8
detector-simmetrical-2rstub
  5
73
 10
1.35232
 20
2.98349
  0
VERTEX
  8
detector-simmetrical-2rstub
  5
74
 10
1.33643
 20
2.96278
  0
VERTEX
  8
detector-simmetrical-2rstub
  5
75
 10
1.31572
 20
2.94689
  0
VERTEX
  8
detector-simmetrical-2rstub
  5
76
 10
1.2916
 20
2.9369
  0
VERTEX
  8
detector-simmetrical-2rstub
  5
77
 10
1.26572
 20
2.93349
  0
VERTEX
  8
detector-simmetrical-2rstub
  5
78
 10
1.23984
 20
2.9369
  0
VERTEX
  8
detector-simmetrical-2rstub
  5
79
 10
1.21572
 20
2.94689
  0
VERTEX
  8
detector-simmetrical-2rstub
  5
7A
 10
1.19501
 20
2.96278
  0
VERTEX
  8
detector-simmetrical-2rstub
  5
7B
 10
1.17912
 20
2.98349
  0
VERTEX
  8
detector-simmetrical-2rstub
  5
7C
 10
1.16913
 20
3.00761
  0
VERTEX
  8
detector-simmetrical-2rstub
  5
7D
 10
1.16572
 20
3.03349
  0
VERTEX
  8
detector-simmetrical-2rstub
  5
7E
 10
1.16913
 20
3.05937
  0
VERTEX
  8
detector-simmetrical-2rstub
  5
7F
 10
1.17912
 20
3.08349
  0
SEQEND
  8
detector-simmetrical-2rstub
  5
80
  0
POLYLINE
  8
detector-simmetrical-2rstub
  5
81
 66
1
 10
0.0
 20
0.0
 30
0.0
 70
1
  0
VERTEX
  8
detector-simmetrical-2rstub
  5
82
 10
1.26572
 20
1.97283
  0
VERTEX
  8
detector-simmetrical-2rstub
  5
83
 10
0.912168
 20
2.32638
  0
VERTEX
  8
detector-simmetrical-2rstub
  5
84
 10
1.26572
 20
2.67993
  0
VERTEX
  8
detector-simmetrical-2rstub
  5
85
 10
1.61927
 20
2.32638
  0
SEQEND
  8
detector-simmetrical-2rstub
  5
86
  0
POLYLINE
  8
detector-simmetrical-2rstub
  5
87
 66
1
 10
0.0
 20
0.0
 30
0.0
 70
1
  0
VERTEX
  8
detector-simmetrical-2rstub
  5
88
 10
0.912168
 20
2.32638
  0
VERTEX
  8
detector-simmetrical-2rstub
  5
89
 10
0.558614
 20
2.67993
  0
VERTEX
  8
detector-simmetrical-2rstub
  5
8A
 10
1.61927
 20
3.74059
  0
VERTEX
  8
detector-simmetrical-2rstub
  5
8B
 10
1.97283
 20
3.38704
  0
SEQEND
  8
detector-simmetrical-2rstub
  5
8C
  0
POLYLINE
  8
detector-simmetrical-2rstub
  5
8D
 66
1
 10
0.0
 20
0.0
 30
0.0
 70
1
  0
VERTEX
  8
detector-simmetrical-2rstub
  5
8E
 10
-0.39598
 20
-0.749533
  0
VERTEX
  8
detector-simmetrical-2rstub
  5
8F
 10
-0.749533
 20
-0.39598
  0
VERTEX
  8
detector-simmetrical-2rstub
  5
90
 10
-0.678823
 20
-0.325269
  0
VERTEX
  8
detector-simmetrical-2rstub
  5
91
 10
-0.325269
 20
-0.678823
  0
SEQEND
  8
detector-simmetrical-2rstub
  5
92
  0
POLYLINE
  8
detector-simmetrical-2rstub
  5
93
 66
1
 10
0.0
 20
0.0
 30
0.0
 70
1
  0
VERTEX
  8
detector-simmetrical-2rstub
  5
94
 10
-0.46669
 20
-0.820244
  0
VERTEX
  8
detector-simmetrical-2rstub
  5
95
 10
-0.820244
 20
-0.46669
  0
VERTEX
  8
detector-simmetrical-2rstub
  5
96
 10
-0.749533
 20
-0.39598
  0
VERTEX
  8
detector-simmetrical-2rstub
  5
97
 10
-0.39598
 20
-0.749533
  0
SEQEND
  8
detector-simmetrical-2rstub
  5
98
  0
POLYLINE
  8
detector-simmetrical-2rstub
  5
99
 66
1
 10
0.0
 20
0.0
 30
0.0
 70
1
  0
VERTEX
  8
detector-simmetrical-2rstub
  5
9A
 10
-0.678823
 20
-0.325269
  0
VERTEX
  8
detector-simmetrical-2rstub
  5
9B
 10
-0.353553
 20
3.55271e-015
  0
VERTEX
  8
detector-simmetrical-2rstub
  5
9C
 10
-7.20993
 20
3.55271e-015
  0
VERTEX
  8
detector-simmetrical-2rstub
  5
9D
 10
-6.96425
 20
1.86607
  0
VERTEX
  8
detector-simmetrical-2rstub
  5
9E
 10
-6.24398
 20
3.60496
  0
VERTEX
  8
detector-simmetrical-2rstub
  5
9F
 10
-5.09819
 20
5.09819
  0
VERTEX
  8
detector-simmetrical-2rstub
  5
A0
 10
-3.60496
 20
6.24398
  0
VERTEX
  8
detector-simmetrical-2rstub
  5
A1
 10
-1.86607
 20
6.96425
  0
VERTEX
  8
detector-simmetrical-2rstub
  5
A2
 10
-1.06581e-014
 20
7.20993
  0
VERTEX
  8
detector-simmetrical-2rstub
  5
A3
 10
-7.10543e-015
 20
0.353553
  0
VERTEX
  8
detector-simmetrical-2rstub
  5
A4
 10
1.4425
 20
1.79605
  0
VERTEX
  8
detector-simmetrical-2rstub
  5
A5
 10
1.26572
 20
1.97283
  0
VERTEX
  8
detector-simmetrical-2rstub
  5
A6
 10
1.61927
 20
2.32638
  0
VERTEX
  8
detector-simmetrical-2rstub
  5
A7
 10
1.79605
 20
2.1496
  0
VERTEX
  8
detector-simmetrical-2rstub
  5
A8
 10
2.1496
 20
2.50316
  0
VERTEX
  8
detector-simmetrical-2rstub
  5
A9
 10
1.97283
 20
2.67993
  0
VERTEX
  8
detector-simmetrical-2rstub
  5
AA
 10
2.32638
 20
3.03349
  0
VERTEX
  8
detector-simmetrical-2rstub
  5
AB
 10
2.50316
 20
2.85671
  0
VERTEX
  8
detector-simmetrical-2rstub
  5
AC
 10
6.7458
 20
7.09935
  0
VERTEX
  8
detector-simmetrical-2rstub
  5
AD
 10
7.09935
 20
6.7458
  0
VERTEX
  8
detector-simmetrical-2rstub
  5
AE
 10
2.85671
 20
2.50316
  0
VERTEX
  8
detector-simmetrical-2rstub
  5
AF
 10
3.03349
 20
2.32638
  0
VERTEX
  8
detector-simmetrical-2rstub
  5
B0
 10
2.67993
 20
1.97283
  0
VERTEX
  8
detector-simmetrical-2rstub
  5
B1
 10
2.50316
 20
2.1496
  0
VERTEX
  8
detector-simmetrical-2rstub
  5
B2
 10
2.1496
 20
1.79605
  0
VERTEX
  8
detector-simmetrical-2rstub
  5
B3
 10
2.32638
 20
1.61927
  0
VERTEX
  8
detector-simmetrical-2rstub
  5
B4
 10
1.97283
 20
1.26572
  0
VERTEX
  8
detector-simmetrical-2rstub
  5
B5
 10
1.79605
 20
1.4425
  0
VERTEX
  8
detector-simmetrical-2rstub
  5
B6
 10
0.353553
 20
3.55271e-015
  0
VERTEX
  8
detector-simmetrical-2rstub
  5
B7
 10
7.144
 20
0.0
  0
VERTEX
  8
detector-simmetrical-2rstub
  5
B8
 10
6.90057
 20
-1.849
  0
VERTEX
  8
detector-simmetrical-2rstub
  5
B9
 10
6.18689
 20
-3.572
  0
VERTEX
  8
detector-simmetrical-2rstub
  5
BA
 10
5.05157
 20
-5.05157
  0
VERTEX
  8
detector-simmetrical-2rstub
  5
BB
 10
3.572
 20
-6.18689
  0
VERTEX
  8
detector-simmetrical-2rstub
  5
BC
 10
1.849
 20
-6.90057
  0
VERTEX
  8
detector-simmetrical-2rstub
  5
BD
 10
0.0
 20
-7.144
  0
VERTEX
  8
detector-simmetrical-2rstub
  5
BE
 10
0.0
 20
-0.353553
  0
VERTEX
  8
detector-simmetrical-2rstub
  5
BF
 10
-0.325269
 20
-0.678823
  0
SEQEND
  8
detector-simmetrical-2rstub
  5
C0
  0
POLYLINE
  8
detector-simmetrical-2rstub
  5
C1
 66
1
 10
0.0
 20
0.0
 30
0.0
 70
1
  0
VERTEX
  8
detector-simmetrical-2rstub
  5
C2
 10
-22.9782
 20
6.13789
  0
VERTEX
  8
detector-simmetrical-2rstub
  5
C3
 10
-23.0197
 20
6.10611
  0
VERTEX
  8
detector-simmetrical-2rstub
  5
C4
 10
-23.0679
 20
6.08613
  0
VERTEX
  8
detector-simmetrical-2rstub
  5
C5
 10
-23.1197
 20
6.07931
  0
VERTEX
  8
detector-simmetrical-2rstub
  5
C6
 10
-23.1714
 20
6.08613
  0
VERTEX
  8
detector-simmetrical-2rstub
  5
C7
 10
-23.2197
 20
6.10611
  0
VERTEX
  8
detector-simmetrical-2rstub
  5
C8
 10
-23.2611
 20
6.13789
  0
VERTEX
  8
detector-simmetrical-2rstub
  5
C9
 10
-23.2929
 20
6.17931
  0
VERTEX
  8
detector-simmetrical-2rstub
  5
CA
 10
-23.3129
 20
6.22755
  0
VERTEX
  8
detector-simmetrical-2rstub
  5
CB
 10
-23.3197
 20
6.27931
  0
VERTEX
  8
detector-simmetrical-2rstub
  5
CC
 10
-23.3129
 20
6.33108
  0
VERTEX
  8
detector-simmetrical-2rstub
  5
CD
 10
-23.2929
 20
6.37931
  0
VERTEX
  8
detector-simmetrical-2rstub
  5
CE
 10
-23.2611
 20
6.42073
  0
VERTEX
  8
detector-simmetrical-2rstub
  5
CF
 10
-23.2197
 20
6.45252
  0
VERTEX
  8
detector-simmetrical-2rstub
  5
D0
 10
-23.1714
 20
6.4725
  0
VERTEX
  8
detector-simmetrical-2rstub
  5
D1
 10
-23.1197
 20
6.47931
  0
VERTEX
  8
detector-simmetrical-2rstub
  5
D2
 10
-23.0679
 20
6.4725
  0
VERTEX
  8
detector-simmetrical-2rstub
  5
D3
 10
-23.0197
 20
6.45252
  0
VERTEX
  8
detector-simmetrical-2rstub
  5
D4
 10
-22.9782
 20
6.42073
  0
VERTEX
  8
detector-simmetrical-2rstub
  5
D5
 10
-22.9465
 20
6.37931
  0
VERTEX
  8
detector-simmetrical-2rstub
  5
D6
 10
-22.9265
 20
6.33108
  0
VERTEX
  8
detector-simmetrical-2rstub
  5
D7
 10
-22.9197
 20
6.27931
  0
VERTEX
  8
detector-simmetrical-2rstub
  5
D8
 10
-22.9265
 20
6.22755
  0
VERTEX
  8
detector-simmetrical-2rstub
  5
D9
 10
-22.9465
 20
6.17931
  0
SEQEND
  8
detector-simmetrical-2rstub
  5
DA
  0
POLYLINE
  8
detector-simmetrical-2rstub
  5
DB
 66
1
 10
0.0
 20
0.0
 30
0.0
 70
1
  0
VERTEX
  8
detector-simmetrical-2rstub
  5
DC
 10
-22.9782
 20
6.13789
  0
VERTEX
  8
detector-simmetrical-2rstub
  5
DD
 10
-23.0197
 20
6.10611
  0
VERTEX
  8
detector-simmetrical-2rstub
  5
DE
 10
-23.0679
 20
6.08613
  0
VERTEX
  8
detector-simmetrical-2rstub
  5
DF
 10
-23.1197
 20
6.07931
  0
VERTEX
  8
detector-simmetrical-2rstub
  5
E0
 10
-23.1714
 20
6.08613
  0
VERTEX
  8
detector-simmetrical-2rstub
  5
E1
 10
-23.2197
 20
6.10611
  0
VERTEX
  8
detector-simmetrical-2rstub
  5
E2
 10
-23.2611
 20
6.13789
  0
VERTEX
  8
detector-simmetrical-2rstub
  5
E3
 10
-23.2929
 20
6.17931
  0
VERTEX
  8
detector-simmetrical-2rstub
  5
E4
 10
-23.3129
 20
6.22755
  0
VERTEX
  8
detector-simmetrical-2rstub
  5
E5
 10
-23.3197
 20
6.27931
  0
VERTEX
  8
detector-simmetrical-2rstub
  5
E6
 10
-23.3129
 20
6.33108
  0
VERTEX
  8
detector-simmetrical-2rstub
  5
E7
 10
-23.2929
 20
6.37931
  0
VERTEX
  8
detector-simmetrical-2rstub
  5
E8
 10
-23.2611
 20
6.42073
  0
VERTEX
  8
detector-simmetrical-2rstub
  5
E9
 10
-23.2197
 20
6.45252
  0
VERTEX
  8
detector-simmetrical-2rstub
  5
EA
 10
-23.1714
 20
6.4725
  0
VERTEX
  8
detector-simmetrical-2rstub
  5
EB
 10
-23.1197
 20
6.47931
  0
VERTEX
  8
detector-simmetrical-2rstub
  5
EC
 10
-23.0679
 20
6.4725
  0
VERTEX
  8
detector-simmetrical-2rstub
  5
ED
 10
-23.0197
 20
6.45252
  0
VERTEX
  8
detector-simmetrical-2rstub
  5
EE
 10
-22.9782
 20
6.42073
  0
VERTEX
  8
detector-simmetrical-2rstub
  5
EF
 10
-22.9465
 20
6.37931
  0
VERTEX
  8
detector-simmetrical-2rstub
  5
F0
 10
-22.9265
 20
6.33108
  0
VERTEX
  8
detector-simmetrical-2rstub
  5
F1
 10
-22.9197
 20
6.27931
  0
VERTEX
  8
detector-simmetrical-2rstub
  5
F2
 10
-22.9265
 20
6.22755
  0
VERTEX
  8
detector-simmetrical-2rstub
  5
F3
 10
-22.9465
 20
6.17931
  0
SEQEND
  8
detector-simmetrical-2rstub
  5
F4
  0
POLYLINE
  8
detector-simmetrical-2rstub
  5
F5
 66
1
 10
0.0
 20
0.0
 30
0.0
 70
1
  0
VERTEX
  8
detector-simmetrical-2rstub
  5
F6
 10
-27.261
 20
-28.5588
  0
VERTEX
  8
detector-simmetrical-2rstub
  5
F7
 10
-26.1791
 20
-29.6406
  0
SEQEND
  8
detector-simmetrical-2rstub
  5
F8
  0
POLYLINE
  8
detector-simmetrical-2rstub
  5
F9
 66
1
 10
0.0
 20
0.0
 30
0.0
 70
1
  0
VERTEX
  8
detector-simmetrical-2rstub
  5
FA
 10
-22.8368
 20
6.56216
  0
VERTEX
  8
detector-simmetrical-2rstub
  5
FB
 10
-21.5602
 20
7.83878
  0
VERTEX
  8
detector-simmetrical-2rstub
  5
FC
 10
-7.62429
 20
-6.09713
  0
VERTEX
  8
detector-simmetrical-2rstub
  5
FD
 10
-2.38276
 20
-0.855599
  0
VERTEX
  8
detector-simmetrical-2rstub
  5
FE
 10
-2.15384
 20
-0.680961
  0
VERTEX
  8
detector-simmetrical-2rstub
  5
FF
 10
-1.8869
 20
-0.573026
  0
VERTEX
  8
detector-simmetrical-2rstub
  5
100
 10
-1.60093
 20
-0.539468
  0
VERTEX
  8
detector-simmetrical-2rstub
  5
101
 10
-1.31626
 20
-0.582672
  0
VERTEX
  8
detector-simmetrical-2rstub
  5
102
 10
-1.05312
 20
-0.699567
  0
VERTEX
  8
detector-simmetrical-2rstub
  5
103
 10
-0.820244
 20
-0.46669
  0
VERTEX
  8
detector-simmetrical-2rstub
  5
104
 10
-0.46669
 20
-0.820244
  0
VERTEX
  8
detector-simmetrical-2rstub
  5
105
 10
-0.699567
 20
-1.05312
  0
VERTEX
  8
detector-simmetrical-2rstub
  5
106
 10
-0.582672
 20
-1.31626
  0
VERTEX
  8
detector-simmetrical-2rstub
  5
107
 10
-0.539468
 20
-1.60093
  0
VERTEX
  8
detector-simmetrical-2rstub
  5
108
 10
-0.573026
 20
-1.8869
  0
VERTEX
  8
detector-simmetrical-2rstub
  5
109
 10
-0.680961
 20
-2.15384
  0
VERTEX
  8
detector-simmetrical-2rstub
  5
10A
 10
-0.855599
 20
-2.38276
  0
VERTEX
  8
detector-simmetrical-2rstub
  5
10B
 10
-7.6566
 20
-9.18376
  0
VERTEX
  8
detector-simmetrical-2rstub
  5
10C
 10
-5.27692
 20
-11.5634
  0
VERTEX
  8
detector-simmetrical-2rstub
  5
10D
 10
-17.6955
 20
-23.982
  0
VERTEX
  8
detector-simmetrical-2rstub
  5
10E
 10
-19.108
 20
-22.5696
  0
VERTEX
  8
detector-simmetrical-2rstub
  5
10F
 10
-26.1791
 20
-29.6406
  0
VERTEX
  8
detector-simmetrical-2rstub
  5
110
 10
-27.261
 20
-28.5588
  0
VERTEX
  8
detector-simmetrical-2rstub
  5
111
 10
-20.1899
 20
-21.4877
  0
VERTEX
  8
detector-simmetrical-2rstub
  5
112
 10
-21.6024
 20
-20.0752
  0
VERTEX
  8
detector-simmetrical-2rstub
  5
113
 10
-10.7432
 20
-9.21606
  0
VERTEX
  8
detector-simmetrical-2rstub
  5
114
 10
-24.6791
 20
4.71985
  0
VERTEX
  8
detector-simmetrical-2rstub
  5
115
 10
-23.4025
 20
5.99647
  0
VERTEX
  8
detector-simmetrical-2rstub
  5
116
 10
-23.4661
 20
6.07931
  0
VERTEX
  8
detector-simmetrical-2rstub
  5
117
 10
-23.506
 20
6.17578
  0
VERTEX
  8
detector-simmetrical-2rstub
  5
118
 10
-23.5197
 20
6.27931
  0
VERTEX
  8
detector-simmetrical-2rstub
  5
119
 10
-23.506
 20
6.38284
  0
VERTEX
  8
detector-simmetrical-2rstub
  5
11A
 10
-23.4661
 20
6.47931
  0
VERTEX
  8
detector-simmetrical-2rstub
  5
11B
 10
-23.4025
 20
6.56216
  0
VERTEX
  8
detector-simmetrical-2rstub
  5
11C
 10
-23.3197
 20
6.62572
  0
VERTEX
  8
detector-simmetrical-2rstub
  5
11D
 10
-23.2232
 20
6.66568
  0
VERTEX
  8
detector-simmetrical-2rstub
  5
11E
 10
-23.1197
 20
6.67931
  0
VERTEX
  8
detector-simmetrical-2rstub
  5
11F
 10
-23.0161
 20
6.66568
  0
VERTEX
  8
detector-simmetrical-2rstub
  5
120
 10
-22.9197
 20
6.62572
  0
SEQEND
  8
detector-simmetrical-2rstub
  5
121
  0
POLYLINE
  8
detector-simmetrical-2rstub
  5
122
 66
1
 10
0.0
 20
0.0
 30
0.0
 70
1
  0
VERTEX
  8
detector-simmetrical-2rstub
  5
123
 10
-10.9958
 20
32.9578
  0
VERTEX
  8
detector-simmetrical-2rstub
  5
124
 10
24.3596
 20
-2.39754
  0
VERTEX
  8
detector-simmetrical-2rstub
  5
125
 10
-14.5313
 20
-41.2884
  0
VERTEX
  8
detector-simmetrical-2rstub
  5
126
 10
-22.3095
 20
-33.5102
  0
VERTEX
  8
detector-simmetrical-2rstub
  5
127
 10
-14.5313
 20
-41.2884
  0
VERTEX
  8
detector-simmetrical-2rstub
  5
128
 10
24.3596
 20
-2.39754
  0
VERTEX
  8
detector-simmetrical-2rstub
  5
129
 10
-10.9958
 20
32.9578
  0
VERTEX
  8
detector-simmetrical-2rstub
  5
12A
 10
-49.8866
 20
-5.93308
  0
VERTEX
  8
detector-simmetrical-2rstub
  5
12B
 10
-32.209
 20
-23.6107
  0
VERTEX
  8
detector-simmetrical-2rstub
  5
12C
 10
-49.8866
 20
-5.93308
  0
SEQEND
  8
detector-simmetrical-2rstub
  5
12D
  0
POLYLINE
  8
detector-simmetrical-2rstub
  5
12E
 66
1
 10
0.0
 20
0.0
 30
0.0
 70
1
  0
VERTEX
  8
detector-simmetrical-2rstub
  5
12F
 10
-14.5313
 20
-41.2884
  0
VERTEX
  8
detector-simmetrical-2rstub
  5
130
 10
-49.8866
 20
-5.93308
  0
VERTEX
  8
detector-simmetrical-2rstub
  5
131
 10
-10.9958
 20
32.9578
  0
VERTEX
  8
detector-simmetrical-2rstub
  5
132
 10
24.3596
 20
-2.39754
  0
SEQEND
  8
detector-simmetrical-2rstub
  5
133
  0
POLYLINE
  8
detector-simmetrical-2rstub
  5
134
 66
1
 10
0.0
 20
0.0
 30
0.0
 70
1
  0
VERTEX
  8
detector-simmetrical-2rstub
  5
135
 10
-16.2991
 20
-78.4115
  0
VERTEX
  8
detector-simmetrical-2rstub
  5
136
 10
-87.0098
 20
-7.70084
  0
VERTEX
  8
detector-simmetrical-2rstub
  5
137
 10
-12.7635
 20
66.5454
  0
VERTEX
  8
detector-simmetrical-2rstub
  5
138
 10
57.9471
 20
-4.16531
  0
SEQEND
  8
detector-simmetrical-2rstub
  5
139
  0
ENDSEC
  0
EOF
