  0
SECTION
  2
ENTITIES
  0
POLYLINE
  8
front
  5
1
 66
1
 10
0.0
 20
0.0
 30
0.0
 70
1
  0
VERTEX
  8
front
  5
2
 10
19.5083
 20
27.5626
  0
VERTEX
  8
front
  5
3
 10
19.5152
 20
27.6143
  0
VERTEX
  8
front
  5
4
 10
19.5351
 20
27.6626
  0
VERTEX
  8
front
  5
5
 10
19.5669
 20
27.704
  0
VERTEX
  8
front
  5
6
 10
19.6083
 20
27.7358
  0
VERTEX
  8
front
  5
7
 10
19.6566
 20
27.7558
  0
VERTEX
  8
front
  5
8
 10
19.7083
 20
27.7626
  0
VERTEX
  8
front
  5
9
 10
19.7601
 20
27.7558
  0
VERTEX
  8
front
  5
A
 10
19.8083
 20
27.7358
  0
VERTEX
  8
front
  5
B
 10
19.8498
 20
27.704
  0
VERTEX
  8
front
  5
C
 10
19.8816
 20
27.6626
  0
VERTEX
  8
front
  5
D
 10
19.9015
 20
27.6143
  0
VERTEX
  8
front
  5
E
 10
19.9083
 20
27.5626
  0
VERTEX
  8
front
  5
F
 10
19.9015
 20
27.5108
  0
VERTEX
  8
front
  5
10
 10
19.8816
 20
27.4626
  0
VERTEX
  8
front
  5
11
 10
19.8498
 20
27.4212
  0
VERTEX
  8
front
  5
12
 10
19.8083
 20
27.3894
  0
VERTEX
  8
front
  5
13
 10
19.7601
 20
27.3694
  0
VERTEX
  8
front
  5
14
 10
19.7083
 20
27.3626
  0
VERTEX
  8
front
  5
15
 10
19.6566
 20
27.3694
  0
VERTEX
  8
front
  5
16
 10
19.6083
 20
27.3894
  0
VERTEX
  8
front
  5
17
 10
19.5669
 20
27.4212
  0
VERTEX
  8
front
  5
18
 10
19.5351
 20
27.4626
  0
VERTEX
  8
front
  5
19
 10
19.5152
 20
27.5108
  0
SEQEND
  8
front
  5
1A
  0
POLYLINE
  8
front
  5
1B
 66
1
 10
0.0
 20
0.0
 30
0.0
 70
1
  0
VERTEX
  8
front
  5
1C
 10
19.5083
 20
27.5626
  0
VERTEX
  8
front
  5
1D
 10
19.5152
 20
27.6143
  0
VERTEX
  8
front
  5
1E
 10
19.5351
 20
27.6626
  0
VERTEX
  8
front
  5
1F
 10
19.5669
 20
27.704
  0
VERTEX
  8
front
  5
20
 10
19.6083
 20
27.7358
  0
VERTEX
  8
front
  5
21
 10
19.6566
 20
27.7558
  0
VERTEX
  8
front
  5
22
 10
19.7083
 20
27.7626
  0
VERTEX
  8
front
  5
23
 10
19.7601
 20
27.7558
  0
VERTEX
  8
front
  5
24
 10
19.8083
 20
27.7358
  0
VERTEX
  8
front
  5
25
 10
19.8498
 20
27.704
  0
VERTEX
  8
front
  5
26
 10
19.8816
 20
27.6626
  0
VERTEX
  8
front
  5
27
 10
19.9015
 20
27.6143
  0
VERTEX
  8
front
  5
28
 10
19.9083
 20
27.5626
  0
VERTEX
  8
front
  5
29
 10
19.9015
 20
27.5108
  0
VERTEX
  8
front
  5
2A
 10
19.8816
 20
27.4626
  0
VERTEX
  8
front
  5
2B
 10
19.8498
 20
27.4212
  0
VERTEX
  8
front
  5
2C
 10
19.8083
 20
27.3894
  0
VERTEX
  8
front
  5
2D
 10
19.7601
 20
27.3694
  0
VERTEX
  8
front
  5
2E
 10
19.7083
 20
27.3626
  0
VERTEX
  8
front
  5
2F
 10
19.6566
 20
27.3694
  0
VERTEX
  8
front
  5
30
 10
19.6083
 20
27.3894
  0
VERTEX
  8
front
  5
31
 10
19.5669
 20
27.4212
  0
VERTEX
  8
front
  5
32
 10
19.5351
 20
27.4626
  0
VERTEX
  8
front
  5
33
 10
19.5152
 20
27.5108
  0
SEQEND
  8
front
  5
34
  0
POLYLINE
  8
front
  5
35
 66
1
 10
0.0
 20
0.0
 30
0.0
 70
1
  0
VERTEX
  8
front
  5
36
 10
18.7071
 20
40.2676
  0
VERTEX
  8
front
  5
37
 10
18.0
 20
39.5605
  0
VERTEX
  8
front
  5
38
 10
17.2929
 20
40.2676
  0
VERTEX
  8
front
  5
39
 10
17.5
 20
40.4265
  0
VERTEX
  8
front
  5
3A
 10
17.7412
 20
40.5264
  0
VERTEX
  8
front
  5
3B
 10
18.0
 20
40.5605
  0
VERTEX
  8
front
  5
3C
 10
18.2588
 20
40.5264
  0
VERTEX
  8
front
  5
3D
 10
18.5
 20
40.4265
  0
SEQEND
  8
front
  5
3E
  0
POLYLINE
  8
front
  5
3F
 66
1
 10
0.0
 20
0.0
 30
0.0
 70
1
  0
VERTEX
  8
front
  5
40
 10
17.2929
 20
38.7534
  0
VERTEX
  8
front
  5
41
 10
18.0
 20
39.4605
  0
VERTEX
  8
front
  5
42
 10
18.7071
 20
38.7534
  0
VERTEX
  8
front
  5
43
 10
18.5
 20
38.5945
  0
VERTEX
  8
front
  5
44
 10
18.2588
 20
38.4946
  0
VERTEX
  8
front
  5
45
 10
18.0
 20
38.4605
  0
VERTEX
  8
front
  5
46
 10
17.7412
 20
38.4946
  0
VERTEX
  8
front
  5
47
 10
17.5
 20
38.5945
  0
SEQEND
  8
front
  5
48
  0
POLYLINE
  8
front
  5
49
 66
1
 10
0.0
 20
0.0
 30
0.0
 70
1
  0
VERTEX
  8
front
  5
4A
 10
6.57013
 20
42.5105
  0
VERTEX
  8
front
  5
4B
 10
6.57354
 20
42.5364
  0
VERTEX
  8
front
  5
4C
 10
6.58353
 20
42.5605
  0
VERTEX
  8
front
  5
4D
 10
6.59942
 20
42.5812
  0
VERTEX
  8
front
  5
4E
 10
6.62013
 20
42.5971
  0
VERTEX
  8
front
  5
4F
 10
6.64425
 20
42.6071
  0
VERTEX
  8
front
  5
50
 10
6.67013
 20
42.6105
  0
VERTEX
  8
front
  5
51
 10
6.69601
 20
42.6071
  0
VERTEX
  8
front
  5
52
 10
6.72013
 20
42.5971
  0
VERTEX
  8
front
  5
53
 10
6.74084
 20
42.5812
  0
VERTEX
  8
front
  5
54
 10
6.75674
 20
42.5605
  0
VERTEX
  8
front
  5
55
 10
6.76673
 20
42.5364
  0
VERTEX
  8
front
  5
56
 10
6.77013
 20
42.5105
  0
VERTEX
  8
front
  5
57
 10
6.76673
 20
42.4846
  0
VERTEX
  8
front
  5
58
 10
6.75674
 20
42.4605
  0
VERTEX
  8
front
  5
59
 10
6.74084
 20
42.4398
  0
VERTEX
  8
front
  5
5A
 10
6.72013
 20
42.4239
  0
VERTEX
  8
front
  5
5B
 10
6.69601
 20
42.4139
  0
VERTEX
  8
front
  5
5C
 10
6.67013
 20
42.4105
  0
VERTEX
  8
front
  5
5D
 10
6.64425
 20
42.4139
  0
VERTEX
  8
front
  5
5E
 10
6.62013
 20
42.4239
  0
VERTEX
  8
front
  5
5F
 10
6.59942
 20
42.4398
  0
VERTEX
  8
front
  5
60
 10
6.58353
 20
42.4605
  0
VERTEX
  8
front
  5
61
 10
6.57354
 20
42.4846
  0
SEQEND
  8
front
  5
62
  0
POLYLINE
  8
front
  5
63
 66
1
 10
0.0
 20
0.0
 30
0.0
 70
1
  0
VERTEX
  8
front
  5
64
 10
6.77013
 20
42.5105
  0
VERTEX
  8
front
  5
65
 10
6.76673
 20
42.4846
  0
VERTEX
  8
front
  5
66
 10
6.75674
 20
42.4605
  0
VERTEX
  8
front
  5
67
 10
6.74084
 20
42.4398
  0
VERTEX
  8
front
  5
68
 10
6.72013
 20
42.4239
  0
VERTEX
  8
front
  5
69
 10
6.69601
 20
42.4139
  0
VERTEX
  8
front
  5
6A
 10
6.67013
 20
42.4105
  0
VERTEX
  8
front
  5
6B
 10
6.64425
 20
42.4139
  0
VERTEX
  8
front
  5
6C
 10
6.62013
 20
42.4239
  0
VERTEX
  8
front
  5
6D
 10
6.59942
 20
42.4398
  0
VERTEX
  8
front
  5
6E
 10
6.58353
 20
42.4605
  0
VERTEX
  8
front
  5
6F
 10
6.57354
 20
42.4846
  0
VERTEX
  8
front
  5
70
 10
6.57013
 20
42.5105
  0
VERTEX
  8
front
  5
71
 10
6.57354
 20
42.5364
  0
VERTEX
  8
front
  5
72
 10
6.58353
 20
42.5605
  0
VERTEX
  8
front
  5
73
 10
6.59942
 20
42.5812
  0
VERTEX
  8
front
  5
74
 10
6.62013
 20
42.5971
  0
VERTEX
  8
front
  5
75
 10
6.64425
 20
42.6071
  0
VERTEX
  8
front
  5
76
 10
6.67013
 20
42.6105
  0
VERTEX
  8
front
  5
77
 10
6.69601
 20
42.6071
  0
VERTEX
  8
front
  5
78
 10
6.72013
 20
42.5971
  0
VERTEX
  8
front
  5
79
 10
6.74084
 20
42.5812
  0
VERTEX
  8
front
  5
7A
 10
6.75674
 20
42.5605
  0
VERTEX
  8
front
  5
7B
 10
6.76673
 20
42.5364
  0
SEQEND
  8
front
  5
7C
  0
POLYLINE
  8
front
  5
7D
 66
1
 10
0.0
 20
0.0
 30
0.0
 70
1
  0
VERTEX
  8
front
  5
7E
 10
6.92013
 20
41.7605
  0
VERTEX
  8
front
  5
7F
 10
6.42013
 20
41.7605
  0
VERTEX
  8
front
  5
80
 10
6.42013
 20
43.2605
  0
VERTEX
  8
front
  5
81
 10
6.92013
 20
43.2605
  0
SEQEND
  8
front
  5
82
  0
POLYLINE
  8
front
  5
83
 66
1
 10
0.0
 20
0.0
 30
0.0
 70
1
  0
VERTEX
  8
front
  5
84
 10
6.42013
 20
42.7605
  0
VERTEX
  8
front
  5
85
 10
5.92013
 20
42.7605
  0
VERTEX
  8
front
  5
86
 10
5.92013
 20
43.2605
  0
VERTEX
  8
front
  5
87
 10
6.42013
 20
43.2605
  0
SEQEND
  8
front
  5
88
  0
POLYLINE
  8
front
  5
89
 66
1
 10
0.0
 20
0.0
 30
0.0
 70
1
  0
VERTEX
  8
front
  5
8A
 10
6.42013
 20
41.7605
  0
VERTEX
  8
front
  5
8B
 10
5.92013
 20
41.7605
  0
VERTEX
  8
front
  5
8C
 10
5.92013
 20
42.2605
  0
VERTEX
  8
front
  5
8D
 10
6.42013
 20
42.2605
  0
SEQEND
  8
front
  5
8E
  0
POLYLINE
  8
front
  5
8F
 66
1
 10
0.0
 20
0.0
 30
0.0
 70
1
  0
VERTEX
  8
front
  5
90
 10
4.92013
 20
42.7605
  0
VERTEX
  8
front
  5
91
 10
4.42013
 20
42.7605
  0
VERTEX
  8
front
  5
92
 10
4.42013
 20
43.2605
  0
VERTEX
  8
front
  5
93
 10
4.92013
 20
43.2605
  0
SEQEND
  8
front
  5
94
  0
POLYLINE
  8
front
  5
95
 66
1
 10
0.0
 20
0.0
 30
0.0
 70
1
  0
VERTEX
  8
front
  5
96
 10
4.92013
 20
41.7605
  0
VERTEX
  8
front
  5
97
 10
4.42013
 20
41.7605
  0
VERTEX
  8
front
  5
98
 10
4.42013
 20
42.2605
  0
VERTEX
  8
front
  5
99
 10
4.92013
 20
42.2605
  0
SEQEND
  8
front
  5
9A
  0
POLYLINE
  8
front
  5
9B
 66
1
 10
0.0
 20
0.0
 30
0.0
 70
1
  0
VERTEX
  8
front
  5
9C
 10
4.07013
 20
42.5105
  0
VERTEX
  8
front
  5
9D
 10
4.07354
 20
42.5364
  0
VERTEX
  8
front
  5
9E
 10
4.08353
 20
42.5605
  0
VERTEX
  8
front
  5
9F
 10
4.09942
 20
42.5812
  0
VERTEX
  8
front
  5
A0
 10
4.12013
 20
42.5971
  0
VERTEX
  8
front
  5
A1
 10
4.14425
 20
42.6071
  0
VERTEX
  8
front
  5
A2
 10
4.17013
 20
42.6105
  0
VERTEX
  8
front
  5
A3
 10
4.19601
 20
42.6071
  0
VERTEX
  8
front
  5
A4
 10
4.22013
 20
42.5971
  0
VERTEX
  8
front
  5
A5
 10
4.24084
 20
42.5812
  0
VERTEX
  8
front
  5
A6
 10
4.25674
 20
42.5605
  0
VERTEX
  8
front
  5
A7
 10
4.26673
 20
42.5364
  0
VERTEX
  8
front
  5
A8
 10
4.27013
 20
42.5105
  0
VERTEX
  8
front
  5
A9
 10
4.26673
 20
42.4846
  0
VERTEX
  8
front
  5
AA
 10
4.25674
 20
42.4605
  0
VERTEX
  8
front
  5
AB
 10
4.24084
 20
42.4398
  0
VERTEX
  8
front
  5
AC
 10
4.22013
 20
42.4239
  0
VERTEX
  8
front
  5
AD
 10
4.19601
 20
42.4139
  0
VERTEX
  8
front
  5
AE
 10
4.17013
 20
42.4105
  0
VERTEX
  8
front
  5
AF
 10
4.14425
 20
42.4139
  0
VERTEX
  8
front
  5
B0
 10
4.12013
 20
42.4239
  0
VERTEX
  8
front
  5
B1
 10
4.09942
 20
42.4398
  0
VERTEX
  8
front
  5
B2
 10
4.08353
 20
42.4605
  0
VERTEX
  8
front
  5
B3
 10
4.07354
 20
42.4846
  0
SEQEND
  8
front
  5
B4
  0
POLYLINE
  8
front
  5
B5
 66
1
 10
0.0
 20
0.0
 30
0.0
 70
1
  0
VERTEX
  8
front
  5
B6
 10
4.27013
 20
42.5105
  0
VERTEX
  8
front
  5
B7
 10
4.26673
 20
42.4846
  0
VERTEX
  8
front
  5
B8
 10
4.25674
 20
42.4605
  0
VERTEX
  8
front
  5
B9
 10
4.24084
 20
42.4398
  0
VERTEX
  8
front
  5
BA
 10
4.22013
 20
42.4239
  0
VERTEX
  8
front
  5
BB
 10
4.19601
 20
42.4139
  0
VERTEX
  8
front
  5
BC
 10
4.17013
 20
42.4105
  0
VERTEX
  8
front
  5
BD
 10
4.14425
 20
42.4139
  0
VERTEX
  8
front
  5
BE
 10
4.12013
 20
42.4239
  0
VERTEX
  8
front
  5
BF
 10
4.09942
 20
42.4398
  0
VERTEX
  8
front
  5
C0
 10
4.08353
 20
42.4605
  0
VERTEX
  8
front
  5
C1
 10
4.07354
 20
42.4846
  0
VERTEX
  8
front
  5
C2
 10
4.07013
 20
42.5105
  0
VERTEX
  8
front
  5
C3
 10
4.07354
 20
42.5364
  0
VERTEX
  8
front
  5
C4
 10
4.08353
 20
42.5605
  0
VERTEX
  8
front
  5
C5
 10
4.09942
 20
42.5812
  0
VERTEX
  8
front
  5
C6
 10
4.12013
 20
42.5971
  0
VERTEX
  8
front
  5
C7
 10
4.14425
 20
42.6071
  0
VERTEX
  8
front
  5
C8
 10
4.17013
 20
42.6105
  0
VERTEX
  8
front
  5
C9
 10
4.19601
 20
42.6071
  0
VERTEX
  8
front
  5
CA
 10
4.22013
 20
42.5971
  0
VERTEX
  8
front
  5
CB
 10
4.24084
 20
42.5812
  0
VERTEX
  8
front
  5
CC
 10
4.25674
 20
42.5605
  0
VERTEX
  8
front
  5
CD
 10
4.26673
 20
42.5364
  0
SEQEND
  8
front
  5
CE
  0
POLYLINE
  8
front
  5
CF
 66
1
 10
0.0
 20
0.0
 30
0.0
 70
1
  0
VERTEX
  8
front
  5
D0
 10
4.42013
 20
41.7605
  0
VERTEX
  8
front
  5
D1
 10
3.92013
 20
41.7605
  0
VERTEX
  8
front
  5
D2
 10
3.92013
 20
43.2605
  0
VERTEX
  8
front
  5
D3
 10
4.42013
 20
43.2605
  0
SEQEND
  8
front
  5
D4
  0
POLYLINE
  8
front
  5
D5
 66
1
 10
0.0
 20
0.0
 30
0.0
 70
1
  0
VERTEX
  8
front
  5
D6
 10
-0.829867
 20
38.6605
  0
VERTEX
  8
front
  5
D7
 10
-1.32987
 20
38.6605
  0
VERTEX
  8
front
  5
D8
 10
-1.32987
 20
38.7605
  0
VERTEX
  8
front
  5
D9
 10
-0.829867
 20
38.7605
  0
SEQEND
  8
front
  5
DA
  0
POLYLINE
  8
front
  5
DB
 66
1
 10
0.0
 20
0.0
 30
0.0
 70
1
  0
VERTEX
  8
front
  5
DC
 10
-0.829867
 20
38.5605
  0
VERTEX
  8
front
  5
DD
 10
-1.32987
 20
38.5605
  0
VERTEX
  8
front
  5
DE
 10
-1.32987
 20
38.6605
  0
VERTEX
  8
front
  5
DF
 10
-0.829867
 20
38.6605
  0
SEQEND
  8
front
  5
E0
  0
POLYLINE
  8
front
  5
E1
 66
1
 10
0.0
 20
0.0
 30
0.0
 70
1
  0
VERTEX
  8
front
  5
E2
 10
-3.52755
 20
-1.52357e-016
  0
VERTEX
  8
front
  5
E3
 10
-1.99755
 20
0.0
  0
SEQEND
  8
front
  5
E4
  0
POLYLINE
  8
front
  5
E5
 66
1
 10
0.0
 20
0.0
 30
0.0
 70
1
  0
VERTEX
  8
front
  5
E6
 10
19.7083
 20
29.768
  0
VERTEX
  8
front
  5
E7
 10
19.7083
 20
27.9626
  0
VERTEX
  8
front
  5
E8
 10
19.8119
 20
27.9489
  0
VERTEX
  8
front
  5
E9
 10
19.9083
 20
27.909
  0
VERTEX
  8
front
  5
EA
 10
19.9912
 20
27.8454
  0
VERTEX
  8
front
  5
EB
 10
20.0548
 20
27.7626
  0
VERTEX
  8
front
  5
EC
 10
20.0947
 20
27.6661
  0
VERTEX
  8
front
  5
ED
 10
20.1083
 20
27.5626
  0
VERTEX
  8
front
  5
EE
 10
20.0947
 20
27.4591
  0
VERTEX
  8
front
  5
EF
 10
20.0548
 20
27.3626
  0
VERTEX
  8
front
  5
F0
 10
19.9912
 20
27.2797
  0
VERTEX
  8
front
  5
F1
 10
19.9083
 20
27.2162
  0
VERTEX
  8
front
  5
F2
 10
19.8119
 20
27.1762
  0
VERTEX
  8
front
  5
F3
 10
19.7083
 20
27.1626
  0
VERTEX
  8
front
  5
F4
 10
19.7083
 20
25.3572
  0
VERTEX
  8
front
  5
F5
 10
0.0
 20
25.3572
  0
VERTEX
  8
front
  5
F6
 10
0.0
 20
10.0
  0
VERTEX
  8
front
  5
F7
 10
-1.99755
 20
10.0
  0
VERTEX
  8
front
  5
F8
 10
-1.99755
 20
0.0
  0
VERTEX
  8
front
  5
F9
 10
-3.52755
 20
0.0
  0
VERTEX
  8
front
  5
FA
 10
-3.52755
 20
10.0
  0
VERTEX
  8
front
  5
FB
 10
-5.5251
 20
10.0
  0
VERTEX
  8
front
  5
FC
 10
-5.5251
 20
27.5626
  0
VERTEX
  8
front
  5
FD
 10
-2.15973
 20
27.5626
  0
VERTEX
  8
front
  5
FE
 10
-2.15973
 20
37.1806
  0
VERTEX
  8
front
  5
FF
 10
-2.12135
 20
37.466
  0
VERTEX
  8
front
  5
100
 10
-2.00892
 20
37.7311
  0
VERTEX
  8
front
  5
101
 10
-1.83043
 20
37.957
  0
VERTEX
  8
front
  5
102
 10
-1.59859
 20
38.1278
  0
VERTEX
  8
front
  5
103
 10
-1.32987
 20
38.2312
  0
VERTEX
  8
front
  5
104
 10
-1.32987
 20
38.5605
  0
VERTEX
  8
front
  5
105
 10
-0.829867
 20
38.5605
  0
VERTEX
  8
front
  5
106
 10
-0.829867
 20
38.2312
  0
VERTEX
  8
front
  5
107
 10
-0.561144
 20
38.1278
  0
VERTEX
  8
front
  5
108
 10
-0.3293
 20
37.957
  0
VERTEX
  8
front
  5
109
 10
-0.150818
 20
37.7311
  0
VERTEX
  8
front
  5
10A
 10
-0.0383868
 20
37.466
  0
VERTEX
  8
front
  5
10B
 10
0.0
 20
37.1806
  0
VERTEX
  8
front
  5
10C
 10
0.0
 20
29.768
  0
SEQEND
  8
front
  5
10D
  0
POLYLINE
  8
front
  5
10E
 66
1
 10
0.0
 20
0.0
 30
0.0
 70
1
  0
VERTEX
  8
front
  5
10F
 10
5.67013
 20
41.7605
  0
VERTEX
  8
front
  5
110
 10
5.67013
 20
39.7605
  0
VERTEX
  8
front
  5
111
 10
10.5082
 20
39.7605
  0
VERTEX
  8
front
  5
112
 10
10.3263
 20
38.3789
  0
VERTEX
  8
front
  5
113
 10
9.79302
 20
37.0915
  0
VERTEX
  8
front
  5
114
 10
8.94471
 20
35.9859
  0
VERTEX
  8
front
  5
115
 10
7.83916
 20
35.1376
  0
VERTEX
  8
front
  5
116
 10
6.55172
 20
34.6043
  0
VERTEX
  8
front
  5
117
 10
5.17013
 20
34.4225
  0
VERTEX
  8
front
  5
118
 10
5.17013
 20
39.2605
  0
VERTEX
  8
front
  5
119
 10
-0.829867
 20
39.2605
  0
VERTEX
  8
front
  5
11A
 10
-0.829867
 20
38.7605
  0
VERTEX
  8
front
  5
11B
 10
-1.32987
 20
38.7605
  0
VERTEX
  8
front
  5
11C
 10
-1.32987
 20
39.2605
  0
VERTEX
  8
front
  5
11D
 10
-6.16792
 20
39.2605
  0
VERTEX
  8
front
  5
11E
 10
-5.98603
 20
40.6421
  0
VERTEX
  8
front
  5
11F
 10
-5.45276
 20
41.9295
  0
VERTEX
  8
front
  5
120
 10
-4.60444
 20
43.0351
  0
VERTEX
  8
front
  5
121
 10
-3.49889
 20
43.8834
  0
VERTEX
  8
front
  5
122
 10
-2.21146
 20
44.4167
  0
VERTEX
  8
front
  5
123
 10
-0.829867
 20
44.5986
  0
VERTEX
  8
front
  5
124
 10
-0.829867
 20
39.7605
  0
VERTEX
  8
front
  5
125
 10
5.17013
 20
39.7605
  0
VERTEX
  8
front
  5
126
 10
5.17013
 20
41.7605
  0
VERTEX
  8
front
  5
127
 10
4.92013
 20
41.7605
  0
VERTEX
  8
front
  5
128
 10
4.92013
 20
42.2605
  0
VERTEX
  8
front
  5
129
 10
5.17013
 20
42.2605
  0
VERTEX
  8
front
  5
12A
 10
5.17013
 20
42.7605
  0
VERTEX
  8
front
  5
12B
 10
4.92013
 20
42.7605
  0
VERTEX
  8
front
  5
12C
 10
4.92013
 20
43.2605
  0
VERTEX
  8
front
  5
12D
 10
5.17013
 20
43.2605
  0
VERTEX
  8
front
  5
12E
 10
5.17013
 20
45.7605
  0
VERTEX
  8
front
  5
12F
 10
5.67013
 20
45.7605
  0
VERTEX
  8
front
  5
130
 10
5.67013
 20
43.2605
  0
VERTEX
  8
front
  5
131
 10
5.92013
 20
43.2605
  0
VERTEX
  8
front
  5
132
 10
5.92013
 20
42.7605
  0
VERTEX
  8
front
  5
133
 10
5.67013
 20
42.7605
  0
VERTEX
  8
front
  5
134
 10
5.67013
 20
42.2605
  0
VERTEX
  8
front
  5
135
 10
5.92013
 20
42.2605
  0
VERTEX
  8
front
  5
136
 10
5.92013
 20
41.7605
  0
SEQEND
  8
front
  5
137
  0
POLYLINE
  8
front
  5
138
 66
1
 10
0.0
 20
0.0
 30
0.0
 70
1
  0
VERTEX
  8
front
  5
139
 10
-20.0
 20
50.0
  0
VERTEX
  8
front
  5
13A
 10
30.0
 20
50.0
  0
VERTEX
  8
front
  5
13B
 10
30.0
 20
1.77636e-015
  0
VERTEX
  8
front
  5
13C
 10
5.0
 20
-2.36085e-015
  0
VERTEX
  8
front
  5
13D
 10
30.0
 20
1.77636e-015
  0
VERTEX
  8
front
  5
13E
 10
30.0
 20
50.0
  0
VERTEX
  8
front
  5
13F
 10
-20.0
 20
50.0
  0
VERTEX
  8
front
  5
140
 10
-20.0
 20
-1.77636e-016
  0
VERTEX
  8
front
  5
141
 10
-9.0
 20
1.22403e-015
  0
VERTEX
  8
front
  5
142
 10
-20.0
 20
-1.77636e-016
  0
SEQEND
  8
front
  5
143
  0
POLYLINE
  8
front
  5
144
 66
1
 10
0.0
 20
0.0
 30
0.0
 70
1
  0
VERTEX
  8
front
  5
145
 10
30.0
 20
0.0
  0
VERTEX
  8
front
  5
146
 10
-20.0
 20
0.0
  0
VERTEX
  8
front
  5
147
 10
-20.0
 20
50.0
  0
VERTEX
  8
front
  5
148
 10
30.0
 20
50.0
  0
SEQEND
  8
front
  5
149
  0
POLYLINE
  8
front
  5
14A
 66
1
 10
0.0
 20
0.0
 30
0.0
 70
1
  0
VERTEX
  8
front
  5
14B
 10
55.0
 20
-26.0
  0
VERTEX
  8
front
  5
14C
 10
-45.0
 20
-26.0
  0
VERTEX
  8
front
  5
14D
 10
-45.0
 20
74.0
  0
VERTEX
  8
front
  5
14E
 10
55.0
 20
74.0
  0
SEQEND
  8
front
  5
14F
  0
ENDSEC
  0
EOF
